<svg width="194" height="134" fill="none" xmlns="http://www.w3.org/2000/svg"><path d="M152.147 60.812c-1.689 1.377-3.422 2.736-4.69 4.52-2.148 3.018-4.988 5.309-7.768 7.659-2.529 2.137-5.484 3.388-8.782 3.795-.991.122-2.017.656-2.711-.71-.32-.632-1.074-.252-1.598-.007-1.423.665-2.829 1.367-4.213 2.042-.378-.339-.23-.704-.233-1.04-.014-2.087-.741-2.525-2.594-1.529-.568.306-1.098.683-1.635 1.043-1.213.815-2.418 1.64-3.94 2.673.189-.665.256-.883.313-1.104.219-.853 1.109-1.798.018-2.541-.984-.67-1.6.397-2.256.869-1.827 1.314-3.471 2.894-5.986 4.15.637-1.137 1.069-1.819 1.414-2.54.58-1.215 2.17-2.482 1.047-3.763-1.039-1.184-2.639-.079-3.952.312-1.941.578-3.608 1.795-5.82 2.771 1.707-3.647 3.359-6.804 5.822-9.474.475-.515 1.041-1.132.185-1.779-.725-.546-1.146.026-1.603.524-2.543 2.776-5.065 5.574-7.675 8.287-1.876 1.951-3.96 3.68-6.2 5.214-.97.663-1.403.467-1.627-.699-.312-1.627-.879-1.85-2.266-.934-1.274.842-2.476 1.793-3.733 2.662-.666.461-1.386 1.337-2.13 1.03-.843-.349-.37-1.452-.446-2.228-.142-1.474-.826-1.872-2.1-1.086-.992.61-1.9 1.357-2.846 2.044l-4.103 2.61c-.146-1.47.47-2.566 1.031-3.616 1.08-2.024 2.312-3.965 3.443-5.963 1.098-1.94 2.4-3.8 2.884-6.025.314-1.438-.398-2.032-1.773-1.524-.71.262-1.385.647-2.037 1.04-3.29 1.982-6.296 4.335-9.063 6.999-2.396 2.305-4.8 4.602-7.312 7.01.82-1.852 1.666-3.576 2.36-5.36 1.692-4.346 3.999-8.388 6.053-12.557.355-.72 1.16-1.627.39-2.406-.819-.83-1.65.104-2.372.468-2.893 1.457-5.655 3.15-8.324 4.985-10.31 7.09-19.65 15.351-28.73 23.925-.454.43-.799 1.202-1.597.986 3.968-5.657 7.919-11.294 11.877-16.926 5.347-7.61 11.38-14.726 16.283-22.654 2.14-3.461 4.083-7.029 5.202-10.976 1.566-5.516.185-9.721-4.06-12.605-2.216-1.505-4.667-2.151-7.312-2.251-4.542-.173-8.692 1.29-12.755 3.058-2.208.96-4.401 1.987-6.22 3.637-.382.346-.695.784-.367 1.22.439.583.84-.005 1.159-.257 2.106-1.664 4.572-2.668 6.985-3.728 3.524-1.549 7.191-2.586 11.11-2.42 8.257.35 12.429 6.417 9.774 14.206-1.612 4.727-4.212 8.924-6.931 13.056-4.503 6.842-9.76 13.136-14.439 19.852-6.729 9.66-13.314 19.432-21.346 28.1-.41.441-.901.929-.37 1.514.53.582 1.092.119 1.568-.211a4.57 4.57 0 00.909-.831c2.482-2.999 5.221-5.752 7.984-8.487 10.517-10.412 21.49-20.28 33.882-28.45 1.876-1.237 3.799-2.411 6.219-3.41-.355.814-.551 1.29-.768 1.758-1.186 2.563-2.724 4.943-3.78 7.58-2.055 5.138-4.358 10.165-7.073 14.994-.335.596-.977 1.269-.065 1.808.845.5 1.214-.272 1.633-.857 4.303-6.027 9.447-11.266 15.104-16.007 1.896-1.59 3.888-3.073 6.53-4.171-.872 2.26-1.84 3.998-2.889 5.704-2.158 3.51-4.295 7.038-5.303 11.103-.154.623-.411 1.26.215 1.794.68.58 1.193.109 1.715-.275 1.8-1.32 3.597-2.646 5.395-3.97.68-.44 1.36-.882 2.056-1.334 1.258 3.719 2.507 4.067 5.662 1.641.792-.608 1.575-1.23 2.356-1.851.533-.424.875-.61 1.31.237.976 1.895 1.856 2.11 3.634.906 2.298-1.556 4.225-3.558 6.229-5.461.499-.473.985-.96 1.477-1.44-.406 1.563-.978 2.908-1.572 4.244-.303.682-.236 1.305.382 1.717.578.386 1.096.082 1.58-.34a35.608 35.608 0 012.323-1.893c1.826-1.343 3.796-2.393 6.245-3.056-.814 1.66-1.538 3-2.13 4.395-.37.87-.639 1.951.163 2.654.906.793 1.765-.015 2.521-.534 1.553-1.063 3.071-2.177 4.774-3.392-.039.664-.088 1.012-.073 1.357.027.648.033 1.314.766 1.647.715.325 1.256-.05 1.774-.444.561-.426 1.064-.93 1.634-1.344 1.297-.94 2.439-2.126 4.022-2.719.422 3.198 1.407 3.64 4.032 1.921.295-.193.583-.4.885-.581.933-.562 1.822-1.327 2.796.041.334.469 1.065.429 1.665.343 4.647-.668 8.885-2.22 12.258-5.659.687-.7 1.362-1.427 2.477-2.012-.211 1.423-.4 2.62-.563 3.819-.147 1.071-.056 2.123.464 3.09.244.453.669.69 1.186.49.483-.188.432-.582.347-1.029-.856-4.5.543-8.34 3.555-11.64 1.307-1.433 2.745-2.748 4.147-4.09.425-.407 1.079-.729.475-1.398-.493-.547-1.065-.326-1.568.084zm15.085 11.68c-1.984 2.061-3.858 4.268-6.674 5.351-.317-2.695 2.561-6.13 6.239-7.519.583.272-.618 1.128.419 1.331.497.097.27.573.016.837zm14.008 1.239c-.342-.825-1.103-.28-1.694-.084-.545.181-1.14.548-1.618-.054-.52-.654-.061-1.238.304-1.757.777-1.106 1.61-2.173 2.396-3.272.325-.455.518-1.015.015-1.43-.566-.466-1.117-.207-1.509.329-.659.9-1.29 1.82-1.927 2.736-1.865 2.679-4.493 4.286-7.539 5.439.347-1.365.955-2.544 1.418-3.778.326-.87 1.268-1.933.213-2.713-1.111-.82-1.432.85-2.427 1.17-.339-1.48-1.052-2.34-2.629-1.907-2.921.803-7.216 5.801-7.539 8.779-.1.92.013 1.809.854 2.358.809.528 1.561.136 2.302-.289 2.258-1.296 4.196-2.98 6.055-5.222-.075 1.406-.555 2.644.596 3.35 1.172.72 2.288.047 3.301-.54 1.116-.647 2.158-1.42 3.253-2.105.346-.217.709-.735 1.172-.084 1.096 1.542 2.476.962 3.8.428.597-.24 1.588-.43 1.203-1.354z" fill="#333"/></svg>