<svg xmlns="http://www.w3.org/2000/svg" width="172.445" height="115" viewBox="0 0 172.445 115">
  <path id="Code" d="M67.292,8.826a9.574,9.574,0,0,0-13.6,0L5.826,56.7a9.574,9.574,0,0,0,0,13.6l47.87,47.87a9.613,9.613,0,1,0,13.6-13.6L26.123,63.494,67.292,22.421a9.574,9.574,0,0,0,0-13.6ZM172.607,56.7l-47.87-47.87a9.613,9.613,0,1,0-13.6,13.6L152.31,63.494l-41.169,41.073a9.613,9.613,0,1,0,13.6,13.6l47.87-47.87a9.574,9.574,0,0,0,0-13.6Z" transform="translate(-2.994 -5.994)" fill="#39d18e" opacity="0.37"/>
</svg>
