<svg id="Layer_1" data-name="Layer 1" xmlns="http://www.w3.org/2000/svg" width="67.18" height="63.804" viewBox="0 0 67.18 63.804">
  <path id="Path_36" data-name="Path 36" d="M24.243,10.448V37.13L8.169,58.4V8.282a6.614,6.614,0,0,0-.828-3.215A16.074,16.074,0,0,0,6.217,3.259,7.852,7.852,0,0,0,0,.2V0H13.8A10.448,10.448,0,0,1,24.243,10.448Z" fill="#333"/>
  <path id="Path_37" data-name="Path 37" d="M79.053,84.883,66.66,61.243l11.32-15.4s21.133,39.131,21.7,40.112a16.073,16.073,0,0,0,1.137,1.8c1.451,1.848,3.709,2.238,6.237,2.222v.993l-13.8.092C87.479,91.1,84.008,92.719,79.053,84.883Z" transform="translate(-39.873 -27.42)" fill="#39d18e"/>
  <path id="Path_38" data-name="Path 38" d="M106.307,0V.985a14.511,14.511,0,0,0-5.951,1.764,14.675,14.675,0,0,0-3.7,2.9c-.478.518-1.322,1.66-1.322,1.66l-7.659,9.427V8.294a6.614,6.614,0,0,0-.828-3.215,16.074,16.074,0,0,0-1.113-1.82A7.852,7.852,0,0,0,79.5.2V0Z" transform="translate(-47.554)" fill="#333"/>
</svg>
