<svg height="440pt" viewBox="0 -28 440 440" width="440pt" xmlns="http://www.w3.org/2000/svg"><path d="m64 344h16v16h-16zm0 0"/><path d="m416 0h-336c-13.253906 0-24 10.746094-24 24v112h-32c-13.253906 0-24 10.746094-24 24v200c0 13.253906 10.746094 24 24 24h96c13.253906 0 24-10.746094 24-24v-48h56v21.785156l-22.855469 38.09375c-1.484375 2.472656-1.527343 5.550782-.105469 8.058594 1.417969 2.511719 4.078126 4.0625 6.960938 4.0625h128c2.882812 0 5.542969-1.550781 6.960938-4.0625 1.421874-2.507812 1.378906-5.585938-.105469-8.058594l-22.855469-38.09375v-21.785156h120c13.253906 0 24-10.746094 24-24v-264c0-13.253906-10.746094-24-24-24zm-288 360c0 4.417969-3.582031 8-8 8h-96c-4.417969 0-8-3.582031-8-8v-24h112zm0-40h-112v-136h112zm0-152h-112v-8c0-4.417969 3.582031-8 8-8h96c4.417969 0 8 3.582031 8 8zm-8-32h-16v-88h40v112c0-13.253906-10.746094-24-24-24zm177.863281 232h-99.726562l16.71875-27.878906c.75-1.246094 1.144531-2.667969 1.144531-4.121094v-24h64v24c0 1.453125.394531 2.875 1.144531 4.121094zm126.136719-80c0 4.417969-3.582031 8-8 8h-272v-48h280zm0-56h-280v-24h8c4.417969 0 8-3.582031 8-8v-160c0-4.417969-3.582031-8-8-8h-56c-4.417969 0-8 3.582031-8 8v96h-16v-112c0-4.417969 3.582031-8 8-8h336c4.417969 0 8 3.582031 8 8zm0 0"/><path d="m240 264h16v16h-16zm0 0"/><path d="m72 280c22.089844 0 40-17.910156 40-40s-17.910156-40-40-40-40 17.910156-40 40c.027344 22.082031 17.917969 39.972656 40 40zm0-64c13.253906 0 24 10.746094 24 24s-10.746094 24-24 24-24-10.746094-24-24 10.746094-24 24-24zm0 0"/><path d="m32 288h80v16h-80zm0 0"/><path d="m248 32c-39.765625 0-72 32.234375-72 72s32.234375 72 72 72 72-32.234375 72-72c-.042969-39.746094-32.253906-71.957031-72-72zm0 128c-30.929688 0-56-25.070312-56-56s25.070312-56 56-56 56 25.070312 56 56c-.039062 30.910156-25.089844 55.960938-56 56zm0 0"/><path d="m184 192h128v16h-128zm0 0"/><path d="m400 32h-56c-4.417969 0-8 3.582031-8 8v72c0 4.417969 3.582031 8 8 8h56c4.417969 0 8-3.582031 8-8v-72c0-4.417969-3.582031-8-8-8zm-8 72h-40v-56h40zm0 0"/><path d="m400 136h-56c-4.417969 0-8 3.582031-8 8v56c0 4.417969 3.582031 8 8 8h56c4.417969 0 8-3.582031 8-8v-56c0-4.417969-3.582031-8-8-8zm-8 56h-40v-40h40zm0 0"/></svg>