<svg width="85" height="101" fill="none" xmlns="http://www.w3.org/2000/svg"><path fill-rule="evenodd" clip-rule="evenodd" d="M44.066 1.132c-18.039 2.264-28.405 21.95-21.453 40.743.388 1.05.672 1.934.63 1.964-2.124 1.515-5.043 4.365-6.218 6.073l-.654.951-.627-1.543a222.43 222.43 0 01-1.364-3.475c-1.164-3.051-2.314-4-3.81-3.146-.694.397-2.179.355-4.101-.117-4.458-1.095-6.44.274-3.709 2.56 3.338 2.795 4.825 6.945 5.561 15.512.165 1.926.34 3.54.387 3.587.276.277 1.958-.291 1.928-.65-.018-.212-.132-1.659-.254-3.216-.579-7.396-1.737-11.388-4.25-14.661l-.986-1.282 1.59.35c1.884.414 3.077.437 4.084.078.891-.318.824-.416 2.193 3.21 2.162 5.726 3.488 7.676 6.042 8.888 4.158 1.973 6.514 4.375 6.875 7.008.11.81.151.852 1.107 1.158 1.244.398 1.227.423.952-1.343-.559-3.593-2.71-5.964-7.764-8.555-1.894-.972-2.737-1.802-2.52-2.485.359-1.132 3.409-4.572 5.597-6.312l.914-.728.333.55c1.957 3.232 2.626 3.814 3.47 3.021.43-.404.437-.404.674-.023.448.716 1.8.298 1.799-.558 0-.18-.384-1.357-.853-2.616l-.853-2.288.804.693c7 6.031 32.82 5.797 38.97-.353l.96-.961 1.897 1.134c9.09 5.435 12.789 13.623 9.744 21.572l-.347.907.474.58c.26.32.575.747.7.949.445.727 1.866-3.22 2.227-6.188.762-6.267-2.997-13.68-9.046-17.836l-1.103-.758.359-.706c.542-1.066 1.547-4.176 2.059-6.37 3.153-13.52-1.542-25.93-12.105-31.997C59.46 1.628 51.059.254 44.066 1.132zm8.431 2.703C66.011 7.263 74.283 22.408 71.11 37.914c-.726 3.552-.93 3.885-1.569 2.555-1.318-2.746-6.431-4.921-13.37-5.686-3.345-.368-3.11-.283-3.36-1.217-1.147-4.29-6.5-4.43-7.73-.203-.325 1.117-.253 1.09-3.849 1.499-6.431.732-11.684 2.943-12.783 5.38-.484 1.072-.608 1.015-1.075-.498-4.522-14.64 2.854-30.67 16.292-35.41 3.577-1.261 5.416-1.365 8.831-.499zm9.187 1.559c12.126 5.603 16.994 20.683 11.377 35.25-.758 1.963-.918 1.916-.403-.12 3.513-13.867-1.137-28.002-11.5-34.962-1.533-1.03-1.419-1.066.526-.168zM36.156 5.9c-5.392 4.355-8.523 8.745-10.541 14.776-2.12 6.335-2.231 12.32-.358 19.172.588 2.15.596 2.235.245 2.492-.46.336-.438.376-1.42-2.571-4.345-13.05.187-26.717 11.098-33.468 1.407-.871 1.714-.997.976-.401zM50.02 32.802c2.158 2.159.25 7.08-2.045 5.275-1.458-1.147-1.458-4.257 0-5.404.73-.573 1.383-.532 2.045.13zm-4.92 4.623c1.125 4.21 6.705 3.957 7.766-.35l.134-.547 1.393.128c5.72.526 11.088 2.154 12.663 3.84 3.932 4.21-13.851 7.87-27.205 5.603-12.63-2.145-12.616-6.856.028-8.942 4.907-.81 4.932-.809 5.22.269zm-18.32 6.823c0 .047.264.799.585 1.672.692 1.876.504 1.866-.604-.032-.64-1.095-.752-1.415-.54-1.55.288-.181.56-.225.56-.09zm28.028 11.7c-1.064.35-1.665.678-2.262 1.233l-.504.47-1.352-.319c-3.328-.782-6.648.385-7.802 2.743l-.503 1.029-1.123.102c-3.048.276-5.27 2.432-4.84 4.697.064.343.14.77.17.948.03.186-.231.519-.614.781-2.602 1.789-2.498 5.307.191 6.42.496.206.576.322.452.66-.99 2.704 1.26 5.406 4.767 5.724 1.103.1 1.18.14 1.286.666.504 2.519 4.852 4.004 8.775 2.998.416-.106.652-.043.977.263 2.176 2.044 7.47 2.044 9.646 0 .326-.306.56-.37.977-.262 3.89 1.004 8.275-.495 8.775-2.999.105-.525.183-.566 1.287-.666 3.497-.317 5.709-2.955 4.784-5.706-.106-.315.047-.503.793-.976 2.419-1.534 2.34-4.398-.168-6.122-.383-.263-.643-.595-.613-.78.028-.179.105-.606.17-.949.429-2.265-1.793-4.421-4.84-4.697l-1.124-.102-.503-1.029c-1.154-2.358-4.474-3.525-7.802-2.742l-1.352.317-.504-.482c-1.316-1.26-5.068-1.9-7.144-1.22zm4.135 3.157c1.197.355 2.65 1.582 3.111 2.629l.335.76.976-.386c4.87-1.92 9.321.564 7.49 4.18l-.455.9.993.233c4.932 1.161 5.413 4.951.826 6.509-.507.171-1.045.312-1.196.312-.468 0-.495.304-.096 1.087 1.919 3.763-2.91 6.073-8.21 3.926-.206-.084-.466.183-.878.9-1.102 1.92-3.444 2.947-5.662 2.486-1.486-.309-2.8-1.237-3.518-2.485-.412-.718-.672-.985-.879-.901-5.3 2.147-10.128-.163-8.21-3.926.4-.783.373-1.087-.095-1.087-.151 0-.69-.14-1.195-.312-4.588-1.558-4.107-5.348.825-6.509l.993-.234-.456-.9c-1.788-3.533 2.268-5.98 7.117-4.294l1.362.474.329-.746c.973-2.206 3.901-3.386 6.493-2.616zM55.77 61.33c-1.575.716-2.044 1.99-1.588 4.317.273 1.393.122 1.31 1.896 1.043.69-.104 1.162-.376 2.197-1.266.724-.623 1.53-1.273 1.79-1.443.408-.268.448-.39.3-.91-.495-1.725-2.75-2.579-4.595-1.74zm-9.538 2.373c-2.018.603-.642 2.63 3.022 4.449 2.395 1.19 2.33 1.18 2.895.414.433-.585.435-.62.134-1.819-.169-.672-.306-1.403-.306-1.625 0-.975-3.96-1.953-5.745-1.42zm18.656.105c-1.32.355-2.562 1.026-4.025 2.174l-1.138.893.686.352c.57.293.886.324 1.876.184a58.434 58.434 0 013.203-.309l2.014-.14.83-.827c1.973-1.964.045-3.266-3.446-2.327zm-52.755 2.053c-5.541.718-10.23 3.243-10.957 5.9-1.149 4.202 1.362 14.36 4.51 18.243 5.132 6.332 16.746 6.332 21.878 0 3.148-3.882 5.659-14.04 4.51-18.242-1.151-4.21-10.846-7.079-19.941-5.9zm9.765 2.251c5.965 1.036 9.622 3.877 7.764 6.031l-.44.51-1.487-.688c-6.001-2.776-16.219-2.776-22.22 0l-1.488.688-.44-.51c-3.313-3.844 8.499-7.734 18.31-6.03zm34.043.662c-4.281.888-2.939 4.307 1.593 4.058 2.342-.128 3.622-.891 3.622-2.157 0-1.31-2.925-2.376-5.215-1.901zm-12.375.656c-5.329 1.437-.559 3.568 6.457 2.884 1.296-.126 1.764-.61.977-1.012-4.341-2.212-5.289-2.45-7.434-1.872zm20.374-.134c-1.545.157-1.132.659 1.66 2.014 2.745 1.334 3.704 1.445 5.914.682 4.407-1.521-.823-3.383-7.574-2.696zm-1.505 3.568l-.518.541.352 1.709c.406 1.975.704 2.234 3.156 2.749 3.173.665 4.787-.625 3.004-2.401-.707-.705-2.031-1.496-4.372-2.613l-1.104-.526-.518.541zm-42.899 1.197c2.427.227 5.316.886 6.795 1.55l.939.422-.977.393c-5.355 2.159-13.981 2.159-19.336 0l-.976-.393.938-.422c3.043-1.366 8.035-1.98 12.617-1.55zM51 74.265c-.806.09-2.066.216-2.8.283-2.88.258-4.019 2.944-1.449 3.414 1.878.343 4.29-.45 6.62-2.177 1.563-1.16 1.532-1.092.663-1.455-.733-.306-.843-.309-3.034-.065zm8.008.563a4.71 4.71 0 01-1.057.176c-.401.014-.889.32-1.66 1.045-.6.564-1.377 1.245-1.725 1.513l-.633.489.366.801c1.065 2.327 4.884 2.279 5.925-.074.348-.788.365-1.018.17-2.336-.292-1.958-.297-1.963-1.386-1.614zm-24.6 8.284c-.01 5.8.097 6.336 1.447 7.22l.497.325V80.56l-.508-.473c-.279-.26-.714-.87-.967-1.353l-.46-.879-.01 5.257zm45.231-4.435c-.2.446-.618 1.052-.928 1.349l-.563.54v10.09l.497-.325c.273-.179.714-.696.98-1.15l.483-.825-.052-5.245-.052-5.245-.365.81zM38.5 89.032v7.107l.906.4c.498.22 1.42.448 2.05.505l1.146.104V84.543l-.66-.729c-.362-.401-.735-.851-.83-1-.093-.15-.72-.41-1.391-.58l-1.221-.31v7.108zm36.23-6.81c-.644.172-1.248.436-1.343.587-.094.152-.467.604-.83 1.005l-.659.73v12.604l1.146-.104c.63-.057 1.553-.284 2.05-.504l.906-.401v-7.14c0-3.927-.022-7.128-.049-7.114-.027.015-.576.166-1.22.338zM44.75 93.077v7.115l1.081.404c.842.315 1.537.405 3.126.405H51v-14.57l-1.815.08c-1.262.055-2.19-.017-3.044-.236-.675-.173-1.264-.314-1.309-.314-.045 0-.082 3.201-.082 7.115zm23.535-6.789c-.638.182-1.636.256-2.88.213l-1.905-.065V101h2.044c1.588 0 2.284-.09 3.124-.405l1.082-.404v-7.115c0-5.575-.053-7.11-.244-7.091-.134.013-.684.15-1.22.302zM53.15 94.143V101h8.203v-6.836c0-3.76-.028-6.836-.063-6.836-.034 0-.54.148-1.123.329-1.733.536-4.985.41-6.737-.263-.24-.092-.28.867-.28 6.75z" fill="#fff"/></svg>