<?xml version="1.0" standalone="no"?>
<!DOCTYPE svg PUBLIC "-//W3C//DTD SVG 1.1//EN" "http://www.w3.org/Graphics/SVG/1.1/DTD/svg11.dtd" >
<svg>
<metadata>
Created by FontForge 20090622 at Sat Dec  7 03:08:17 2019
 By deploy user
Copyright (c) 2014 by Emil Bertell. All rights reserved.
</metadata>
<defs>
<font id="SVN-Monday" horiz-adv-x="394" >
  <font-face 
    font-family="SVN-Monday"
    font-weight="400"
    font-stretch="normal"
    units-per-em="1000"
    panose-1="0 0 0 0 0 0 0 0 0 0"
    ascent="723"
    descent="-277"
    x-height="487"
    cap-height="733"
    bbox="-828 -567.667 1388.01 1136.21"
    underline-thickness="50"
    underline-position="-50"
    unicode-range="U+0020-U+FB04"
  />
<missing-glyph horiz-adv-x="200" 
 />
    <glyph glyph-name="oi" unicode="oi" horiz-adv-x="590" 
d="M343 257q-8 -105 -65 -180q-59 -77 -144 -77q-62 0 -102 58q-41 59 -29 180q13 135 86 202q72 65 147 47q26 -6 11 -18q-20 -14 -45 -11q-29 4 -61 -50q-31 -54 -42 -143q-10 -99 11 -157t72 -58q45 0 78 60q32 59 38 136q4 74 -9 108q-71 -21 -96 -5q-28 19 -11 50
q20 32 64 35l24 -2q33 -6 49 -31q89 34 135 61q10 7 28 4q23 -7 36 -28q16 -24 10 -73q-2 -12 -13 -69l-9 -43q-37 -190 4 -203q26 -7 58 28t48 86q2 5 8 -2q12 -10 0 -36q-28 -63 -76 -101q-49 -39 -94 -25q-35 11 -44 61q-10 46 -2 169q5 55 21 160l5 30q-57 -32 -100 -50
q14 -42 9 -113zM574 590q0 -27 -19 -46t-47 -19q-27 0 -46.5 19t-19.5 46q0 28 19.5 47.5t46.5 19.5q28 0 47 -19.5t19 -47.5z" />
    <glyph glyph-name="ts" unicode="ts" horiz-adv-x="534" 
d="M9 431q-2 32 13 46.5t55 14.5q14 54 30 98q15 42 59 28q24 -7 28 -19v-3q-10 -29 -29 -105q9 0 26.5 1t29.5 1.5t16 0.5q0 -3 1.5 -15.5t-6.5 -33t-24 -31.5q-15 -10 -61 -5q-15 -89 -19 -131q-22 -217 13 -228q21 -6 52 19.5t57 71.5q28 54 48 124q19 67 21 118l-2 2
q-40 14 -50.5 39t15.5 47q93 81 111 38q6 -14 1 -48q-2 -21 -8 -39q66 -34 97 -118q51 39 126 76q19 10 21 -6q1 -16 -14 -24q-55 -27 -125 -75q8 -32 5 -71q-7 -85 -69 -145q-61 -61 -118 -61q-39 0 -43 39t32 86q42 55 100 110q-6 71 -36 115q-32 -87 -84 -190l-2 -6
q-35 -73 -89 -118q-55 -44 -101 -34q-74 15 -53 240q7 94 27 184q-25 3 -37 0q-13 -3 -14 7zM395 139q3 21 3 59q-38 -35 -67 -74q-14 -18 -18 -38.5t1.5 -34t18.5 -13.5q21 0 38.5 27.5t23.5 73.5z" />
    <glyph glyph-name="pi" unicode="pi" horiz-adv-x="601" 
d="M464 0q-34 10 -44 61t-2 169q6 73 20 168l4 21q-43 -33 -81 -68q-4 -39 -19 -97q-31 -127 -93 -196q-61 -70 -116 -76q-24 -2 -31.5 19t-1 50t21.5 53q59 90 129 173q24 147 -8 156q-14 7 -38.5 -31t-58.5 -122.5t-68 -199.5q-7 -36 -12 -73q-7 -35 -23 -123
q-11 -69 -8 -86q2 -9 -7 -15.5t-26 -5.5q-65 4 -31 206l36 219l22 149q9 78 11 93q1 12 2.5 24t2 17t0.5 6q0 2 7 3t18.5 -1t23.5 -7t23.5 -17.5t17.5 -30.5q11 -29 -10 -136q46 107 93.5 155.5t91.5 34.5q52 -16 53 -101q44 42 99 79h2q10 7 27 4q24 -7 37 -28
q15 -23 8 -86q0 -2 -8 -49q-4 -22 -12 -58q-37 -189 4 -203q27 -7 59 28q30 33 47 86q2 5 8 -2q12 -10 0 -36q-28 -64 -76 -101q-49 -39 -94 -25zM585 590q0 -27 -19.5 -46t-47.5 -19q-27 0 -46 19t-19 46q0 28 19 47.5t46 19.5q28 0 47.5 -19.5t19.5 -47.5zM243 224v2
q-54 -66 -87 -119q-12 -18 -16 -39t0 -34t14 -12q25 3 49.5 57.5t39.5 144.5z" />
    <glyph glyph-name="psi" unicode="psi" horiz-adv-x="916" 
d="M779 0q-34 10 -44 61t-1 169q6 73 20 168q0 9 3 18q-44 -32 -103 -102q26 -56 20 -110q-7 -85 -69 -145q-61 -61 -118 -61q-37 0 -42 39q-5 40 31 86l94 127q-16 80 -60 121q-41 -63 -176 -145q-35 -116 -92 -176q-59 -62 -109 -68q-24 -2 -33 18.5t-2 48.5t24 50
q36 47 116 95l5 30q34 199 0 209q-14 7 -38.5 -31t-58.5 -122.5t-68 -199.5q-7 -36 -12 -73q-7 -35 -23 -123q-11 -69 -8 -86q2 -9 -7 -15.5t-26 -5.5q-65 4 -31 206l36 219l22 149q9 78 11 93q1 12 2.5 24t2 17t0.5 6q0 2 7 3t18.5 -1t23.5 -7t23.5 -17.5t17.5 -30.5
q11 -29 -10 -136q46 107 93.5 155.5t91.5 34.5q85 -28 34 -230q98 66 134 130l-1 1q-40 14 -50.5 39t15.5 47q68 59 100 51q25 -6 12 -61l-9 -39q56 -27 95 -91q80 93 138 127q13 10 33 7q19 -5 32 -27q17 -28 8 -94q-3 -14 -15 -74q-1 -6 -3 -14t-2 -11q-17 -89 -16 -143
t20 -60q27 -7 59 28t48 86q0 5 7 -1q13 -10 1 -37q-29 -65 -77 -101q-49 -39 -94 -25zM900 590q0 -27 -19.5 -46t-46.5 -19t-46.5 19t-19.5 46q0 28 19.5 47.5t46.5 19.5t46.5 -19.5t19.5 -47.5zM574 139q4 34 1 75l-65 -90q-14 -18 -18 -38.5t1.5 -34t17.5 -13.5
q22 0 39.5 27t23.5 74zM154 22q19 2 40 39.5t36 101.5q-55 -35 -74 -63q-13 -17 -17 -36t0.5 -31t14.5 -11z" />
    <glyph glyph-name="El" unicode="El" horiz-adv-x="626" 
d="M430 240q10 142 39 261q-99 -42 -169 -40h-5q-36 -2 -56 53q-10 31 -4 32q79 -6 117 39q29 35 7 65q-15 20 -51 28q-60 11 -112 -41q-53 -52 -58 -129q-8 -98 26 -151q42 18 83 16q45 -1 51 -28q6 -25 -30 -42q-19 -10 -42 -11q-41 -3 -83 14q-41 -43 -46 -112
q-5 -77 32 -124q36 -49 105 -43q45 5 74 40q31 35 32 75q2 41 -20 73q-2 2 5 5q21 10 39 -18q14 -21 16 -50.5t-10 -60t-34 -57t-59.5 -44.5t-82.5 -21q-89 -5 -143 51q-56 56 -50 138q8 106 105 170q-75 57 -64 152q7 82 55.5 141.5t115 81t129.5 3.5q44 -9 63 -48.5
t10 -84.5t-39 -75q58 14 99 30q37 144 87 222q50 79 106 56q25 -10 33.5 -38.5t-2.5 -68t-42 -77.5q-33 -39 -91 -74q-28 -118 -40 -270q-26 -219 12 -228q29 -9 64 27q33 34 50 87q3 5 9 -2q10 -10 -1 -36q-29 -64 -78 -101q-51 -38 -100 -26q-70 16 -52 241zM652 754
q-11 4 -24.5 -17t-28 -62.5t-27.5 -97.5q42 26 60 53q30 40 36 80q5 38 -16 44zM239 350q-31 2 -58 -14q20 -20 49 -17q36 3 37 16q0 12 -28 15z" />
    <glyph glyph-name="es" unicode="es" horiz-adv-x="632" 
d="M158 -3q-30 0 -59 13.5t-53.5 40.5t-37 75.5t-6.5 111.5q14 135 86 200q73 65 148 49q77 -16 82 -91q4 -68 -55 -140q-68 -79 -156 -86h-3q-2 -1 -3 -1q10 -56 39.5 -89t70.5 -33q47 0 116 113q69 112 94 224q-7 2 -17 9q-40 14 -50.5 39t15.5 47q71 61 102 51
q25 -8 11 -61l-11 -39q34 -16 63.5 -50.5t44.5 -76.5q63 46 127 77q21 10 22 -6q0 -16 -14 -24q-65 -31 -126 -76q9 -34 6 -70q-7 -85 -69 -145q-61 -61 -119 -61q-38 0 -42 39q-5 40 31 86q45 59 99 108q-9 77 -44 124q-49 -154 -126 -256q-76 -102 -166 -102zM98 265
q-4 -40 -1 -67q61 20 101 110q34 76 23 126q-5 23 -19 24q-30 5 -62 -50q-31 -54 -42 -143zM493 139q3 37 2 59q-40 -40 -66 -74q-14 -18 -18 -38.5t1.5 -34t17.5 -13.5q22 0 39.5 27t23.5 74z" />
    <glyph glyph-name="ll" unicode="ll" horiz-adv-x="405" 
d="M208 240q9 112 33 229q-33 -10 -58 -7q-28 3 -27 21q0 9 6 9q39 -3 86 10q35 152 89 241q52 85 110 63q38 -14 35 -74q-3 -61 -46 -125q-33 -49 -98 -92q-23 -110 -34 -237q-26 -220 12 -231q30 -9 64 28q33 36 50 89q3 5 9 -2q10 -10 -1 -36q-28 -63 -78 -102t-99 -27
q-41 8 -53 85q-34 -46 -74 -69t-76 -14q-70 16 -52 241q12 149 44 279q-31 -3 -54 -1q-28 3 -27 21q0 8 5 8q40 -3 84 3q34 130 84 199q48 69 101 48q25 -10 33.5 -35.5t-2.5 -63t-42 -76.5q-33 -42 -90 -71q-30 -139 -40 -273q-26 -219 12 -228q18 -6 43.5 12.5t47.5 52.5
q-5 42 3 125zM431 754q-18 6 -42 -51.5t-45 -154.5q41 27 66 65q27 44 35 90q6 43 -14 51zM227 745q-11 4 -24 -15.5t-26.5 -57.5t-26.5 -91q37 21 57 49q30 41 35.5 75.5t-15.5 39.5z" />
    <glyph glyph-name="ff" unicode="ff" horiz-adv-x="478" 
d="M288 -329q-72 17 -59 249q8 132 41 302l10 49q-39 -36 -87 -64t-82 -27l-8 -48q40 -77 58 -131q16 -49 16 -115q0 -84 -32 -145q-33 -60 -99 -46q-50 12 -59 122q-9 113 34 365q-20 29 -20 46q0 13 10.5 24.5t26.5 15.5q110 534 225 531q39 -2 49 -79t-20 -166
q-19 -52 -51 -125q-35 -77 -58 -112q-14 -24 -22 -13q-10 12 8 41q18 30 47 99q27 65 43 111q21 65 21 128q-2 62 -22 63q-30 0 -53 -90q-23 -91 -72 -355q-6 -28 -10 -55q-4 -20 -4 -22q26 -10 80 25q53 35 93 78q34 155 69 263.5t72.5 167t72.5 57.5q32 -2 39 -58
q8 -60 -17 -131q-24 -68 -62 -135q-38 -69 -80 -124q-7 -52 -21 -121q-1 -3 -6 -32q27 -17 81 16q53 33 83 74q5 4 12 -3q12 -10 -5 -33q-21 -32 -73 -67q-52 -34 -91 -35l32 -101q8 -30 18 -82q10 -50 10 -97q0 -125 -61 -190q-34 -35 -77 -25zM386 -124q0 100 -43 245
q-21 -127 -29.5 -222t-4.5 -143.5t19 -48.5q24 0 41 57q17 59 17 112zM137 -124q0 90 -45 188q-17 -107 -23 -183t-1.5 -113t18.5 -37q24 0 38 45q13 43 13 100zM500 762q-26 0 -46 -71q-20 -66 -55 -255q70 107 97 190q11 31 15 63.5t1 52.5t-12 20z" />
    <glyph glyph-name="fi" unicode="fi" horiz-adv-x="458" 
d="M322 0q-35 11 -44 61q-10 46 -2 169q11 149 26 200q-73 -44 -166 -111l-13 -73q-1 -8 -4.5 -25.5l-4.5 -22.5q6 -18 18 -57t16 -53q12 -43 20 -91q9 -52 9 -103q0 -123 -55 -178q-31 -31 -76 -21q-70 17 -58 231q8 126 41 296q3 12 13 69q-17 50 -16.5 69t20.5 29
q8 4 20 8q100 405 197 402q31 -1 39 -54q7 -54 -18 -127q-42 -118 -134 -225l-5 -28q92 61 169 104q19 9 39.5 2t32.5 -25q15 -23 8 -86q0 -2 -8 -49q-4 -22 -12 -58q-37 -190 4 -203q26 -7 58 28t48 86q2 4 8 -2q12 -10 0 -36q-28 -63 -76 -101q-49 -39 -94 -25zM137 -116
q0 109 -36 236q-21 -126 -29.5 -214t-5 -131.5t19.5 -43.5q24 0 38 48q13 48 13 105zM450 590q0 -27 -19 -46t-47 -19q-27 0 -46.5 19t-19.5 46q0 28 19.5 47.5t46.5 19.5q28 0 47 -19.5t19 -47.5zM258 746q-26 0 -46 -66q-20 -67 -51 -229q66 88 91 167q11 33 16 62.5
t2 47.5t-12 18z" />
    <glyph glyph-name="fl" unicode="fl" horiz-adv-x="458" 
d="M261 240l2 29q-79 -77 -143 -88q32 -100 44 -156q13 -61 13 -131q0 -123 -55 -178q-31 -31 -76 -21q-70 17 -58 231q8 126 41 296q3 12 13 69q-17 50 -16.5 69t20.5 29q8 4 20 8q100 405 197 402q31 -1 39 -54q7 -54 -18 -127q-45 -123 -134 -224l-27 -148q-4 -20 -4 -23
q23 -6 67 24t83 71q27 203 91 346q63 144 122 142q40 -1 46.5 -54t-25.5 -142q-53 -141 -137 -237q-6 -47 -9 -95q-25 -219 12 -228q30 -9 64 27q33 33 50 87q3 5 9 -2q10 -10 -1 -36q-29 -64 -78 -101q-50 -38 -99 -26q-72 16 -53 241zM137 -116q0 109 -36 236
q-21 -126 -29.5 -214t-5 -131.5t19.5 -43.5q24 0 38 48q13 48 13 105zM481 748q-13 1 -26.5 -21t-28.5 -66q-30 -89 -51 -225q71 92 99 174q9 27 15 50.5t8.5 44t-1.5 32t-15 11.5zM258 746q-26 0 -46 -66q-20 -67 -51 -229q66 88 91 167q11 33 16 62.5t2 47.5t-12 18z" />
    <glyph glyph-name="ffi" unicode="ffi" horiz-adv-x="698" 
d="M563 0q-34 10 -44 61t-1 169q6 73 20 168q2 22 5 32l-120 -80q-35 -68 -60 -105l-9 -48q50 -151 62 -218q8 -51 8 -93q0 -126 -60 -190q-34 -35 -78 -25q-71 18 -58 250q8 133 41 301l9 48q-77 -42 -163 -59l-13 -79q40 -80 57 -131q16 -49 16 -115q0 -84 -32 -145
q-33 -60 -98 -46q-109 25 -26 487q-20 29 -20 46q0 13 10.5 24.5t26.5 15.5q34 169 72 288.5t77 181.5t77 61q38 -2 48 -79t-20 -166q-18 -51 -51 -126t-57 -111q-14 -24 -22 -13q-10 12 7 41q14 21 46 97q29 68 45 113q21 66 20 128q-2 62 -22 63q-30 0 -53 -89
q-23 -90 -69 -339q-3 -14 -6.5 -34.5t-4.5 -28.5q83 17 164 58q111 505 217 502q31 -1 37 -57q6 -57 -15 -131q-31 -110 -78 -221q46 32 108 63q15 7 24 6l4 -1h6q24 -7 37 -28q17 -28 8 -94q-3 -14 -15 -74q-1 -6 -3 -14t-2 -11q-17 -89 -16 -143t20 -60q27 -7 59 28t48 86
q0 5 7 -1q13 -10 1 -37q-29 -65 -77 -101q-49 -39 -94 -25zM384 -124q0 103 -42 245q-21 -129 -30 -222.5t-5.5 -142.5t19.5 -49q24 0 41 57q17 59 17 112zM385 363l20 14q59 125 86 239q35 134 7 146q-28 0 -49 -83q-20 -75 -64 -316zM135 -124q0 90 -45 188
q-24 -165 -25.5 -249t20.5 -84q23 0 37 45q13 45 13 100zM692 590q0 -27 -19.5 -46t-46.5 -19t-46.5 19t-19.5 46q0 28 19.5 47.5t46.5 19.5t46.5 -19.5t19.5 -47.5z" />
    <glyph glyph-name="ffl" unicode="ffl" horiz-adv-x="697" 
d="M508 240l2 29q-86 -83 -148 -89l34 -106q10 -37 20 -87q10 -51 10 -101q0 -125 -61 -190q-34 -35 -77 -25q-72 17 -59 249q8 132 41 302l10 48q-77 -42 -163 -59l-14 -79q40 -77 58 -131q16 -49 16 -115q0 -84 -32 -145q-33 -60 -99 -46q-50 12 -59 122q-9 113 34 365
q-20 29 -20 46q0 13 10.5 24.5t26.5 15.5q110 534 225 531q39 -2 49 -79t-20 -166q-19 -52 -51 -125q-35 -77 -58 -112q-14 -24 -22 -13q-10 12 8 41q18 30 47 99q27 65 43 111q21 65 21 128q-2 62 -22 63q-31 0 -58 -109q-20 -75 -75 -382q81 16 164 58q111 505 217 502
q30 -1 36 -57t-14 -131q-29 -108 -75 -215q-46 -106 -89 -168l-3 -18q20 -13 67 17q44 29 88 75q26 201 90 345q63 145 122 143q40 -1 46.5 -54t-24.5 -142q-48 -132 -136 -237q-9 -75 -10 -95q-26 -219 12 -228q30 -9 64 27q33 34 50 87q3 5 9 -2q10 -10 -1 -36
q-29 -64 -78 -101q-50 -38 -99 -26q-71 17 -53 241zM386 -124q0 100 -43 245q-21 -127 -29.5 -222t-4.5 -143.5t19 -48.5q24 0 41 57q17 59 17 112zM500 762q-30 0 -52 -91q-26 -106 -70 -351q73 133 115 296q14 57 17 98q3 44 -10 48zM137 -124q0 90 -45 188
q-17 -107 -23 -183t-1.5 -113t18.5 -37q24 0 38 45q13 43 13 100zM726 756q-24 2 -53 -90q-30 -92 -51 -231q58 81 99 183q32 81 22 121q-5 17 -17 17z" />
    <glyph glyph-name="ss" unicode="ss" horiz-adv-x="563" 
d="M252 296q67 59 83 102q-2 0 -5 2l-3 1q-40 14 -50.5 39t15.5 47q70 61 102 51q25 -8 11 -61q-5 -19 -12 -39q35 -16 67 -53t50 -83q57 43 128 78q20 10 21 -6q0 -16 -14 -24q-58 -27 -127 -76q10 -36 7 -70q-7 -85 -69 -145q-61 -61 -118 -61q-39 0 -43 39t31 86
q46 60 97 107q-11 92 -57 144q-26 -45 -104 -109q6 -26 4 -61q-7 -85 -69 -145q-61 -61 -119 -61q-38 0 -42 39q-5 40 31 86q27 35 99 99q-10 86 -51 135q-42 -137 -81 -229q-14 -32 -32 -26l-4 4q28 48 48 134t24 151l-2 2q-40 14 -50.5 39t15.5 47q71 61 102 51
q25 -8 11 -61l-10 -39q36 -17 67.5 -53t48.5 -81zM424 139q3 36 2 58q-42 -40 -66 -73q-14 -18 -18 -38.5t1.5 -34t18.5 -13.5q21 0 38.5 27.5t23.5 73.5zM165 139q3 45 2 51q-47 -40 -66 -66q-14 -18 -18 -38.5t1.5 -34t17.5 -13.5q22 0 39.5 27t23.5 74z" />
    <glyph glyph-name="tt" unicode="tt" horiz-adv-x="454" 
d="M33 240q7 98 29 190q-27 -3 -39 -6q-13 -3 -14 7q-2 32 13 46.5t55 14.5q14 54 30 98q15 42 59 28q24 -7 28 -19v-3q-10 -29 -29 -105q104 0 137 1q8 38 30 98q15 41 58 28q24 -7 28 -19v-3q-17 -53 -28 -103q25 1 72 1q0 -3 1.5 -15.5t-6.5 -33t-24 -31.5
q-18 -11 -60 -4q-15 -80 -20 -132q-22 -217 13 -228q30 -7 64 27t50 87q3 5 9 -2q10 -10 -1 -36q-28 -64 -79 -100q-52 -36 -99 -26q-48 9 -56 107q-30 -57 -77 -87t-91 -20q-74 15 -53 240zM258 240q4 78 27 182q-70 7 -133 9q-18 -95 -24 -153q-22 -217 13 -228
q28 -7 61 25t51 83q2 50 5 82z" />
    <glyph glyph-name="Fi" unicode="Fi" horiz-adv-x="729" 
d="M178 197q-2 31 17.5 44.5t67.5 13.5h10l5 77q3 81 12 121q7 38 34 71q16 19 37 24t34 -0.5t11 -12.5q-14 -47 -36 -201q-5 -34 -16 -79q63 0 108 5q1 -2 1.5 -11t-6.5 -26t-19 -30q-25 -27 -107 -18q-35 -94 -88.5 -139t-118.5 -35q-40 6 -60 38q-21 31 -6 66
q18 42 78 53q36 4 40 -6q0 -3 -1 -4q-16 -25 -20.5 -52t4 -45t27.5 -17q56 5 78 152q-57 8 -71 4q-14 -3 -15 7zM721 614q0 -18 -9 -32q-25 -53 -123 -55q-96 -1 -181 41q-86 37 -192 50q-62 8 -95 -12q-49 -25 -62 -69.5t10 -70.5q25 -31 85 -11q5 2 7 -6q5 -26 -17 -62
q-19 -33 -51 -41q-25 -6 -46.5 5t-31.5 32q-30 53 -2 131q27 79 97 116q164 87 373 2q22 -9 69 -35q41 -25 58 -31q-21 20 -21 48t19 47.5t46 19.5q28 0 47.5 -19.5t19.5 -47.5zM592 0q-34 10 -44 61t-2 169q6 73 20 168q8 50 19.5 65.5t33.5 10.5q24 -7 37 -28
q15 -23 8 -86q0 -2 -8 -49q-4 -22 -12 -58q-37 -189 4 -203q27 -7 59 28q30 33 47 86q2 5 8 -2q12 -10 0 -36q-28 -64 -76 -101q-49 -39 -94 -25z" />
    <glyph glyph-name="Fl" unicode="Fl" horiz-adv-x="735" 
d="M778 798q38 -17 42 -64q4 -48 -34 -102q-32 -44 -107 -70q-29 -130 -43 -284q-26 -219 12 -228q30 -9 64 27q33 34 50 87q3 5 9 -2q10 -10 -1 -36q-29 -64 -78 -101q-50 -38 -99 -26q-71 17 -53 241q13 173 51 307q-96 -5 -180 25q-213 72 -290 34q-49 -25 -62 -69.5
t10 -70.5q25 -31 85 -11q5 2 7 -6q5 -26 -17 -62q-19 -33 -51 -41q-25 -6 -46.5 5t-31.5 32q-30 53 -2 131q27 79 97 116q145 78 370 13q96 -29 130 -33q36 106 79 156t89 32zM178 197q-2 31 17.5 44.5t67.5 13.5h10l5 77q4 87 13 129t34 71q16 19 37 24t34 -0.5t11 -12.5
q-16 -54 -37 -209q-5 -34 -16 -79q63 0 108 5q1 -2 1.5 -11t-6.5 -26t-19 -30q-25 -27 -107 -18q-35 -94 -88.5 -139t-118.5 -35q-40 6 -60 38q-21 31 -6 66q18 42 78 53q36 4 40 -6q0 -3 -1 -4q-16 -25 -20.5 -52t4 -45t27.5 -17q56 5 78 152q-57 8 -71 4q-14 -3 -15 7z
M762 746q-15 6 -34.5 -32t-37.5 -108q27 3 44 20q24 22 35.5 49t8.5 46.5t-16 24.5z" />
    <glyph glyph-name="Ti" unicode="Ti" horiz-adv-x="697" 
d="M696 630q1 -11 -4 -27q-17 -58 -107 -68q-91 -11 -180 21q-13 -41 -19 -120q-5 -68 -17.5 -127.5t-29 -103.5t-37 -80.5t-42.5 -59t-45.5 -40t-45.5 -23t-42.5 -8.5t-37.5 5q-21 6 -34 27.5t-9 47.5q6 45 60 67q35 15 43 6q1 -1 1 -3q-9 -41 1 -73q10 -34 31 -27
q86 26 112 391q7 108 33 149q-146 50 -206 18q-49 -24 -62 -69t10 -70q23 -31 85 -11q5 2 7 -6q5 -26 -17 -62q-19 -33 -51 -41q-25 -6 -46.5 5t-31.5 32q-30 53 -2 131q27 79 97 116q73 38 149 41q78 2 199 -37q28 -9 72 -30q44 -23 57 -27q-21 19 -23 47t16.5 48.5
t45.5 21.5q27 2 47.5 -16t22.5 -45zM560 -3q-34 10 -44 61t-2 169q6 73 20 168q8 50 19.5 65.5t33.5 9.5q25 -6 37 -28q15 -22 8 -86q-1 -8 -8 -48q-5 -30 -12 -58q-38 -192 4 -203q27 -7 59 28q30 33 47 86q2 5 8 -2q12 -10 0 -37q-28 -64 -76 -101q-50 -38 -94 -24z" />
    <glyph glyph-name="Tl" unicode="Tl" horiz-adv-x="702" 
d="M183 44q87 26 113 391q4 67 12 99q8 33 26 57q-152 40 -213 11q-49 -25 -62 -69.5t10 -70.5q25 -31 85 -11q5 2 7 -6q5 -26 -17 -62q-19 -33 -51 -41q-25 -6 -46.5 5t-31.5 32q-30 53 -2 131q27 79 97 116q164 88 370 13q57 -22 94 -29q35 105 78 155t89 32
q43 -16 46 -68t-29 -90q-41 -55 -116 -79q-30 -131 -43 -282q-23 -221 12 -229q30 -9 65 27q33 34 50 87q1 4 8 -1q10 -12 0 -37q-29 -64 -78 -101q-51 -38 -100 -26q-71 17 -53 241q14 165 51 307q-74 -3 -143 22h-1q-14 -44 -22 -132q-5 -68 -17.5 -127.5t-29 -103.5
t-37 -80.5t-42.5 -59t-45.5 -40t-45.5 -23t-43 -8.5t-38 5q-21 7 -33.5 28t-8.5 47q6 45 60 67q34 15 42 6q1 -1 1 -3q-9 -41 1 -73q10 -34 31 -27zM724 753q-10 4 -22.5 -13.5t-25 -52t-24.5 -82.5q34 5 58 29q22 20 30 47t2.5 47t-18.5 25z" />
    <glyph glyph-name="Th" unicode="Th" horiz-adv-x="893" 
d="M505 0q-65 4 -31 206q30 182 52 350q-51 -9 -120 1q-13 -34 -19 -121q-5 -68 -17.5 -127.5t-29 -103.5t-37 -80.5t-42.5 -59t-45.5 -40t-45.5 -23t-42.5 -8.5t-37.5 5q-21 6 -34 27.5t-9 47.5q6 45 60 67q35 15 42 6q1 -1 1 -3q-9 -41 1 -73q10 -34 31 -27q87 26 113 391
q7 103 27 139q-68 20 -104 28q-4 1 -41 8q-44 5 -71 -13q-33 -23 -44 -69q-10 -45 8 -63q23 -32 84 -11q2 1 4 -1t3 -6q5 -26 -16 -61q-19 -33 -51 -41q-26 -6 -47.5 5t-31.5 32q-28 55 -4 126q22 69 83 112q63 44 139.5 49t173.5 -27q62 -21 86 -27q13 -4 32 -6
q33 -5 47 15q26 45 -12 73q-17 13 -40.5 5t-41.5 -32q-2 -1 -11.5 11.5t-13.5 31t11 43.5q20 29 62 31.5t80 -25.5q37 -28 36 -101q-3 -48 -41 -248q-19 -99 -33 -183q-1 -5 -3 -17t-3 -16q54 158 115.5 235t116.5 60q39 -12 42.5 -66.5t-27.5 -171.5q-23 -90 -21 -144
t24 -60q27 -7 59 28q30 33 47 86q2 5 8 -2q12 -10 0 -36q-28 -64 -76 -101q-49 -39 -94 -25q-72 22 -45 232q8 63 24 120l9 40q6 35 -12 41q-37 11 -115 -178q-43 -106 -79 -233v-1q1 -10 -8 -16t-25 -5z" />
    <glyph glyph-name="si" unicode="si" horiz-adv-x="510" 
d="M373 0q-35 11 -44 61q-10 46 -2 169q10 142 23 186q-41 -30 -103 -102q26 -54 21 -110q-7 -85 -69 -145q-61 -61 -118 -61q-39 0 -43 39t32 86l93 127q-10 60 -45 107q-42 -137 -81 -229q-13 -31 -32 -26l-4 4q29 46 48 132t24 153l-3 2q-40 14 -50.5 39t15.5 47
q71 61 102 51q25 -8 11 -61l-10 -39q56 -26 96 -91q71 84 137 128q41 20 66 -21q15 -23 8 -86q0 -2 -8 -49q-4 -22 -12 -58q-37 -189 4 -203q27 -7 59 28q30 33 47 86q1 4 8 -2q12 -10 0 -36q-28 -64 -76 -101q-49 -39 -94 -25zM494 590q0 -27 -19.5 -46t-47.5 -19
q-27 0 -46 19t-19 46q0 28 19 47.5t46 19.5q28 0 47.5 -19.5t19.5 -47.5zM167 139q4 27 2 75q-11 -14 -33 -45t-33 -45q-14 -18 -18 -38.5t1.5 -34t18.5 -13.5q21 0 38.5 27.5t23.5 73.5z" />
    <glyph glyph-name="il" unicode="il" horiz-adv-x="398" 
d="M178 586q0 -24 -18 -42q48 -5 87 -2q37 136 85 206q50 72 103 50q25 -8 35 -42t-2 -79t-44 -80q-36 -41 -94 -63q-23 -110 -36 -256q-26 -219 12 -228q29 -9 64 27q33 34 50 87q3 5 9 -2q10 -10 -1 -36q-29 -64 -78 -101q-51 -38 -100 -26q-38 9 -51 75
q-31 -43 -68.5 -63.5t-72.5 -10.5q-34 10 -43 61q-10 46 -2 169q6 73 20 168q7 49 18.5 65t34.5 11q23 -7 36 -28q17 -28 8 -94q-3 -14 -15 -74q-1 -6 -3 -14t-2 -11q-17 -89 -16 -143t20 -60q18 -5 40 11t41 46q-4 52 3 133q10 140 42 274q-78 -6 -146 12q-21 5 -35 25
t-13 43q2 27 22.5 45t47.5 17q28 -2 46 -22.5t16 -47.5zM419 746q-11 4 -25 -18.5t-28.5 -64.5t-28.5 -101q41 16 63 45q22 26 31 57.5t5.5 54t-17.5 27.5z" />
    <glyph glyph-name="rs" unicode="rs" horiz-adv-x="713" 
d="M43 0q-64 4 -30 206q22 124 29 245q3 53 4 55q3 1 18.5 3t39 -12.5t34.5 -42.5q8 -13 4 -45q-5 -37 -10 -57q-3 -8 -17 -68q-12 -51 -17 -78l-5 -29q49 155 99.5 230.5t109.5 90.5q62 14 81 -22q18 -37 -29 -102q-58 -72 -54 -126q1 -34 32 -34q41 0 89 56q47 54 67 121
l-3 2q-40 14 -50.5 39t15.5 47q66 59 99 51q27 -4 13 -61q-4 -19 -12 -39q34 -15 64 -49.5t46 -77.5q60 44 127 77q21 10 22 -6q0 -16 -15 -24q-67 -33 -125 -76q9 -42 5 -70q-7 -85 -69 -145q-61 -61 -118 -61q-37 0 -42 39q-5 40 31 86q45 60 98 108q-9 89 -52 135
q-42 -80 -104 -134q-62 -55 -115 -53q-57 2 -78 55q-23 54 0 104q6 15 15.5 30.5t16.5 24.5t12 17t3.5 12.5t-10.5 6.5q-18 3 -45 -39.5t-64 -135.5q-42 -108 -76 -232v-1q1 -9 -8 -15.5t-26 -5.5zM574 139q3 37 2 59q-36 -35 -66 -74q-14 -18 -18 -38.5t1.5 -34t17.5 -13.5
q22 0 39.5 27t23.5 74z" />
    <glyph glyph-name="rz" unicode="r&#x7a;" horiz-adv-x="837" 
d="M43 0q-64 4 -30 206q22 124 29 245q3 53 4 55q3 1 18.5 3t39 -12.5t34.5 -42.5q8 -13 4 -45q-5 -37 -10 -57q-3 -8 -17 -68q-12 -51 -17 -78l-5 -29q49 155 99.5 230.5t109.5 90.5q62 14 81 -22q18 -37 -29 -102q-60 -75 -48 -120q6 -24 34 -24q36 0 77 45t60 103l-6 2
q-39 18 -49.5 47.5t13.5 51.5q78 65 106 49q18 -10 8 -59l-7 -27q34 5 111 34q81 29 118 22q90 -16 -64 -272q-39 -66 -69 -107q40 -26 62 -39q35 -21 58 -22q30 -2 60 28t44 78q2 5 8 -2q12 -10 0 -36q-31 -71 -78 -104t-100 -22q-60 12 -104 57q-53 -59 -91 -59
q-16 -1 -28.5 7.5t-18.5 23.5t-5 32.5t13.5 36.5t35.5 33q54 36 122 0q24 37 57 98q53 95 45 138q-3 19 -20 14q-103 -28 -185 -13q-37 -80 -90.5 -127t-111.5 -46t-82 46q-24 43 -4 97q6 15 15.5 30.5t16.5 24.5t12 17t3.5 12.5t-10.5 6.5q-18 3 -45 -39.5t-64 -135.5
q-42 -108 -76 -232v-1q1 -9 -8 -15.5t-26 -5.5zM521 38q23 0 52 35q-25 28 -39 28q-30 0 -34 -28q-3 -24 13 -33q6 -2 8 -2z" />
    <glyph glyph-name="os" unicode="os" horiz-adv-x="683" 
d="M326 173q40 10 78 71q36 60 54 143l-11 6q-40 14 -50.5 39t15.5 47q70 61 102 51q25 -8 11 -61q-2 -9 -4.5 -19t-4 -14.5t-1.5 -5.5q35 -16 66.5 -50.5t48.5 -77.5q57 43 128 78q20 10 21 -6q0 -16 -14 -24q-58 -27 -127 -76q10 -32 7 -70q-7 -85 -69 -145
q-61 -61 -118 -61q-39 0 -43 39t31 86q46 60 97 107q-11 81 -52 130q-73 -195 -179 -222q-28 -64 -74.5 -101t-103.5 -37q-62 0 -102 58q-41 59 -29 180q13 135 86 202q72 65 147 47q26 -6 11 -18q-20 -14 -45 -11q-29 4 -61 -50q-31 -54 -42 -143q-10 -99 11 -157t72 -58
q53 0 89 85q-49 5 -84.5 43t-38.5 92q-4 72 40 130q44 57 95 42q78 -21 60 -185q-5 -46 -17 -84zM220 306q2 -110 65 -131q9 37 13 71q11 143 -25 164q-14 8 -26.5 -2.5t-19.5 -37.5t-7 -64zM544 139q3 36 2 58q-42 -40 -66 -73q-14 -18 -18 -38.5t1.5 -34t18.5 -13.5
q21 0 38.5 27.5t23.5 73.5z" />
    <glyph glyph-name="oz" unicode="o&#x7a;" horiz-adv-x="797" 
d="M509 469l-7 -27q34 5 111 34q81 29 118 22q90 -16 -64 -272q-39 -66 -69 -107q40 -26 62 -39q35 -21 58 -22q30 -2 60 28t44 78q2 5 8 -2q12 -10 0 -36q-31 -71 -78 -104t-100 -22q-60 12 -104 57q-53 -59 -91 -59q-16 -1 -28.5 7.5t-18.5 23.5t-5 32.5t13.5 36.5
t35.5 33q54 36 122 0q24 37 57 98q53 95 45 138q-3 19 -20 14q-94 -26 -179 -14q-24 -88 -69 -150t-98 -78q-28 -64 -74.5 -101.5t-103.5 -37.5q-62 0 -102 58q-41 59 -29 180q13 135 86 202q72 65 147 47q26 -6 11 -18q-20 -14 -45 -11q-29 4 -61 -50q-31 -54 -42 -143
q-10 -99 11 -157t72 -58q53 0 89 85q-49 5 -84.5 43t-38.5 92q-4 72 40 130q44 57 95 42q78 -21 60 -185q-5 -46 -17 -84q37 10 67 63.5t48 139.5l-10 4q-39 18 -49.5 47.5t13.5 51.5q78 65 106 49q18 -10 8 -59zM220 306q2 -110 65 -131q9 37 13 71q11 143 -25 164
q-14 8 -26.5 -2.5t-19.5 -37.5t-7 -64zM481 38q23 0 52 35q-25 28 -39 28q-30 0 -34 -28q-3 -24 13 -33q6 -2 8 -2z" />
    <glyph glyph-name="ssi" unicode="ssi" horiz-adv-x="769" 
d="M632 0q-34 10 -44 61t-2 169q6 73 20 168l2.5 10.5t1.5 7.5q-41 -30 -104 -102q26 -54 21 -110q-7 -85 -69 -145q-61 -61 -118 -61q-38 0 -42 39q-5 40 31 86l93 127q-14 75 -56 119q-27 -45 -102 -104q7 -31 4 -61q-7 -85 -69 -145q-61 -61 -118 -61q-39 0 -43 39t32 86
q27 36 98 99q-9 82 -50 135q-42 -137 -81 -229q-13 -31 -32 -26l-4 4q29 46 48 132t24 153l-3 2q-40 14 -50.5 39t15.5 47q71 61 102 51q25 -8 11 -61l-10 -39q36 -17 67.5 -53t48.5 -81q58 52 80 94l-4 3q-40 14 -51 39t15 47q70 61 102 51q25 -8 11 -61l-9 -39
q53 -24 95 -91q80 93 138 127q13 10 33 7q19 -5 32 -27q15 -23 8 -86q0 -2 -8 -49q-4 -22 -12 -58q-37 -189 4 -203q27 -7 59 28q30 33 47 86q2 5 8 -2q12 -10 0 -36q-28 -64 -76 -101q-49 -39 -94 -25zM753 590q0 -27 -19.5 -46t-47.5 -19q-27 0 -46 19t-19 46
q0 28 19 47.5t46 19.5q28 0 47.5 -19.5t19.5 -47.5zM426 139q5 37 2 75l-33 -45l-33 -45q-20 -28 -19 -57t21 -29q22 0 39 27t23 74zM167 139q3 25 3 51q-49 -39 -67 -66q-14 -18 -18 -38.5t1.5 -34t18.5 -13.5q21 0 38.5 27.5t23.5 73.5z" />
    <glyph glyph-name="oss" unicode="oss" horiz-adv-x="942" 
d="M326 173q40 10 78 71q36 60 54 143l-11 6q-40 14 -50.5 39t15.5 47q70 61 102 51q25 -8 11 -61l-11 -39q37 -16 69.5 -53.5t48.5 -82.5q57 52 82 103q-5 1 -8 4q-40 14 -51 39t15 47q70 61 102 51q25 -8 11 -61q-5 -19 -12 -39q35 -16 67 -53t50 -83q67 48 128 78
q21 10 22 -6q0 -16 -15 -24q-59 -28 -126 -76q9 -44 6 -70q-7 -85 -69 -145q-61 -61 -118 -61q-38 0 -42 39q-5 40 31 86q49 63 97 107q-12 90 -57 143q-29 -47 -104 -108q6 -21 4 -61q-7 -85 -69 -145q-61 -61 -118 -61q-39 0 -43 39t31 86q36 45 99 96q-10 91 -55 142
q-72 -193 -178 -223q-28 -64 -74.5 -101t-103.5 -37q-62 0 -102 58q-41 59 -29 180q13 135 86 202q72 65 147 47q26 -6 11 -18q-20 -14 -45 -11q-29 4 -61 -50q-31 -54 -42 -143q-10 -99 11 -157t72 -58q53 0 89 85q-49 5 -84.5 43t-38.5 92q-4 72 40 130q44 57 95 42
q78 -21 60 -185q-5 -46 -17 -84zM220 306q1 -108 65 -132q9 39 13 72q11 143 -25 164q-14 8 -26.5 -2.5t-20 -37.5t-6.5 -64zM802 139q4 30 3 58q-29 -27 -67 -73q-20 -28 -19 -57t21 -29q22 0 39 27t23 74zM544 139q3 31 2 51q-45 -38 -66 -66q-14 -18 -18 -38.5t1.5 -34
t18.5 -13.5q21 0 38.5 27.5t23.5 73.5z" />
    <glyph glyph-name="rss" unicode="rss" horiz-adv-x="972" 
d="M43 0q-64 4 -30 206q22 124 29 245q3 53 4 55q3 1 18.5 3t39 -12.5t34.5 -42.5q8 -13 4 -45q-5 -37 -10 -57q-3 -8 -17 -68q-12 -51 -17 -78l-5 -29q49 155 99.5 230.5t109.5 90.5q62 14 81 -22q18 -37 -29 -102q-58 -72 -54 -126q1 -34 32 -34q41 0 89 56q47 54 67 121
l-3 2q-40 14 -50.5 39t15.5 47q66 59 99 51q27 -4 13 -61q-4 -19 -12 -39q35 -16 66 -52.5t46 -81.5q55 51 82 102q-2 0 -8 3q-40 14 -50.5 39t15.5 47q71 61 102 51q25 -8 11 -61l-12 -39q34 -16 66.5 -53.5t49.5 -82.5q59 43 128 78q21 10 22 -6q0 -16 -14 -24
q-58 -27 -127 -76q10 -36 7 -70q-7 -85 -69 -145q-61 -61 -119 -61q-38 0 -42 39q-5 40 31 86q46 60 97 107q-11 91 -58 143q-28 -46 -104 -107q7 -33 4 -62q-7 -85 -69 -145q-61 -61 -118 -61q-37 0 -42 39q-5 40 31 86q32 42 99 99q-7 94 -53 144q-42 -80 -104 -134
q-62 -55 -115 -53q-57 2 -78 55q-23 54 0 104q6 15 15.5 30.5t16.5 24.5t12 17t3.5 12.5t-10.5 6.5q-18 3 -45 -39.5t-64 -135.5q-42 -108 -76 -232v-1q1 -9 -8 -15.5t-26 -5.5zM833 139q3 36 2 58q-42 -40 -66 -73q-14 -18 -18 -38.5t1.5 -34t17.5 -13.5q22 0 39.5 27
t23.5 74zM574 139q2 48 2 51q-44 -34 -66 -66q-14 -18 -18 -38.5t1.5 -34t17.5 -13.5q22 0 39.5 27t23.5 74z" />
    <glyph glyph-name="ossi" unicode="ossi" horiz-adv-x="1146" 
d="M1009 0q-35 11 -44 61q-10 46 -2 169q6 73 20 168q0 3 1.5 9.5t1.5 8.5q-41 -30 -103 -102q26 -54 21 -110q-7 -85 -69 -145q-61 -61 -118 -61q-39 0 -43 39t32 86l93 127q-14 76 -57 119q-29 -44 -101 -104q6 -21 4 -61q-7 -85 -69 -145q-61 -61 -118 -61q-39 0 -43 39
t31 86q36 45 99 96q-10 91 -55 142q-72 -193 -178 -223q-28 -64 -74.5 -101t-103.5 -37q-62 0 -102 58q-41 59 -29 180q13 135 86 202q72 65 147 47q26 -6 11 -18q-20 -14 -45 -11q-29 4 -61 -50q-31 -54 -42 -143q-10 -99 11 -157t72 -58q53 0 89 85q-49 5 -84.5 43
t-38.5 92q-4 72 40 130q44 57 95 42q78 -21 60 -185q-5 -46 -17 -84q40 10 78 71q36 60 54 143l-11 6q-40 14 -50.5 39t15.5 47q70 61 102 51q25 -8 11 -61l-11 -39q37 -16 69.5 -53.5t48.5 -82.5q55 50 79 97l-5 2q-40 14 -50.5 39t15.5 47q71 61 102 51q25 -8 11 -61
l-10 -39q56 -26 96 -91q80 93 138 127q13 10 33 7q15 -4 32 -27q15 -23 8 -86q0 -2 -8 -49q-4 -22 -12 -58q-37 -189 4 -203q27 -7 59 28q30 33 47 86q1 4 8 -2q12 -10 0 -36q-28 -64 -76 -101q-49 -39 -94 -25zM220 306q1 -108 65 -132q9 39 13 72q11 143 -25 164
q-14 8 -26.5 -2.5t-20 -37.5t-6.5 -64zM1130 590q0 -27 -19.5 -46t-47.5 -19q-27 0 -46 19t-19 46q0 28 19 47.5t46 19.5q28 0 47.5 -19.5t19.5 -47.5zM803 139q4 27 2 75q-11 -14 -33 -45t-33 -45q-14 -18 -18 -38.5t1.5 -34t18.5 -13.5q21 0 38.5 27.5t23.5 73.5zM544 139
q3 31 2 51q-45 -38 -66 -66q-14 -18 -18 -38.5t1.5 -34t18.5 -13.5q21 0 38.5 27.5t23.5 73.5z" />
    <glyph glyph-name="sil" unicode="sil" horiz-adv-x="710" 
d="M373 0q-35 11 -44 61q-10 46 -2 169q6 73 20 168q0 3 1.5 9.5t1.5 8.5q-41 -30 -103 -102q26 -54 21 -110q-7 -85 -69 -145q-61 -61 -118 -61q-39 0 -43 39t32 86q15 19 49 67l44 60q-14 67 -45 107q-42 -137 -81 -229q-13 -31 -32 -26l-4 4q29 46 48 132t24 153l-3 2
q-40 14 -50.5 39t15.5 47q71 61 102 51q25 -8 11 -61l-10 -39q56 -26 96 -90q72 87 141 128q36 19 62 -22q15 -23 8 -86q0 -2 -8 -49q-4 -22 -12 -58q-37 -189 4 -203q18 -5 40 11.5t41 47.5q-5 60 3 131q12 150 44 282q-62 -9 -137 3q-25 2 -41.5 21t-16.5 44q0 28 19 47.5
t46 19.5q28 0 47.5 -19.5t19.5 -47.5q0 -22 -16 -41q38 -3 87 2q36 130 84 199t101 48q25 -10 34 -38t-2 -67.5t-43 -78.5q-35 -43 -90 -68q-28 -116 -40 -268q-25 -219 12 -228q30 -9 64 27q33 33 50 87q3 5 9 -2q10 -10 -1 -36q-29 -64 -78 -101q-50 -38 -99 -26
q-42 9 -52 76q-31 -43 -69.5 -64t-71.5 -11zM167 139q4 27 2 75q-11 -14 -33 -45t-33 -45q-14 -18 -18 -38.5t1.5 -34t18.5 -13.5q21 0 38.5 27.5t23.5 73.5zM734 746q-32 11 -79 -170q35 17 59 47q31 41 36.5 79.5t-16.5 43.5z" />
    <glyph glyph-name="rsi" unicode="rsi" horiz-adv-x="916" 
d="M332 214q42 0 90 56q47 54 67 121q-2 0 -4 2q-40 14 -50.5 39t15.5 47q66 59 99 51q27 -4 13 -61q-4 -19 -12 -39q59 -26 97 -97q64 72 130 132l8 5q10 4 26 3q19 -5 32 -27q17 -28 8 -94q-3 -14 -15 -74q-1 -6 -3 -14t-2 -11q-17 -89 -16 -143t20 -60q27 -7 59 28t48 86
q0 5 7 -1q13 -10 1 -37q-29 -65 -77 -101q-49 -39 -94 -25q-34 10 -44 61t-1 169q6 73 20 168v6q-53 -51 -95 -99q20 -53 15 -101q-7 -85 -69 -145q-61 -61 -118 -61q-37 0 -42 39q-5 40 31 86l97 122q-12 78 -51 121q-42 -80 -104 -134q-62 -55 -115 -53q-57 2 -78 55
q-23 54 0 104q6 15 15.5 30.5t16.5 24.5t12 17t3.5 12.5t-10.5 6.5q-18 3 -45 -39.5t-64 -135.5q-42 -108 -76 -232v-1q1 -9 -8 -15.5t-26 -5.5q-64 4 -30 206q22 124 29 245q3 53 4 55q3 1 18.5 3t39 -12.5t34.5 -42.5q8 -13 4 -45q-5 -37 -10 -57q-3 -8 -17 -68
q-12 -51 -17 -78l-5 -29q49 155 99.5 230.5t109.5 90.5q62 14 81 -22q18 -37 -29 -102q-58 -72 -54 -126q1 -34 32 -34zM900 590q0 -27 -19.5 -46t-46.5 -19t-46.5 19t-19.5 46q0 28 19.5 47.5t46.5 19.5t46.5 -19.5t19.5 -47.5zM574 139q4 40 2 69q-42 -50 -66 -84
q-14 -18 -18 -38.5t1.5 -34t17.5 -13.5q22 0 39.5 27t23.5 74z" />
    <glyph glyph-name="rsil" unicode="rsil" horiz-adv-x="1118" 
d="M900 590q0 -23 -15 -41q36 -3 86 2q36 131 85 199q48 69 101 48q25 -10 34 -38t-2 -67.5t-43 -78.5q-35 -42 -91 -68q-30 -136 -40 -268q-23 -220 12 -228q30 -9 65 27q33 34 50 87q2 4 8 -2q12 -10 0 -36q-29 -64 -78 -101q-51 -38 -100 -26q-41 9 -51 76
q-30 -43 -69.5 -64t-72.5 -11q-34 10 -44 61t-1 169q6 73 20 168v6q-53 -51 -95 -99q20 -53 15 -101q-7 -85 -69 -145q-61 -61 -118 -61q-37 0 -42 39q-5 40 31 86l97 122q-12 78 -51 121q-42 -80 -104 -134q-62 -55 -115 -53q-57 2 -78 55q-23 54 0 104q6 15 15.5 30.5
t16.5 24.5t12 17t3.5 12.5t-10.5 6.5q-18 3 -45 -39.5t-64 -135.5q-42 -108 -76 -232v-1q1 -9 -8 -15.5t-26 -5.5q-64 4 -30 206q22 124 29 245q3 53 4 55q3 1 18.5 3t39 -12.5t34.5 -42.5q8 -13 4 -45q-5 -37 -10 -57q-3 -8 -17 -68q-12 -51 -17 -78l-5 -29
q49 155 99.5 230.5t109.5 90.5q62 14 81 -22q18 -37 -29 -102q-58 -72 -54 -126q1 -34 32 -34q42 0 90 56q47 54 67 121q-2 0 -4 2q-40 14 -50.5 39t15.5 47q66 59 99 51q27 -4 13 -61q-4 -19 -12 -39q59 -26 97 -97q64 72 130 132l8 5q10 4 26 3q19 -5 32 -27q17 -28 8 -94
q-3 -14 -15 -74q-1 -6 -3 -14t-2 -11q-17 -89 -16 -143t20 -60q18 -5 40.5 11.5t41.5 47.5q-5 61 2 131q13 156 45 282q-64 -7 -131 3q-27 0 -46 19t-19 46q0 28 19.5 47.5t46.5 19.5t46.5 -19.5t19.5 -47.5zM574 139q4 40 2 69q-42 -50 -66 -84q-14 -18 -18 -38.5t1.5 -34
t17.5 -13.5q22 0 39.5 27t23.5 74zM1141 746q-11 4 -24.5 -16t-27.5 -59.5t-27 -94.5q39 18 59 47q31 41 36.5 79.5t-16.5 43.5z" />
    <glyph glyph-name="rssi" unicode="rssi" horiz-adv-x="1175" 
d="M43 0q-64 4 -30 206q22 124 29 245q3 53 4 55q3 1 18.5 3t39 -12.5t34.5 -42.5q8 -13 4 -45q-5 -37 -10 -57q-3 -8 -17 -68q-12 -51 -17 -78l-5 -29q49 155 99.5 230.5t109.5 90.5q62 14 81 -22q18 -37 -29 -102q-58 -72 -54 -126q1 -34 32 -34q41 0 89 56q47 54 67 121
l-3 2q-40 14 -50.5 39t15.5 47q66 59 99 51q27 -4 13 -61q-4 -19 -12 -39q35 -16 66 -52.5t46 -81.5q47 44 78 95l-4 2q-40 14 -50.5 39t15.5 47q71 61 102 51q25 -8 11 -61l-11 -39q56 -25 96 -91q75 89 139 127q12 10 32 7q19 -5 32 -27q17 -28 8 -94q-3 -14 -15 -74
q-1 -6 -3 -14t-2 -11q-17 -89 -16 -143t20 -60q27 -7 59 28t48 86q1 4 8 -2q12 -10 0 -36q-27 -63 -77 -101q-49 -39 -94 -25q-34 10 -43 61q-10 46 -2 169q6 73 20 168q1 16 3 18q-49 -38 -103 -102q26 -54 21 -110q-7 -85 -69 -145q-61 -61 -119 -61q-38 0 -42 39
q-5 40 31 86l94 127q-15 77 -57 119q-34 -48 -102 -103q7 -33 4 -62q-7 -85 -69 -145q-61 -61 -118 -61q-37 0 -42 39q-5 40 31 86q32 42 99 99q-7 94 -53 144q-42 -80 -104 -134q-62 -55 -115 -53q-57 2 -78 55q-23 54 0 104q6 15 15.5 30.5t16.5 24.5t12 17t3.5 12.5
t-10.5 6.5q-18 3 -45 -39.5t-64 -135.5q-42 -108 -76 -232v-1q1 -9 -8 -15.5t-26 -5.5zM1159 590q0 -27 -19 -46t-47 -19q-27 0 -46.5 19t-19.5 46q0 28 19.5 47.5t46.5 19.5q28 0 47 -19.5t19 -47.5zM833 139q4 34 1 75l-65 -90q-14 -18 -18 -38.5t1.5 -34t17.5 -13.5
q22 0 39.5 27t23.5 74zM574 139q2 48 2 51q-44 -34 -66 -66q-14 -18 -18 -38.5t1.5 -34t17.5 -13.5q22 0 39.5 27t23.5 74z" />
    <glyph glyph-name="osi" unicode="osi" horiz-adv-x="886" 
d="M750 0q-35 11 -44 61q-10 46 -2 169q6 73 20 168q0 3 1.5 9.5t1.5 8.5q-41 -30 -103 -102q26 -54 21 -110q-7 -85 -69 -145q-61 -61 -118 -61q-39 0 -43 39t31 86l94 127q-13 68 -49 110q-73 -195 -179 -222q-28 -64 -74.5 -101t-103.5 -37q-62 0 -102 58q-41 59 -29 180
q13 135 86 202q72 65 147 47q26 -6 11 -18q-20 -14 -45 -11q-29 4 -61 -50q-31 -54 -42 -143q-10 -99 11 -157t72 -58q53 0 89 85q-49 5 -84.5 43t-38.5 92q-4 72 40 130q44 57 95 42q78 -21 60 -185q-5 -46 -17 -84q40 10 78 71q36 60 54 143l-11 6q-40 14 -50.5 39
t15.5 47q70 61 102 51q25 -8 11 -61l-10 -39q55 -25 95 -91q75 89 139 127q13 11 33 7q15 -4 32 -27q15 -23 8 -86q0 -2 -8 -49q-4 -22 -12 -58q-37 -190 4 -203q26 -7 58 28t48 86q2 5 8 -2q12 -10 0 -36q-28 -63 -76 -101q-49 -39 -94 -25zM220 306q2 -110 65 -131
q9 37 13 71q11 143 -25 164q-14 8 -26.5 -2.5t-19.5 -37.5t-7 -64zM870 590q0 -27 -19 -46t-47 -19q-27 0 -46.5 19t-19.5 46q0 28 19.5 47.5t46.5 19.5q28 0 47 -19.5t19 -47.5zM544 139q4 27 2 75l-33 -45l-33 -45q-14 -18 -18 -38.5t1.5 -34t18.5 -13.5q21 0 38.5 27.5
t23.5 73.5z" />
    <glyph glyph-name="fo" unicode="fo" horiz-adv-x="635" 
d="M584 257q-4 -37 -18 -85q35 8 69 46.5t57 98.5q3 5 10 -1q10 -9 0 -34q-24 -56 -64 -94t-85 -49q-28 -64 -74.5 -101.5t-103.5 -37.5q-62 0 -102 58q-41 59 -29 180q7 93 53 160q-106 -60 -170 -128l-4 -24q-1 -8 -4.5 -25.5l-4.5 -22.5q6 -18 18 -57t16 -53
q12 -43 20 -91q9 -52 9 -103q0 -123 -55 -178q-31 -31 -76 -21q-70 17 -58 231q8 126 41 296q3 12 13 69q-17 50 -16.5 69t20.5 29q8 4 20 8q100 405 197 402q31 -1 39 -54q7 -54 -18 -127q-45 -123 -134 -224l-11 -60q101 87 255 147l12 3q0 1 2 1q39 9 69 2q26 -6 10 -19
q-19 -13 -45 -10q-28 4 -60 -50q-31 -54 -42 -143q-11 -98 10.5 -156.5t72.5 -58.5q53 0 89 85q-49 3 -84.5 41.5t-38.5 93.5q-4 72 40 130q44 57 95 42q77 -21 60 -185zM137 -116q0 109 -36 236q-21 -126 -29.5 -214t-5 -131.5t19.5 -43.5q24 0 38 48q13 48 13 105z
M461 306q1 -45 19 -81t46 -49q9 33 12 70q12 142 -24 164q-14 8 -26.5 -2.5t-19.5 -37.5t-7 -64zM258 746q-26 0 -46 -66q-20 -67 -51 -229q66 88 91 167q11 33 16 62.5t2 47.5t-12 18z" />
    <glyph glyph-name="fos" unicode="fos" horiz-adv-x="924" 
d="M46 -305q-70 17 -58 231q8 126 41 296q3 12 13 69q-17 50 -16.5 69t20.5 29q8 4 20 8q100 405 197 402q31 -1 39 -54q7 -54 -18 -127q-45 -123 -134 -224l-11 -60q101 87 255 147l12 3q0 1 2 1q39 9 69 2q26 -6 10 -19q-19 -13 -45 -10q-28 4 -60 -50q-31 -54 -42 -143
q-11 -98 10.5 -156.5t72.5 -58.5q53 0 89 85q-49 5 -84.5 43t-38.5 92q-4 72 40 130q44 57 95 42q77 -21 60 -185q-4 -43 -18 -84q42 11 78.5 70.5t54.5 143.5l-11 6q-40 14 -50.5 39t15.5 47q71 61 102 51q25 -8 11 -61q-2 -9 -4.5 -19t-4 -14.5t-1.5 -5.5q34 -15 65 -49.5
t49 -78.5q55 41 128 78q21 10 22 -6q0 -16 -14 -24q-58 -27 -127 -76q10 -32 7 -70q-7 -85 -69 -145q-61 -61 -119 -61q-38 0 -42 39q-5 40 31 86q46 60 97 107q-11 81 -52 130q-77 -195 -179 -222q-28 -64 -74.5 -101t-103.5 -37q-62 0 -102 58q-41 59 -29 180q7 93 53 160
q-106 -60 -170 -128l-4 -24q-1 -8 -4.5 -25.5l-4.5 -22.5q6 -18 18 -57t16 -53q12 -43 20 -91q9 -52 9 -103q0 -123 -55 -178q-31 -31 -76 -21zM137 -116q0 109 -36 236q-21 -126 -29.5 -214t-5 -131.5t19.5 -43.5q24 0 38 48q13 48 13 105zM461 306q2 -110 65 -131
q9 35 12 71q12 142 -24 164q-14 8 -26.5 -2.5t-19.5 -37.5t-7 -64zM258 746q-26 0 -46 -66q-20 -67 -51 -229q66 88 91 167q11 33 16 62.5t2 47.5t-12 18zM785 139q3 36 2 58q-42 -40 -66 -73q-14 -18 -18 -38.5t1.5 -34t17.5 -13.5q22 0 39.5 27t23.5 74z" />
    <glyph glyph-name="foss" unicode="foss" horiz-adv-x="1182" 
d="M46 -305q-70 17 -58 231q8 126 41 296q3 12 13 69q-17 50 -16.5 69t20.5 29q8 4 20 8q100 405 197 402q31 -1 39 -54q7 -54 -18 -127q-45 -123 -134 -224l-11 -60q101 87 255 147l12 3q0 1 2 1q39 9 69 2q26 -6 10 -19q-19 -13 -45 -10q-28 4 -60 -50q-31 -54 -42 -143
q-11 -98 10.5 -156.5t72.5 -58.5q53 0 89 85q-49 5 -84.5 43t-38.5 92q-4 72 40 130q44 57 95 42q77 -21 60 -185q-4 -43 -18 -84q40 10 78 71q35 58 55 143l-11 6q-40 14 -50.5 39t15.5 47q71 61 102 51q25 -8 11 -61l-11 -39q36 -16 68.5 -53t49.5 -83q61 58 82 103
q-2 1 -9 4q-40 14 -50.5 39t15.5 47q71 61 102 51q25 -8 11 -61q-4 -19 -12 -39q35 -16 67 -53t50 -83q67 48 128 78q19 10 21 -6q1 -16 -14 -24q-58 -27 -126 -76q9 -40 6 -70q-7 -85 -69 -145q-61 -61 -118 -61q-39 0 -43 39t32 86q46 60 96 107q-11 92 -56 143
q-29 -47 -104 -108q6 -26 4 -61q-7 -85 -69 -145q-61 -61 -119 -61q-38 0 -42 39q-5 40 31 86q31 42 99 96q-10 90 -55 142q-74 -195 -178 -223q-28 -64 -74.5 -101t-103.5 -37q-62 0 -102 58q-41 59 -29 180q7 93 53 160q-106 -60 -170 -128l-4 -24q-1 -8 -4.5 -25.5
l-4.5 -22.5q6 -18 18 -57t16 -53q12 -43 20 -91q9 -52 9 -103q0 -123 -55 -178q-31 -31 -76 -21zM137 -116q0 109 -36 236q-21 -126 -29.5 -214t-5 -131.5t19.5 -43.5q24 0 38 48q13 48 13 105zM461 306q1 -108 65 -132q9 36 12 72q12 142 -24 164q-14 8 -26.5 -2.5
t-20 -37.5t-6.5 -64zM258 746q-26 0 -46 -66q-20 -67 -51 -229q66 88 91 167q11 33 16 62.5t2 47.5t-12 18zM1043 139q3 20 3 58q-29 -27 -67 -73q-14 -18 -18 -38.5t1.5 -34t18.5 -13.5q21 0 38.5 27.5t23.5 73.5zM785 139q3 44 2 51q-45 -38 -66 -66q-14 -18 -18 -38.5
t1.5 -34t17.5 -13.5q22 0 39.5 27t23.5 74z" />
    <glyph glyph-name="foi" unicode="foi" horiz-adv-x="831" 
d="M584 257q-10 -103 -67 -181q-57 -76 -142 -76q-62 0 -102 58q-41 59 -29 180q7 93 53 160q-106 -60 -170 -128l-4 -24q-1 -8 -4.5 -25.5l-4.5 -22.5q6 -18 18 -57t16 -53q12 -43 20 -91q9 -52 9 -103q0 -123 -55 -178q-31 -31 -76 -21q-70 17 -58 231q8 126 41 296
q3 12 13 69q-17 50 -16.5 69t20.5 29q8 4 20 8q100 405 197 402q31 -1 39 -54q7 -54 -18 -127q-45 -123 -134 -224l-11 -60q101 87 255 147l12 3q0 1 2 1q39 9 69 2q26 -6 10 -19q-19 -13 -45 -10q-28 4 -60 -50q-31 -54 -42 -143q-11 -98 10.5 -156.5t72.5 -58.5
q45 0 77 60q32 59 38 136q6 81 -2 120q-75 -20 -100 2q-27 23 -5 51q23 32 68 27q14 0 23 -4q28 -10 43 -36q86 32 133 59l5 1q9 1 19 0q24 -7 37 -28q10 -15 11 -37q0 -25 -4 -48q-6 -38 -12 -63q-2 -10 -8 -37q-17 -89 -16 -143t20 -60q27 -7 59 28t48 86q1 5 8 -2
q12 -10 0 -36q-27 -63 -77 -101q-49 -39 -94 -25q-34 10 -43 61q-10 46 -2 169q5 55 21 160q2 22 5 33q-49 -29 -97 -45q13 -52 6 -121zM137 -116q0 109 -36 236q-21 -126 -29.5 -214t-5 -131.5t19.5 -43.5q24 0 38 48q13 48 13 105zM815 590q0 -27 -19 -46t-47 -19
q-27 0 -46.5 19t-19.5 46q0 28 19.5 47.5t46.5 19.5q28 0 47 -19.5t19 -47.5zM258 746q-26 0 -46 -66q-20 -67 -51 -229q66 88 91 167q11 33 16 62.5t2 47.5t-12 18z" />
    <glyph glyph-name="foil" unicode="foil" horiz-adv-x="1030" 
d="M584 257q-10 -103 -67 -181q-57 -76 -142 -76q-62 0 -102 58q-41 59 -29 180q7 91 52 163q-107 -64 -168 -131l-5 -24q-1 -8 -4.5 -25.5l-4.5 -22.5q6 -18 18 -57t16 -53q12 -43 20 -91q9 -52 9 -103q0 -123 -55 -178q-31 -31 -76 -21q-70 17 -58 231q8 126 41 296
q3 12 13 69q-17 50 -16.5 69t20.5 29q8 4 20 8q100 405 197 402q31 -1 39 -54q7 -54 -18 -127q-45 -123 -134 -224l-11 -60q96 84 238 144q48 28 99 18q28 -4 11 -18q-18 -15 -44 -12q-30 3 -61 -54q-32 -58 -42 -147q-11 -98 10.5 -156.5t72.5 -58.5q45 0 77 60
q32 59 38 136q6 81 -2 120q-75 -20 -100 2q-27 23 -5 51q23 32 68 27q14 0 23 -4q28 -10 43 -36q86 32 133 59l5 1q9 1 19 0q24 -7 37 -28q10 -15 11 -37q0 -25 -4 -48q-6 -38 -12 -63q-2 -10 -8 -37q-17 -89 -16 -143t20 -60q18 -5 40 11t41 46q-4 52 3 133q10 140 42 274
q-78 -6 -146 12q-14 3 -19 8q-28 19 -28 55q0 28 19.5 47t46.5 19q28 0 47 -19t19 -47q0 -27 -18 -46q45 -3 86 -1q37 136 85 206q50 72 103 50q25 -8 35 -42t-2 -79t-44 -80q-36 -41 -94 -63q-23 -110 -36 -256q-26 -219 12 -228q29 -9 64 27q33 34 50 87q3 5 9 -2
q10 -10 -1 -36q-29 -64 -78 -101q-51 -38 -100 -26q-38 9 -51 75q-31 -43 -68.5 -63.5t-72.5 -10.5q-34 10 -43 61q-10 46 -2 169q5 55 21 160q2 22 5 33q-49 -29 -97 -45q13 -52 6 -121zM137 -116q0 109 -36 236q-21 -126 -29.5 -214t-5 -131.5t19.5 -43.5q24 0 38 48
q13 48 13 105zM258 746q-26 0 -46 -66q-20 -67 -51 -229q66 88 91 167q11 33 16 62.5t2 47.5t-12 18zM1055 746q-11 4 -25 -18.5t-28.5 -64.5t-28.5 -101q41 16 63 45q22 26 31 57.5t5.5 54t-17.5 27.5z" />
    <glyph glyph-name="so" unicode="so" horiz-adv-x="702" 
d="M651 257q-4 -44 -18 -85q35 8 69 46.5t57 98.5q3 5 10 -1q10 -9 0 -34q-23 -55 -63 -93t-86 -50q-28 -64 -74.5 -101.5t-103.5 -37.5q-62 0 -102 58q-41 59 -29 180q6 61 31 109q-54 -41 -83 -65q12 -38 9 -78q-7 -85 -69 -145q-61 -61 -118 -61q-39 0 -43 39t32 86
q36 49 96 109q-10 75 -48 125q-42 -137 -81 -229q-13 -31 -32 -26l-4 4q29 46 48 132t24 153l-3 2q-40 14 -50.5 39t15.5 47q71 61 102 51q25 -8 11 -61l-10 -39q33 -15 63.5 -47.5t48.5 -73.5q56 48 156 124q49 45 113 62q32 9 36 -4q0 -2 -1 -4q-8 -17 -37 -29
q-40 -18 -71 -67t-39 -126q-10 -99 11 -157t72 -58q53 0 89 85q-49 3 -84.5 41.5t-38.5 93.5q-4 72 40 130q44 57 95 42q78 -21 60 -185zM528 306q1 -45 19.5 -81t46.5 -49q7 30 12 70q11 143 -25 164q-14 8 -26.5 -2.5t-19.5 -37.5t-7 -64zM167 139q3 21 3 60
q-43 -43 -67 -75q-14 -18 -18 -38.5t1.5 -34t18.5 -13.5q21 0 38.5 27.5t23.5 73.5z" />
    <glyph glyph-name="sos" unicode="sos" horiz-adv-x="991" 
d="M651 257q-5 -47 -18 -84q43 9 79 72q34 61 54 143l-11 5q-40 14 -50.5 39t15.5 47q70 61 102 51q25 -8 11 -61q-2 -9 -4.5 -19t-4 -14.5t-1.5 -5.5q35 -16 66.5 -50.5t48.5 -77.5q57 43 128 78q20 10 21 -6q0 -16 -14 -24q-58 -27 -127 -76q10 -32 7 -70q-7 -85 -69 -145
q-61 -61 -118 -61q-39 0 -43 39t31 86q46 60 97 107q-10 81 -50 128q-23 -72 -74 -136q-49 -63 -106 -81q-29 -66 -75 -103.5t-104 -37.5q-62 0 -102 58q-41 59 -29 180q6 61 31 109q-54 -41 -83 -65q12 -38 9 -78q-7 -85 -69 -145q-61 -61 -118 -61q-39 0 -43 39t32 86
q36 49 96 109q-10 75 -48 125q-42 -137 -81 -229q-13 -31 -32 -26l-4 4q29 46 48 132t24 153l-3 2q-40 14 -50.5 39t15.5 47q71 61 102 51q25 -8 11 -61l-10 -39q33 -15 63.5 -47.5t48.5 -73.5q56 48 156 124q49 45 113 62q32 9 36 -4q0 -2 -1 -4q-8 -17 -37 -29
q-40 -18 -71 -67t-39 -126q-10 -99 11 -157t72 -58q53 0 89 85q-49 3 -84.5 41.5t-38.5 93.5q-4 72 40 130q44 57 95 42q78 -21 60 -185zM528 306q1 -45 19.5 -81t46.5 -49q7 30 12 70q11 143 -25 164q-14 8 -26.5 -2.5t-19.5 -37.5t-7 -64zM167 139q3 21 3 60
q-43 -43 -67 -75q-14 -18 -18 -38.5t1.5 -34t18.5 -13.5q21 0 38.5 27.5t23.5 73.5zM852 139q3 36 2 58q-42 -40 -66 -73q-14 -18 -18 -38.5t1.5 -34t18.5 -13.5q21 0 38.5 27.5t23.5 73.5z" />
    <glyph glyph-name="soss" unicode="soss" horiz-adv-x="1249" 
d="M651 257q-5 -47 -18 -84q43 9 79 71q34 61 54 143q-2 3 -7 4l-5 2q-40 14 -50.5 39t15.5 47q71 61 102 51q25 -8 11 -61l-10 -39q36 -16 68.5 -53.5t48.5 -82.5q58 54 83 103q-6 1 -9 4q-40 14 -50.5 39t15.5 47q68 59 100 51q25 -6 12 -61q-4 -19 -12 -39q35 -16 67 -53
t50 -83q67 48 128 78q21 10 22 -6q0 -16 -15 -24q-59 -28 -126 -76q10 -39 6 -70q-7 -85 -69 -145q-61 -61 -118 -61q-37 0 -42 39q-5 40 31 86q46 60 97 107q-11 89 -57 143q-32 -52 -104 -108q7 -27 4 -61q-7 -85 -69 -145q-61 -61 -118 -61q-39 0 -43 39t32 86
q36 46 98 96q-9 85 -51 139q-23 -72 -74 -136q-51 -63 -106 -81q-29 -66 -75 -103.5t-104 -37.5q-62 0 -102 58q-41 59 -29 180q6 61 31 109q-54 -41 -83 -65q12 -38 9 -78q-7 -85 -69 -145q-61 -61 -118 -61q-39 0 -43 39t32 86q36 49 96 109q-10 75 -48 125
q-42 -137 -81 -229q-13 -31 -32 -26l-4 4q29 46 48 132t24 153l-3 2q-40 14 -50.5 39t15.5 47q71 61 102 51q25 -8 11 -61l-10 -39q33 -15 63.5 -47.5t48.5 -73.5q56 48 156 124q49 45 113 62q32 9 36 -4q0 -2 -1 -4q-8 -17 -37 -29q-40 -18 -71 -67t-39 -126
q-10 -99 11 -157t72 -58q53 0 89 85q-49 3 -84.5 41.5t-38.5 93.5q-4 72 40 130q44 57 95 42q78 -21 60 -185zM528 306q1 -45 19.5 -81t46.5 -49q7 30 12 70q11 143 -25 164q-14 8 -26.5 -2.5t-19.5 -37.5t-7 -64zM167 139q3 21 3 60q-43 -43 -67 -75q-14 -18 -18 -38.5
t1.5 -34t18.5 -13.5q21 0 38.5 27.5t23.5 73.5zM1110 139q3 36 2 58q-39 -36 -66 -73q-14 -18 -18 -38.5t1.5 -34t17.5 -13.5q22 0 39.5 27t23.5 74zM851 139q3 25 3 51q-44 -36 -67 -66q-14 -18 -18 -38.5t1.5 -34t18.5 -13.5q21 0 38.5 27.5t23.5 73.5z" />
    <glyph glyph-name="soi" unicode="soi" horiz-adv-x="898" 
d="M651 257q-11 -105 -67 -181q-57 -76 -142 -76q-62 0 -102 58q-41 59 -29 180q7 75 44 137q-55 -41 -99 -82q15 -42 12 -89q-7 -85 -69 -145q-61 -61 -118 -61q-25 0 -35.5 20t-3.5 51.5t31 61.5q47 60 92 109q-12 71 -47 117q-42 -137 -81 -229q-13 -31 -32 -26l-4 4
q29 46 48 132t24 153l-3 2q-40 14 -50.5 39t15.5 47q71 61 102 51q25 -8 11 -61l-10 -39q66 -31 107 -111q115 108 219 156q28 14 74 25q10 2 15 0t4 -7q-2 -15 -25 -28q-8 -5 -13 -6q-37 -11 -70.5 -63t-41.5 -131q-10 -99 11 -157t72 -58q45 0 78 60q32 59 38 136
q6 78 -3 120q-75 -20 -100 2q-27 22 -4 51q24 32 71 27q12 -2 20 -4q28 -12 42 -36q86 32 133 59l5 1q9 2 20 0q23 -7 36 -28q16 -24 10 -73q-2 -12 -13 -69l-9 -43q-37 -190 4 -203q26 -7 58 28t48 86q2 5 8 -2q12 -10 0 -36q-28 -63 -76 -101q-49 -39 -94 -25
q-35 11 -44 61q-10 46 -2 169q5 55 21 160q2 22 5 33q-49 -29 -97 -45q13 -48 6 -121zM882 590q0 -27 -19 -46t-47 -19q-27 0 -46.5 19t-19.5 46q0 28 19.5 47.5t46.5 19.5q28 0 47 -19.5t19 -47.5zM167 139q4 24 2 67q-27 -27 -63 -74q-13 -18 -18 -40.5t-0.5 -38
t17.5 -15.5q21 0 38.5 27.5t23.5 73.5z" />
    <glyph glyph-name="soil" unicode="soil" horiz-adv-x="1101" 
d="M651 257q-11 -105 -67 -181q-57 -76 -142 -76q-62 0 -102 58q-41 59 -29 180q7 75 44 137q-55 -41 -99 -82q15 -42 12 -89q-7 -85 -69 -145q-61 -61 -118 -61q-25 0 -35.5 20t-3.5 51.5t31 61.5q47 60 92 109q-12 71 -47 117q-42 -137 -81 -229q-13 -31 -32 -26l-4 4
q29 46 48 132t24 153l-3 2q-40 14 -50.5 39t15.5 47q71 61 102 51q25 -8 11 -61l-10 -39q66 -31 107 -111q115 108 219 156q28 14 74 25q10 2 15 0t4 -7q-2 -15 -25 -28q-8 -5 -13 -6q-37 -11 -70.5 -63t-41.5 -131q-10 -99 11 -157t72 -58q45 0 78 60q32 59 38 136
q6 78 -3 120q-75 -20 -100 2q-27 22 -4 51q24 32 71 27q12 -2 20 -4q28 -12 42 -36q86 32 133 59l5 1q9 2 20 0q23 -7 36 -28q16 -24 10 -73q-2 -12 -13 -69l-9 -43q-37 -190 4 -203q17 -5 39 11t41 46q-4 52 3 133q10 140 42 274q-78 -6 -145 12q-17 5 -24 13
q-24 21 -24 51q0 28 19.5 47.5t46.5 19.5q28 0 47 -19.5t19 -47.5q0 -30 -19 -46q49 -5 87 -2q37 136 85 206q50 72 103 50q25 -8 35.5 -42t-1.5 -79t-45 -80q-36 -41 -93 -63q-25 -114 -37 -256q-25 -219 12 -228q30 -9 64 27q33 33 50 87q3 5 9 -2q10 -10 -1 -36
q-29 -64 -78 -101q-50 -38 -99 -26q-38 9 -52 75q-30 -43 -68.5 -63.5t-71.5 -10.5q-35 11 -44 61q-10 46 -2 169q5 55 21 160q2 22 5 33q-49 -29 -97 -45q13 -48 6 -121zM1122 746q-11 4 -25 -18.5t-28.5 -64.5t-28.5 -101q40 16 63 45q22 26 31.5 57.5t5.5 54t-18 27.5z
M167 139q4 24 2 67q-27 -27 -63 -74q-13 -18 -18 -40.5t-0.5 -38t17.5 -15.5q21 0 38.5 27.5t23.5 73.5z" />
    <glyph glyph-name="ps" unicode="ps" horiz-adv-x="711" 
d="M2 -223q-65 4 -31 206l36 219l22 149q9 78 11 93q1 12 2.5 24t2 17t0.5 6q0 2 7 3t18.5 -1t23.5 -7t23.5 -17.5t17.5 -30.5q11 -29 -10 -136q46 107 93.5 155.5t91.5 34.5q85 -28 34 -230q99 66 134 129l-3 2q-40 14 -50.5 39t15.5 47q70 61 102 51q25 -8 11 -61l-10 -39
q34 -16 65.5 -51t48.5 -77q71 50 129 78q20 10 21 -6q0 -16 -14 -24q-58 -27 -127 -76q10 -32 7 -70q-7 -85 -69 -145q-61 -61 -118 -61q-39 0 -43 39t31 86q46 60 97 107q-12 94 -61 140q-40 -61 -176 -144q-35 -116 -92 -176q-59 -62 -109 -68q-24 -2 -33 18.5t-2 48.5
t24 50q36 47 116 95l5 30q34 199 0 209q-14 7 -38.5 -31t-58.5 -122.5t-68 -199.5q-7 -36 -12 -73q-7 -35 -23 -123q-11 -69 -8 -86q2 -9 -7 -15.5t-26 -5.5zM572 139q3 36 2 58q-42 -40 -66 -73q-14 -18 -18 -38.5t1.5 -34t18.5 -13.5q21 0 38.5 27.5t23.5 73.5zM154 22
q19 2 40 39.5t36 101.5q-55 -35 -74 -63q-13 -17 -17 -36t0.5 -31t14.5 -11z" />
    <glyph glyph-name="wo" unicode="wo" horiz-adv-x="965" 
d="M914 257q-8 -50 -19 -85q36 8 69.5 46t57.5 99q2 5 9 -1q11 -8 0 -34q-23 -56 -63 -94t-86 -49q-28 -65 -74.5 -102t-102.5 -37q-63 0 -103 58q-41 60 -28 180q11 104 59 170q-46 -13 -94 -23q1 -36 -6 -81q-12 -69 -59 -146q-45 -76 -107 -127q-60 -50 -105 -39
q-49 12 -56 118q-34 -62 -73.5 -94.5t-75.5 -23.5q-69 16 -53 248q9 106 27 219q8 47 39 32q32 -17 44 -36q10 -16 10 -38q0 -34 -3 -52q-7 -43 -12 -65q-1 -6 -3.5 -19.5t-3.5 -18.5q-39 -203 10 -219q19 -6 46 42q27 47 48 122l3 33q10 122 28 172.5t49 42.5
q57 -14 20 -193q-18 -92 -15 -151.5t27 -67.5q18 -6 53 31.5t68 99.5q33 58 47 120q10 40 8 82q-133 -21 -144 38q-9 42 38 71q45 28 94 5q44 -20 54 -73q39 5 132 29q65 59 138 41q12 -3 14.5 -7.5t-2.5 -9.5t-15 -9l-9 -3l-62 -20q-52 -55 -62 -173q-11 -98 10.5 -156.5
t72.5 -58.5q53 0 89 85q-47 3 -84 41q-37 37 -40 94q-3 72 41 130q44 57 95 42q77 -21 60 -185zM790 306q1 -45 19.5 -81t46.5 -49q9 33 12 70q12 143 -25 164q-14 8 -26.5 -2.5t-19.5 -37.5t-7 -64zM423 427q4 -19 67 -16q-6 26 -18 37q-17 14 -35 5q-20 -9 -14 -26z" />
    <glyph glyph-name="vo" unicode="vo" horiz-adv-x="768" 
d="M717 257q-5 -44 -19 -85q36 8 70 46.5t57 98.5q2 5 9 -1q11 -8 0 -34q-23 -55 -62.5 -93t-85.5 -50q-65 -139 -178 -139q-63 0 -103 58q-41 60 -28 180q8 84 41 145q-49 -11 -77 -16q0 -17 -6 -63q-11 -72 -59 -148q-48 -77 -112 -127q-63 -48 -107 -37q-69 16 -53 248
q8 112 26 219q9 47 40 32q32 -17 44 -36q10 -22 10 -39q0 -25 -4 -51q-7 -48 -11 -66q-2 -8 -4.5 -20.5t-2.5 -16.5q-19 -92 -16.5 -151.5t26.5 -67.5q19 -6 57 30t73 96q36 61 48 117q8 48 8 76q-116 -8 -128 39q-12 40 32 72t85 17q47 -18 53 -89q49 4 103 21
q33 41 75 57.5t83 7.5q11 -3 12 -7q14 -17 -16 -31q-41 -20 -79 -34q-34 -59 -45 -150q-11 -98 10.5 -156.5t72.5 -58.5q53 0 89 85q-49 3 -84.5 41.5t-38.5 93.5q-4 72 40 130q44 57 95 42q77 -21 60 -185zM594 306q0 -45 18.5 -81t46.5 -49q9 33 12 70q12 143 -25 164
q-14 8 -26 -2.5t-19 -37.5t-7 -64zM239 422q7 -19 59 -22q-6 49 -23 57q-19 9 -31.5 -3.5t-4.5 -31.5z" />
    <glyph glyph-name="wos" unicode="wos" horiz-adv-x="1254" 
d="M533 304q-12 -69 -59 -146q-45 -76 -107 -127q-60 -50 -105 -39q-49 12 -56 118q-34 -62 -73.5 -94.5t-75.5 -23.5q-69 16 -53 248q9 106 27 219q8 47 39 32q32 -17 44 -36q10 -16 10 -38q0 -34 -3 -52q-7 -43 -12 -65q-1 -6 -3.5 -19.5t-3.5 -18.5q-39 -203 10 -219
q19 -6 46 42q27 47 48 122l3 33q10 122 28 172.5t49 42.5q57 -14 20 -193q-18 -92 -15 -151.5t27 -67.5q18 -6 53 31.5t68 99.5q33 58 47 120q10 40 8 82q-133 -21 -144 38q-9 42 38 71q45 28 94 5q44 -20 54 -73q38 5 130 29q30 27 65 37.5t63 3.5q10 -3 14 -6.5t2 -7.5
q5 -8 -16 -15q-4 -1 -12 -4t-25 -8t-31 -10q-44 -52 -56 -171q-11 -98 10.5 -156.5t72.5 -58.5q53 0 89 85q-49 5 -85 43t-39 92q-3 72 41 130q44 57 95 42q77 -21 60 -185q-8 -51 -18 -84q42 11 78.5 70.5t54.5 143.5l-11 6q-40 14 -51 39t15 47q70 61 102 51q25 -8 11 -61
l-9 -39q34 -15 65 -49.5t49 -78.5q57 43 128 78q21 10 22 -6q0 -16 -15 -24q-59 -28 -126 -76q11 -38 6 -70q-7 -85 -69 -145q-61 -61 -118 -61q-38 0 -42 39q-5 40 31 86q49 63 97 107q-10 77 -52 130q-76 -195 -180 -222q-28 -64 -74 -101t-103 -37q-63 0 -103 58
q-41 60 -28 180q11 103 57 170q-43 -14 -92 -23q1 -36 -6 -81zM790 306q2 -110 65 -131q10 29 13 71q12 143 -25 164q-14 8 -26.5 -2.5t-19.5 -37.5t-7 -64zM1114 139q4 30 3 58q-29 -27 -67 -73q-20 -28 -19 -57t21 -29q22 0 39 27t23 74zM423 427q4 -19 67 -16
q-6 26 -18 37q-17 14 -35 5q-20 -9 -14 -26z" />
    <glyph glyph-name="vos" unicode="vos" horiz-adv-x="1057" 
d="M335 304q-11 -72 -59 -148q-48 -77 -112 -127q-63 -48 -107 -37q-69 16 -53 248q8 112 26 219q9 47 40 32q32 -17 44 -36q10 -22 10 -39q0 -25 -4 -51q-7 -48 -11 -66q-2 -8 -4.5 -20.5t-2.5 -16.5q-19 -92 -16.5 -151.5t26.5 -67.5q19 -6 57 30t73 96q36 61 48 117
q8 48 8 76q-116 -8 -128 39q-12 40 32 72t85 17q47 -18 53 -89q50 4 106 21q32 40 74.5 57t77.5 8q8 -1 10 -4q5 -1 8 -6t-1 -13t-18 -15q-22 -11 -83 -35q-30 -50 -41 -149q-11 -98 10.5 -156.5t72.5 -58.5q53 0 89 85q-49 5 -84.5 43t-38.5 92q-4 72 40 130q44 57 95 42
q77 -21 60 -185q-5 -43 -18 -84q42 11 78.5 70.5t54.5 143.5l-11 6q-40 14 -50.5 39t15.5 47q68 59 100 51q25 -6 12 -61q-4 -21 -9 -39q34 -15 65 -49.5t49 -78.5q57 43 128 78q21 10 22 -6q0 -16 -15 -24q-59 -28 -126 -76q11 -38 6 -70q-7 -85 -69 -145q-61 -61 -118 -61
q-37 0 -42 39q-5 40 31 86q46 60 97 107q-11 81 -52 130q-77 -195 -179 -222q-30 -65 -76 -101.5t-102 -36.5q-63 0 -103 58q-41 60 -28 180q7 81 42 146q-51 -13 -78 -17q0 -17 -6 -63zM594 306q0 -52 17 -86.5t47 -44.5q10 29 13 71q12 143 -25 164q-14 8 -26 -2.5
t-19 -37.5t-7 -64zM918 139q3 36 2 58q-39 -36 -66 -73q-14 -18 -18 -38.5t1.5 -34t17.5 -13.5q22 0 39.5 27t23.5 74zM239 422q7 -19 59 -22q-6 49 -23 57q-19 9 -31.5 -3.5t-4.5 -31.5z" />
    <glyph glyph-name="ws" unicode="ws" horiz-adv-x="858" 
d="M533 304q-8 -45 -29 -90q42 4 76 51.5t53 122.5l-11 5q-40 14 -50.5 39t15.5 47q71 61 102 51q25 -8 11 -61l-10 -39q34 -16 65.5 -51t48.5 -77q70 50 129 78q19 10 21 -6q1 -16 -14 -24q-58 -27 -126 -76q9 -34 6 -70q-7 -85 -69 -145q-61 -61 -118 -61q-39 0 -43 39
t32 86q46 60 96 107q-8 74 -48 126q-26 -76 -77 -128q-53 -51 -111 -54q-46 -82 -110 -138q-63 -56 -110 -44q-49 12 -56 118q-34 -62 -73.5 -94.5t-75.5 -23.5q-69 16 -53 248q9 106 27 219q8 47 39 32q32 -17 44 -36q10 -16 10 -38q0 -34 -3 -52q-7 -43 -12 -65
q-1 -6 -3.5 -19.5t-3.5 -18.5q-39 -203 10 -219q19 -6 46 42q27 47 48 122l3 33q10 122 28 172.5t49 42.5q57 -14 20 -193q-18 -92 -15 -151.5t27 -67.5q17 -7 55 34q37 42 69 101q-36 12 -61 44t-30 73q-9 72 32 134q40 61 91 61q40 0 56 -55q17 -56 3 -131zM421 338
q-3 -82 42 -113q14 33 23 69q14 62 10 109q-4 49 -23 52q-21 3 -36 -30t-16 -87zM719 139q3 20 3 58q-29 -27 -67 -73q-14 -18 -18 -38.5t1.5 -34t18.5 -13.5q21 0 38.5 27.5t23.5 73.5z" />
    <glyph glyph-name="vs" unicode="vs" horiz-adv-x="662" 
d="M335 304q-6 -42 -27 -86q44 3 78 49t49 121l-9 5q-40 14 -51 39t15 47q70 61 102 51q25 -8 11 -61l-9 -39q34 -16 65 -51t48 -77q71 50 129 78q21 10 22 -6q0 -16 -15 -24q-59 -28 -126 -76q11 -38 6 -70q-7 -85 -69 -145q-61 -61 -118 -61q-38 0 -42 39q-5 40 31 86
q49 63 97 107q-12 82 -51 128q-30 -77 -81 -128q-50 -51 -105 -56q-50 -83 -115 -138q-65 -56 -113 -44q-69 16 -53 248q8 112 26 219q9 47 40 32q32 -17 44 -36q10 -22 10 -39q0 -25 -4 -51q-7 -48 -11 -66q-2 -8 -4.5 -20.5t-2.5 -16.5q-19 -92 -16.5 -151.5t26.5 -67.5
q19 -7 60 35q40 40 74 100q-34 12 -57.5 46.5t-26.5 78.5q-4 75 35 136q39 58 88 51q76 -10 50 -186zM232 338q5 -86 38 -111q15 36 20 59q15 71 12 119t-23 51q-21 3 -35 -30.5t-12 -87.5zM522 139q4 30 3 58q-29 -27 -67 -73q-20 -28 -19 -57t21 -29q22 0 39 27t23 74z
" />
    <glyph glyph-name="cs" unicode="cs" horiz-adv-x="617" 
d="M143 0q-66 0 -109 58t-31 180q14 135 86 200t148 49q35 -8 51 -38.5t7 -65.5q-9 -36 -33.5 -61.5t-55.5 -23.5q-28 -1 -42 50q-7 28 -2 28q50 -2 75 29q22 26 -4 43q-11 7 -31 10q-31 4 -62 -49q-30 -53 -41 -144q-10 -96 16.5 -155.5t82.5 -59.5q55 0 116 109
q62 108 84 225q-8 6 -17 9q-40 14 -50.5 39t15.5 47q68 59 100 51q25 -6 12 -61l-10 -39q76 -36 114 -128q68 48 129 78q21 10 22 -6q0 -16 -15 -24q-59 -28 -126 -76q11 -38 6 -70q-7 -85 -69 -145q-61 -61 -118 -61q-37 0 -42 39q-5 40 31 86q46 60 97 107q-11 79 -50 127
q-48 -158 -120 -257q-72 -100 -164 -100zM478 139q3 36 2 58q-39 -36 -66 -73q-14 -18 -18 -38.5t1.5 -34t17.5 -13.5q22 0 39.5 27t23.5 74z" />
    <glyph glyph-name="voi" unicode="voi" horiz-adv-x="964" 
d="M717 257q-10 -104 -68 -181q-57 -76 -141 -76q-63 0 -103 58q-41 60 -28 180q8 84 41 145q-49 -11 -77 -16q0 -17 -6 -63q-11 -72 -59 -148q-48 -77 -112 -127q-63 -48 -107 -37q-69 16 -53 248q8 112 26 219q9 47 40 32q32 -17 44 -36q10 -22 10 -39q0 -25 -4 -51
q-7 -48 -11 -66q-2 -8 -4.5 -20.5t-2.5 -16.5q-19 -92 -16.5 -151.5t26.5 -67.5q19 -6 57 30t73 96q36 61 48 117q8 48 8 76q-116 -8 -128 39q-12 40 32 72t85 17q47 -18 53 -89q49 4 103 21q33 41 75 57.5t83 7.5q7 -2 10 -5q20 -17 -14 -33q-41 -20 -79 -34
q-34 -59 -45 -150q-11 -98 10.5 -156.5t72.5 -58.5q44 0 77 60q32 59 38 136q6 75 -2 120q-76 -19 -100 2q-27 23 -5 51q23 32 68 27q14 0 23 -4q28 -10 43 -36q87 31 132 59l6 1q9 1 19 0q24 -7 37 -28q10 -16 10 -37q0 -31 -3 -49q-4 -25 -12 -62q-7 -31 -8 -37
q-17 -89 -16 -143t20 -60q27 -7 59 28t48 86q0 5 7 -1q13 -10 1 -37q-29 -65 -77 -101q-49 -39 -94 -25q-34 10 -44 61t-1 169q4 58 20 160q3 20 6 33q-51 -28 -98 -45q14 -52 7 -121zM948 590q0 -27 -19.5 -46t-46.5 -19t-46.5 19t-19.5 46q0 28 19.5 47.5t46.5 19.5
t46.5 -19.5t19.5 -47.5zM239 422q7 -19 59 -22q-6 49 -23 57q-19 9 -31.5 -3.5t-4.5 -31.5z" />
    <glyph glyph-name="woi" unicode="woi" horiz-adv-x="1161" 
d="M914 257q-10 -104 -68 -181q-57 -76 -141 -76q-63 0 -103 58q-41 60 -28 180q11 103 56 169q-50 -15 -91 -22q1 -36 -6 -81q-12 -69 -59 -146q-45 -76 -107 -127q-60 -50 -105 -39q-49 12 -56 118q-34 -62 -73.5 -94.5t-75.5 -23.5q-69 16 -53 248q9 106 27 219
q8 47 39 32q32 -17 44 -36q10 -16 10 -38q0 -34 -3 -52q-7 -43 -12 -65q-1 -6 -3.5 -19.5t-3.5 -18.5q-39 -203 10 -219q19 -6 46 42q27 47 48 122l3 33q10 122 28 172.5t49 42.5q57 -14 20 -193q-18 -92 -15 -151.5t27 -67.5q18 -6 53 31.5t68 99.5q33 58 47 120
q10 40 8 82q-133 -21 -144 38q-9 42 38 71q45 28 94 5q44 -20 54 -73q51 8 125 28q63 60 137 42q14 -3 12 -14q5 -8 -16 -15l-62 -20q-52 -55 -62 -173q-11 -98 10.5 -156.5t72.5 -58.5q44 0 77 60q32 59 38 136q6 75 -2 120q-76 -19 -100 2q-27 22 -6 51q22 31 69 27
q14 0 23 -4q28 -10 42 -36q83 30 133 59l6 1q8 2 19 0q22 -7 37 -28q15 -27 9 -73q-2 -12 -13 -69l-9 -43q-37 -189 4 -203q27 -7 59 28q30 33 47 86q2 4 8 -2q12 -10 0 -36q-28 -64 -76 -101q-49 -39 -94 -25q-34 10 -44 61t-2 169q5 55 21 160q5 28 6 33q-49 -28 -98 -45
q13 -45 7 -121zM1145 590q0 -27 -19.5 -46t-47.5 -19q-27 0 -46 19t-19 46q0 28 19 47.5t46 19.5q28 0 47.5 -19.5t19.5 -47.5zM423 427q4 -19 67 -16q-6 26 -18 37q-17 14 -35 5q-20 -9 -14 -26z" />
    <glyph glyph-name="esi" unicode="esi" horiz-adv-x="875" 
d="M698 0q-34 10 -43 61q-10 46 -2 169q6 73 20 168q1 16 3 18q-49 -38 -103 -102q26 -54 21 -110q-7 -85 -69 -145q-61 -61 -119 -61q-38 0 -42 39q-5 40 31 86l94 127q-9 55 -40 99q-49 -151 -126 -252q-76 -100 -165 -100q-30 0 -59 13.5t-53.5 40.5t-37 75.5t-6.5 111.5
q14 135 86 200q73 65 148 49q77 -16 82 -91q4 -68 -55 -140q-68 -79 -156 -86h-3q-2 -1 -3 -1q10 -56 39.5 -89t70.5 -33q47 0 115 110q69 112 94 222q-11 10 -24 14q-38 13 -46 38.5t19 47.5q71 61 102 51q25 -8 11 -61q-7 -28 -12 -43q55 -29 89 -87q75 89 139 127
q12 10 32 7q19 -5 32 -27q17 -28 8 -94q-3 -14 -15 -74q-1 -6 -3 -14t-2 -11q-17 -89 -16 -143t20 -60q27 -7 59 28t48 86q1 5 8 -2q12 -10 0 -36q-27 -63 -77 -101q-49 -39 -94 -25zM98 265q-4 -40 -1 -67q61 20 101 110q34 76 23 126q-5 23 -19 24q-30 5 -62 -50
q-31 -54 -42 -143zM819 590q0 -27 -19 -46t-47 -19q-27 0 -46.5 19t-19.5 46q0 28 19.5 47.5t46.5 19.5q28 0 47 -19.5t19 -47.5zM493 139q4 34 1 75l-65 -90q-14 -18 -18 -38.5t1.5 -34t17.5 -13.5q22 0 39.5 27t23.5 74z" />
    <glyph glyph-name="ess" unicode="ess" horiz-adv-x="891" 
d="M158 -3q-30 0 -59 13.5t-53.5 40.5t-37 75.5t-6.5 111.5q14 135 86 200q73 65 148 49q77 -16 82 -91q4 -68 -55 -140q-68 -79 -156 -86h-3q-2 -1 -3 -1q10 -56 39.5 -89t70.5 -33q47 0 115 110q69 112 94 222q-11 10 -24 14q-38 13 -46 38.5t19 47.5q71 61 102 51
q25 -8 11 -61l-12 -43q75 -40 110 -130q67 59 83 102q-2 0 -5 2l-3 1q-40 14 -50.5 39t15.5 47q70 61 102 51q25 -8 11 -61q-5 -19 -12 -39q35 -16 67 -53t50 -83q57 43 128 78q20 10 21 -6q0 -16 -14 -24q-58 -27 -127 -76q10 -36 7 -70q-7 -85 -69 -145q-61 -61 -118 -61
q-39 0 -43 39t31 86q46 60 97 107q-11 92 -57 144q-26 -45 -104 -109q6 -26 4 -61q-7 -85 -69 -145q-61 -61 -119 -61q-38 0 -42 39q-5 40 31 86q27 35 99 99q-7 73 -45 127q-49 -151 -126 -252q-76 -100 -165 -100zM98 265q-4 -40 -1 -67q61 20 101 110q34 76 23 126
q-5 23 -19 24q-30 5 -62 -50q-31 -54 -42 -143zM752 139q3 36 2 58q-42 -40 -66 -73q-14 -18 -18 -38.5t1.5 -34t18.5 -13.5q21 0 38.5 27.5t23.5 73.5zM493 139q3 45 2 51q-47 -40 -66 -66q-14 -18 -18 -38.5t1.5 -34t17.5 -13.5q22 0 39.5 27t23.5 74z" />
    <glyph glyph-name="essi" unicode="essi" horiz-adv-x="1094" 
d="M958 0q-35 11 -44 61q-10 46 -2 169q6 73 20 168q0 3 1.5 9.5t1.5 8.5q-41 -30 -103 -102q26 -54 21 -110q-7 -85 -69 -145q-61 -61 -118 -61q-39 0 -43 39t31 86l94 127q-15 77 -57 119q-25 -43 -101 -104q6 -26 4 -61q-7 -85 -69 -145q-61 -61 -119 -61q-38 0 -42 39
q-5 40 31 86q27 35 99 99q-7 73 -45 127q-49 -151 -126 -252q-76 -100 -165 -100q-30 0 -59 13.5t-53.5 40.5t-37 75.5t-6.5 111.5q14 135 86 200q73 65 148 49q77 -16 82 -91q4 -68 -55 -140q-68 -79 -156 -86h-3q-2 -1 -3 -1q10 -56 39.5 -89t70.5 -33q47 0 115 110
q69 112 94 222q-11 10 -24 14q-38 13 -46 38.5t19 47.5q71 61 102 51q25 -8 11 -61l-12 -43q75 -40 110 -130q59 53 80 94l-5 3q-40 14 -50.5 39t15.5 47q70 61 102 51q25 -8 11 -61l-10 -39q55 -25 95 -91q75 89 139 127q13 11 33 7q15 -4 32 -27q15 -23 8 -86q0 -2 -8 -49
q-4 -22 -12 -58q-37 -190 4 -203q26 -7 58 28t48 86q2 4 8 -2q12 -10 0 -36q-28 -63 -76 -101q-49 -39 -94 -25zM98 265q-4 -40 -1 -67q61 20 101 110q34 76 23 126q-5 23 -19 24q-30 5 -62 -50q-31 -54 -42 -143zM1078 590q0 -27 -19 -46t-47 -19q-27 0 -46.5 19t-19.5 46
q0 28 19.5 47.5t46.5 19.5q28 0 47 -19.5t19 -47.5zM752 139q4 27 2 75l-33 -45l-33 -45q-14 -18 -18 -38.5t1.5 -34t18.5 -13.5q21 0 38.5 27.5t23.5 73.5zM493 139q3 45 2 51q-47 -40 -66 -66q-14 -18 -18 -38.5t1.5 -34t17.5 -13.5q22 0 39.5 27t23.5 74z" />
    <glyph glyph-name="sso" unicode="sso" horiz-adv-x="959" 
d="M908 257q-4 -37 -18 -85q35 8 69 46.5t57 98.5q3 5 10 -1q10 -9 0 -34q-24 -56 -64 -94t-85 -49q-28 -64 -74.5 -101.5t-103.5 -37.5q-62 0 -102 58q-41 59 -29 180q6 60 30 109l-81 -65q11 -40 8 -78q-7 -85 -69 -145q-61 -61 -118 -61q-39 0 -43 39t31 86q40 53 97 109
q-12 94 -60 144q-23 -40 -102 -108q7 -25 5 -64q-7 -85 -69 -145q-61 -61 -119 -61q-38 0 -42 39q-5 40 31 86q33 42 98 100q-10 84 -50 134q-42 -137 -81 -229q-14 -32 -32 -26l-4 4q28 48 48 134t24 151l-2 2q-40 14 -50.5 39t15.5 47q71 61 102 51q25 -8 11 -61l-10 -39
q35 -16 66 -51t49 -80q62 61 82 99l-5 3q-40 14 -50.5 39t15.5 47q71 61 102 51q25 -8 11 -61q-2 -4 -6 -19.5l-5 -19.5q34 -18 64 -52t48 -76q37 33 156 123q49 45 113 62q35 9 35 -5q0 -2 -1 -3q-8 -17 -36 -29q-40 -18 -71 -67t-39 -126q-11 -98 10.5 -156.5t72.5 -58.5
q53 0 89 85q-49 3 -84.5 41.5t-38.5 93.5q-4 72 40 130q44 57 95 42q77 -21 60 -185zM785 306q1 -45 19 -81t46 -49q9 33 12 70q12 142 -24 164q-14 8 -26.5 -2.5t-19.5 -37.5t-7 -64zM424 139q3 38 2 60q-46 -49 -66 -75q-14 -18 -18 -38.5t1.5 -34t18.5 -13.5
q21 0 38.5 27.5t23.5 73.5zM165 139q2 48 2 52q-49 -45 -66 -67q-14 -18 -18 -38.5t1.5 -34t17.5 -13.5q22 0 39.5 27t23.5 74z" />
    <glyph glyph-name="ill" unicode="ill" horiz-adv-x="597" 
d="M178 586q0 -23 -16 -40q42 -4 85 0q36 137 84 209t103 51q25 -8 35 -42t-2 -79t-45 -80q-36 -42 -91 -64q-25 -117 -37 -263q-26 -219 12 -228q18 -6 43.5 12.5t47.5 52.5q-5 42 3 125q9 112 33 229q-33 -10 -58 -7q-28 3 -27 21q0 9 6 9q39 -3 86 10q35 152 89 241
q52 85 110 63q38 -14 35 -74q-3 -61 -46 -125q-33 -49 -98 -92q-23 -110 -34 -237q-26 -220 12 -231q30 -9 64 28q33 36 50 89q3 5 9 -2q10 -10 -1 -36q-28 -63 -78 -102t-99 -27q-41 8 -53 85q-34 -46 -74 -69t-76 -14q-38 9 -51 75q-31 -43 -68.5 -63.5t-72.5 -10.5
q-34 10 -43 61q-10 46 -2 169q6 73 20 168q7 49 18.5 65t34.5 11q23 -7 36 -28q17 -28 8 -94q-3 -14 -15 -74q-1 -6 -3 -14t-2 -11q-17 -89 -16 -143t20 -60q18 -5 40 11t41 46q-4 52 3 133q11 144 42 277q-69 -9 -138 8q-11 1 -13 3l-10 5q-35 20 -33 61q2 27 22.5 45
t47.5 17q28 -2 46 -22.5t16 -47.5zM623 754q-18 6 -42 -51.5t-45 -154.5q41 27 66 65q27 44 35 90q6 43 -14 51zM418 754q-12 4 -26 -18.5t-27.5 -64.5t-26.5 -101q39 21 60 45q22 26 31.5 57.5t6 54t-17.5 27.5z" />
    <glyph glyph-name="rr" unicode="rr" horiz-adv-x="810" 
d="M450 -8q-65 5 -29 214q9 53 15 104q-27 -49 -64 -78.5t-75 -29.5q-58 1 -76 44t4 92q6 15 15.5 30.5t16.5 24.5t12 17t3.5 12.5t-10.5 6.5q-18 3 -45 -39.5t-64 -135.5q-42 -108 -76 -232v-1q1 -9 -8 -15.5t-26 -5.5q-64 4 -30 206q22 124 29 245q3 53 4 55q3 1 18.5 3
t39 -12.5t34.5 -42.5q8 -13 4 -45q-5 -37 -10 -57q-3 -8 -17 -68q-12 -51 -17 -78l-5 -29q49 155 99.5 230.5t109.5 90.5q62 14 81 -22q18 -37 -29 -102q-70 -88 -56 -123q5 -16 28 -14q32 2 71 53q39 53 49 116l5 66.5t3 41.5q3 1 18.5 3t39 -12.5t34.5 -42.5q8 -13 4 -46
q-5 -39 -10 -60q-3 -11 -17 -70q-13 -59 -17 -80q-1 -4 -2 -10l-2.5 -15l-2.5 -15q50 160 100.5 238.5t110.5 93.5q62 14 81 -22q18 -37 -29 -102q-60 -75 -48 -120q6 -24 34 -24q34 0 65 30.5t46 81.5q1 4 8 -1q11 -10 1 -37q-22 -52 -61.5 -81t-87.5 -28q-58 1 -82 46
q-24 43 -4 97q6 15 15.5 30.5t16.5 24.5t12 17t3.5 12.5t-10.5 6.5q-16 3 -44 -40t-66.5 -141.5t-75.5 -233.5v-1q1 -9 -8 -15.5t-26 -5.5z" />
    <glyph glyph-name="to" unicode="to" horiz-adv-x="624" 
d="M573 257q-5 -44 -19 -85q36 8 70 46.5t57 98.5q2 5 9 -1q11 -8 0 -34q-23 -55 -62.5 -93t-85.5 -50q-65 -139 -178 -139q-63 0 -103 58q-41 60 -28 180q10 104 87 178q-56 1 -170 6q-13 -74 -22 -144q-10 -95 -4 -171q4 -75 25 -81q28 -7 57 22q14 16 24 9q6 -4 0 -13
q-60 -86 -136 -68q-38 8 -55 78.5t-6 185.5q7 92 28 187q-21 0 -38 -3q-13 -3 -14 7q-2 32 13 46t55 15q14 54 30 98q15 42 59 28q24 -7 28 -19v-3q-11 -31 -29 -104h198q70 0 65 -20q-2 -5 -8 -10l-2 -2q-75 -75 -89 -195q-11 -98 10.5 -156.5t72.5 -58.5q53 0 89 85
q-49 3 -84.5 41.5t-38.5 93.5q-4 72 40 130q44 57 95 42q77 -21 60 -185zM450 306q0 -45 18.5 -81t46.5 -49q9 33 12 70q12 143 -25 164q-14 8 -26 -2.5t-19 -37.5t-7 -64z" />
    <glyph glyph-name="toi" unicode="toi" horiz-adv-x="820" 
d="M573 257q-10 -104 -68 -181q-57 -76 -141 -76q-63 0 -103 58q-41 60 -28 180q11 107 66 179q-19 1 -71 3q-14 0 -31 0.5t-28.5 1t-18.5 0.5q-13 -74 -22 -144q-10 -95 -4 -171q4 -75 25 -81q28 -7 57 22q14 16 24 9q6 -4 0 -13q-60 -86 -136 -68q-38 8 -55 78.5t-6 185.5
q7 92 28 187q-21 0 -38 -3q-13 -3 -14 7q-2 32 13 46t55 15q14 54 30 98q15 42 59 28q24 -7 28 -19v-3q-11 -31 -29 -104h198q80 0 37 -46l-13 -15q-48 -62 -58 -166q-11 -98 10.5 -156.5t72.5 -58.5q44 0 77 60q32 59 38 136q6 75 -2 120q-76 -19 -100 2q-27 23 -5 51
q23 32 68 27l23 -4q28 -10 43 -36q87 31 132 59l6 1q9 1 19 0q24 -7 37 -28q10 -16 10 -37q0 -31 -3 -49q-4 -25 -12 -62q-7 -31 -8 -37q-17 -89 -16 -143t20 -60q27 -7 59 28t48 86q0 5 7 -1q13 -10 1 -37q-29 -65 -77 -101q-49 -39 -94 -25q-34 10 -44 61t-1 169
q4 58 20 160q3 20 6 33q-51 -28 -98 -45q14 -52 7 -121zM804 590q0 -27 -19.5 -46t-46.5 -19t-46.5 19t-19.5 46q0 28 19.5 47.5t46.5 19.5t46.5 -19.5t19.5 -47.5z" />
    <glyph glyph-name="ct" unicode="ct" horiz-adv-x="542" 
d="M322 432q-3 32 12.5 46.5t55.5 14.5q11 44 30 98q2 4 3 7q-73 -6 -137 -64q-23 -18 -44 -48q36 -9 52 -38t11 -66q-7 -38 -36 -63q-30 -27 -63 -20q-32 6 -38 51t23 108q-31 -10 -57.5 -63t-34.5 -129q-10 -92 16 -154q25 -61 76 -61q60 0 95 68q7 11 14 -5q5 -12 2 -16
q-55 -97 -167 -97q-63 0 -103 58q-41 59 -29 179q13 123 75 189q61 64 133 63q18 28 50 57q59 54 119 69t98 3q0 -1 1 -1q12 -4 20.5 -10.5t6.5 -10.5q-15 -52 -28 -105q9 0 26.5 1t29.5 1.5t16 0.5q0 -3 1.5 -15.5t-6.5 -33t-24 -31.5q-14 -11 -61 -5q-15 -89 -19 -131
q-22 -219 13 -228q30 -7 64 27t50 87q2 5 9 -2q10 -10 -1 -37q-29 -64 -79 -99q-50 -37 -99 -26q-73 16 -52 240q6 81 27 184q-25 3 -37 0q-14 -8 -14 7zM247 387q7 52 -24 67q-13 -27 -17.5 -51t0.5 -38.5t17 -14.5q20 0 24 37z" />
    <glyph glyph-name="cl" unicode="cl" horiz-adv-x="506" 
d="M204 459h-2q-33 0 -63.5 -54t-39.5 -139q-10 -92 16 -154q25 -61 76 -61q60 0 95 68q7 11 14 -5q5 -12 2 -16q-55 -97 -167 -97q-63 0 -103 58q-41 59 -29 179q14 127 76 191q63 64 136 61q30 80 81 147q123 166 253 166l1 -1h3q12 0 19 -4q18 -7 6 -26q-2 -4 -21 -26
l-9 -11q-30 -36 -63 -166q-34 -133 -47 -290q-22 -219 12 -229q30 -9 65 27q33 35 50 88q1 5 8 -2q12 -10 0 -37q-28 -62 -78 -100q-51 -38 -100 -26q-69 15 -53 241q13 167 52 318q38 147 89 207q-57 -20 -113 -81l-48 -56q-49 -62 -79 -143q36 -11 51.5 -39t10.5 -65
q-6 -39 -32.5 -64t-58.5 -19q-24 5 -27 50t17 110zM247 387q6 43 -17 63q-12 -43 -12.5 -71t12.5 -29q13 0 17 37z" />
    <glyph glyph-name="ch" unicode="ch" horiz-adv-x="754" 
d="M366 1q-65 4 -31 206q51 293 70 481q-27 -9 -62 -41t-65 -74q-26 -37 -45 -84q1 -1 4 -1q39 -9 56.5 -38.5t11.5 -67.5t-36 -63q-30 -27 -63 -20q-27 5 -31.5 49t17.5 110q-32 -10 -58 -62t-35 -130q-10 -92 16 -154q25 -61 76 -61q60 0 95 68q7 11 14 -5q5 -12 2 -16
q-55 -97 -167 -97q-63 0 -103 58q-41 59 -29 179q13 122 72 186q58 64 130 66q23 54 47 89q44 68 100 105q56 38 90 30h4q40 -8 54 -51q8 -26 1 -70q-6 -38 -32 -156q-22 -99 -40 -207q-1 -1 -6 -32q54 158 115.5 235t116.5 60q39 -12 42.5 -67t-27.5 -171q-23 -90 -21 -144
t24 -60q27 -7 59 28q30 33 47 86q1 5 8 -2q12 -10 0 -37q-28 -64 -76 -101q-50 -38 -94 -24q-72 22 -45 232q7 61 24 119l9 41q5 35 -12 41q-18 4 -47.5 -40t-68.5 -138q-40 -98 -78 -233v-1q1 -10 -8 -16t-25 -5zM247 387q8 56 -26 69q-15 -44 -14.5 -75t16.5 -31
q20 0 24 37z" />
    <glyph glyph-name="ck" unicode="ck" horiz-adv-x="754" 
d="M366 1q-65 4 -31 206q25 146 31 188q17 110 20 135q11 83 13 99q6 56 7 59q-27 -9 -62.5 -41t-64.5 -74q-28 -39 -46 -84q1 -1 4 -1q39 -9 56.5 -38.5t11.5 -67.5t-36 -63q-30 -27 -63 -20q-27 5 -31.5 49t17.5 110q-32 -10 -58 -62t-35 -130q-10 -92 16 -154
q25 -61 76 -61q60 0 95 68q7 11 14 -5q5 -12 2 -16q-55 -97 -167 -97q-63 0 -103 58q-41 59 -29 179q13 122 72 186q58 64 130 66q23 54 47 89q44 68 100 105q56 38 90 30h4q40 -6 54 -51q8 -26 1 -70q-6 -38 -32 -156q-22 -99 -40 -207l-8 -44q55 149 123 229q67 79 118 79
q36 0 52 -31t8 -80q-8 -46 -43.5 -92.5t-82.5 -72.5q36 0 54.5 -21.5t11.5 -55.5q-17 -89 19 -92q24 -2 53 32q30 35 45 84q2 5 9 -2q10 -10 -1 -37q-27 -62 -67.5 -95t-88.5 -33q-37 1 -56 28.5t-10 71.5q12 52 -8 71q-21 14 -78 -3q-7 -2 -10.5 0t-2.5 9q3 17 12 24
q43 8 86 54q44 47 54 89q15 69 -12 76q-16 3 -45.5 -30.5t-63.5 -99.5q-49 -96 -98 -265v-1q1 -10 -8 -16t-25 -5zM248 387q6 55 -27 69q-15 -44 -14.5 -75t16.5 -31q21 0 25 37z" />
    <glyph glyph-name="cto" unicode="cto" horiz-adv-x="937" 
d="M322 431q-3 31 12.5 45.5t55.5 15.5q8 38 30 98l3 8q-73 -6 -137 -64q-23 -18 -44 -48q36 -9 52 -38t11 -66q-7 -38 -36 -63q-30 -27 -63 -20q-32 6 -38 51t23 108q-31 -10 -57.5 -63t-34.5 -129q-10 -92 16 -154q25 -61 76 -61q30 0 57.5 21t45.5 55q7 11 14 -5
q5 -12 2 -16q-28 -49 -73.5 -77t-101.5 -28q-63 0 -103 58q-41 59 -29 179q13 123 75 189q61 64 133 63q18 28 50 57q59 54 119 69t98 3q5 -2 5 -3q25 -11 23 -20q-16 -50 -28 -104h198q70 0 65 -20q-2 -5 -8 -10l-2 -2q-75 -75 -89 -195q-11 -98 10.5 -156.5t72.5 -58.5
q53 0 89 85q-47 3 -84 41q-37 37 -40 94q-3 72 41 130q44 57 95 42q77 -21 60 -185q-8 -50 -19 -85q36 8 69.5 46t57.5 99q2 5 9 -1q11 -8 0 -34q-23 -56 -63 -94t-86 -49q-28 -65 -74.5 -102t-102.5 -37q-63 0 -103 58q-41 60 -28 180q10 104 87 178l-170 6
q-13 -74 -22 -144q-10 -95 -4 -171q4 -75 25 -81q27 -7 56 22q15 16 25 9q7 -5 0 -13q-62 -86 -137 -68q-37 8 -54 79t-6 185q6 90 28 187q-23 0 -38 -3q-14 -8 -14 7zM762 306q1 -45 19.5 -81t46.5 -49q9 33 12 70q12 143 -25 164q-14 8 -26.5 -2.5t-19.5 -37.5t-7 -64z
M247 387q7 52 -24 67q-13 -27 -17.5 -51t0.5 -38.5t17 -14.5q20 0 24 37z" />
    <glyph glyph-name="pt" unicode="pt" horiz-adv-x="636" 
d="M439 240q3 35 15 121q-37 -56 -113 -111q-32 -126 -93 -193q-62 -69 -115 -75q-24 -2 -33 18.5t-2 48.5t24 50q40 54 118 107l3 18q34 199 0 209q-14 7 -38.5 -31t-58.5 -122.5t-68 -199.5q-7 -36 -12 -73q-7 -35 -23 -123q-11 -69 -8 -86q2 -9 -7 -15.5t-26 -5.5
q-65 4 -31 206l36 219l22 149q9 78 11 93q1 12 2.5 24t2 17t0.5 6q0 2 7 3t18.5 -1t23.5 -7t23.5 -17.5t17.5 -30.5q11 -29 -10 -136q46 107 93.5 155.5t91.5 34.5q81 -26 40 -209q72 62 110 142q-17 2 -30 -1q-14 -8 -15 7q-2 32 13 46.5t55 14.5q16 62 31 98q14 41 57 28
q25 -7 29 -19v-3q-20 -65 -29 -105q9 0 26.5 1t29.5 1.5t16 0.5l1 -5q0 -5 0.5 -10.5t-1 -14.5t-5.5 -18q-9 -24 -26 -33.5t-58 -3.5q-14 -75 -20 -131q-20 -218 13 -228q30 -7 63.5 26.5t51.5 87.5q2 5 8 -2q12 -10 0 -36q-28 -64 -79 -100q-52 -36 -99 -26q-73 15 -53 240
zM154 22q43 5 79 152q-50 -36 -77 -74q-13 -17 -17 -36t0.5 -31t14.5 -11z" />
    <glyph glyph-name="tsi" unicode="tsi" horiz-adv-x="738" 
d="M601 0q-35 11 -44 61q-10 46 -2 169q6 73 20 168l3 20q-38 -28 -101 -100q25 -55 19 -114q-7 -85 -69 -145q-61 -61 -118 -61q-39 0 -43 39t32 86l96 133q-8 59 -32 92q-32 -87 -84 -190l-2 -6q-35 -73 -89 -118q-55 -44 -101 -34q-74 15 -53 240q7 94 27 184
q-25 3 -37 0q-13 -3 -14 7q-2 32 13 46.5t55 14.5q14 54 30 98q15 42 59 28q24 -7 28 -19v-3q-10 -29 -29 -105q9 0 26.5 1t29.5 1.5t16 0.5q0 -3 1.5 -15.5t-6.5 -33t-24 -31.5q-15 -10 -61 -5q-15 -89 -19 -131q-22 -217 13 -228q22 -5 53 20.5t57 71.5q26 50 47 124
q20 68 21 117l-2 2q-40 14 -50.5 39t15.5 47q93 81 111 38q6 -14 1 -48q-2 -21 -8 -39q46 -25 77 -76q73 85 138 121q2 2 4 2q13 7 28 4q15 -4 32 -27q15 -23 8 -86q0 -2 -8 -49q-4 -22 -12 -58q-37 -189 4 -203q27 -7 59 28q30 33 47 86q1 5 8 -2q12 -10 0 -36
q-28 -64 -76 -101q-49 -39 -94 -25zM722 590q0 -27 -19.5 -46t-47.5 -19q-27 0 -46 19t-19 46q0 28 19 47.5t46 19.5q28 0 47.5 -19.5t19.5 -47.5zM395 139q5 41 3 77l-67 -92q-14 -18 -18 -38.5t1.5 -34t18.5 -13.5q21 0 38.5 27.5t23.5 73.5z" />
    <glyph glyph-name="ci" unicode="ci" horiz-adv-x="528" 
d="M495 635v-1q29 -25 11 -68.5t-60 -40.5q-27 0 -46.5 19t-19.5 46q0 31 24 52q-51 -3 -119 -60q-40 -35 -62 -93q1 0 3 -0.5t5 -1t6 -0.5q38 -8 56 -37.5t12 -67.5q-6 -37 -35 -63q-30 -27 -64 -21q-25 5 -34.5 48t2.5 102q-27 -19 -47 -67.5t-28 -115.5q-10 -92 16 -154
q25 -61 76 -61q59 0 95 68q7 11 14 -4q5 -11 2 -17q-54 -97 -167 -97q-63 0 -103 58q-41 59 -29 180q10 112 65 177q52 64 120 73q22 58 73 106q57 54 118.5 68.5t100.5 -15.5q9 -5 14 -10q0 -2 1 -2zM391 0q-34 10 -44 61t-1 169q6 73 20 168q7 49 18.5 65t33.5 11
q24 -7 37 -28q17 -28 8 -94q-3 -14 -15 -74q-1 -6 -3 -14t-2 -11q-17 -89 -16 -143t20 -60q27 -7 59 28t48 86q0 5 7 -1q13 -10 1 -37q-29 -65 -77 -101q-49 -39 -94 -25zM248 386q8 62 -35 71q-11 -43 -8 -75.5t19 -32.5q18 0 24 37z" />
    <glyph glyph-name="yz" unicode="y&#x7a;" horiz-adv-x="830" 
d="M66 -8q-70 15 -53 248q8 112 26 219q9 47 39 32q34 -17 44 -36q10 -15 11 -39q0 -32 -3 -51q-2 -10 -5 -28.5t-7 -37.5q-7 -29 -8 -37q-18 -92 -15.5 -152t26.5 -67q21 -9 46 26.5t50 112.5t42 180q12 88 22 130q1 3 16 0t33 -13t26 -24q12 -20 9 -70q0 -4 -1 -11
t-2.5 -16t-1.5 -11q0 -4 -3.5 -22l-4.5 -23q-23 -128 -43 -209q1 1 32 29q56 53 93.5 122.5t47.5 134.5q-2 0 -2 1q-39 18 -49.5 47.5t13.5 51.5q74 62 104 50q22 -7 10 -60l-7 -27q30 5 102 34q74 29 111 22q90 -16 -64 -272q-38 -60 -72 -108l63 -39q37 -20 60 -21
q30 -2 59.5 28t44.5 78q1 5 8 -2q12 -10 0 -36q-31 -71 -78 -104t-100 -22q-61 12 -108 57q-57 -59 -95 -59q-26 -2 -42 20.5t-7.5 56t45.5 56.5q55 37 128 -1q32 46 60 99q53 98 44 139q-5 17 -20 13q-83 -24 -160 -15q-22 -68 -68 -139t-104 -124l-60 -53
q-49 -184 -106 -281q-58 -97 -118 -75q-25 8 -33.5 38t3 72t41.5 81q32 43 121 118q16 73 26 136q-69 -166 -166 -147zM90 -254q15 -6 34 22t37.5 79t34.5 116q-63 -53 -89 -88q-29 -40 -34 -82q-5 -41 17 -47zM506 38q23 0 54 34q-29 29 -42 29q-30 0 -33 -28
q-4 -24 13 -33q4 -2 8 -2z" />
    <glyph glyph-name="oo" unicode="oo" horiz-adv-x="789" 
d="M611 446q-27 -27 -81 -48q-29 -59 -36 -133q-11 -98 10.5 -156.5t72.5 -58.5q32 0 59 33.5t42 87.5q-37 4 -73 40q-35 35 -38 85q-4 74 29 118q33 41 82 28q77 -21 60 -185q-1 -11 -8 -48q80 14 116 108q2 5 9 -1q11 -8 0 -34q-19 -44 -55.5 -73.5t-80.5 -36.5
q-25 -78 -75.5 -125t-114.5 -47q-63 0 -103 58q-41 60 -28 180q8 76 42 135q-51 -10 -98 -12q7 -46 1 -104q-11 -105 -67 -181q-57 -76 -142 -76q-62 0 -102 58q-41 59 -29 180q13 135 86 202q72 65 147 47q26 -6 11 -18q-20 -14 -45 -11q-29 4 -61 -50q-31 -54 -42 -143
q-10 -99 11 -157t72 -58q45 0 78 60q32 59 38 136q6 72 -1 114q-30 1 -50 8q-38 14 -36 43q1 25 32 33q17 4 40 -2q36 -10 51 -52q49 -4 127 15q55 73 125 81q29 4 36 -9t-11 -31zM614 314q1 -39 20 -69t53 -36l5 37q12 143 -25 164q-15 8 -27 -0.5t-19 -33.5t-7 -62z" />
    <glyph glyph-name="ooi" unicode="ooi" horiz-adv-x="985" 
d="M218 449q-3 -3 -30 -8q-26 -5 -37 -16q-39 -39 -52 -160q-10 -99 11 -157t72 -58q45 0 78 60q32 59 38 136v11q-49 -6 -80 11.5t-37 59.5q-7 46 28 86q34 40 82 28q26 -7 41 -47.5t14 -100.5q25 9 72 40q32 88 93 128t119 25q26 -6 11 -18q-20 -14 -45 -11q-29 4 -61 -50
q-32 -55 -41 -143q-11 -98 10.5 -156.5t72.5 -58.5q44 0 77 60q32 59 38 136q6 75 -2 120q-76 -19 -100 2q-27 22 -6 51q22 31 69 27q14 0 23 -4q28 -10 42 -36q83 30 133 59l6 1q8 2 19 0q22 -7 37 -28q15 -27 9 -73q-2 -12 -13 -69l-9 -43q-37 -189 4 -203q27 -7 59 28
q30 33 47 86q2 5 8 -2q12 -10 0 -36q-28 -64 -76 -101q-49 -39 -94 -25q-34 10 -44 61t-2 169q5 55 21 160q5 28 6 33q-49 -28 -98 -45q13 -45 7 -121q-10 -104 -68 -181q-57 -76 -141 -76q-63 0 -103 58q-41 60 -28 180q3 37 10 60q-30 -19 -64 -30q0 -2 -0.5 -6t-0.5 -5
q-11 -105 -67 -181q-57 -76 -142 -76q-62 0 -102 58q-41 59 -29 180q11 106 69 174q58 66 120 74q18 2 29.5 -4t11 -15.5t-14.5 -17.5zM969 590q0 -27 -19.5 -46t-47.5 -19q-27 0 -46 19t-19 46q0 28 19 47.5t46 19.5q28 0 47.5 -19.5t19.5 -47.5zM225 350q7 -66 75 -64
q3 106 -27 124q-22 12 -37.5 -7.5t-10.5 -52.5z" />
    <glyph glyph-name="soo" unicode="soo" horiz-adv-x="1098" 
d="M1 106q29 46 48 132t24 153l-3 2q-40 14 -50.5 39t15.5 47q71 61 102 51q25 -8 11 -61l-10 -39q74 -34 111 -120q69 59 162 128q8 6 23 16l1 1l1 1l4 2l4 2q47 26 98 26q26 0 14 -14q-16 -18 -42 -21q-35 -3 -66 -53.5t-40 -132.5q-11 -98 10.5 -156.5t72.5 -58.5
q45 0 77 60q32 59 38 136q6 75 0 114q-30 1 -50 8q-38 14 -36 43q1 25 32 33q17 4 40 -2q36 -10 51 -52q49 -4 127 15q55 73 125 81q27 4 35 -9t-10 -31q-27 -27 -82 -48q-27 -56 -36 -133q-10 -99 11.5 -157t72.5 -58q32 0 59 33.5t42 87.5q-37 4 -73 40q-35 35 -38 85
q-4 74 29 118q33 42 81 28q78 -21 60 -185q-2 -26 -8 -48q80 14 116 108q3 5 10 -1q10 -9 0 -34q-19 -44 -55.5 -73.5t-80.5 -36.5q-25 -78 -75.5 -125t-114.5 -47q-63 0 -103 58q-41 59 -29 180q9 79 43 135q-53 -11 -99 -12q8 -48 2 -104q-10 -103 -67 -181
q-57 -76 -142 -76q-62 0 -102 58q-41 59 -29 180q7 66 30 113q-53 -41 -83 -68q12 -38 9 -79q-7 -85 -69 -145q-61 -61 -118 -61q-39 0 -43 39t32 86q35 48 96 109q-10 75 -48 125q-42 -137 -81 -229q-13 -31 -32 -26zM923 314q1 -39 20 -69t53 -36l5 37q12 143 -25 164
q-15 8 -27 -0.5t-19 -33.5t-7 -62zM167 139q4 21 2 61q-35 -36 -66 -76q-14 -18 -18 -38.5t1.5 -34t18.5 -13.5q21 0 38.5 27.5t23.5 73.5z" />
    <glyph glyph-name="do" unicode="do" horiz-adv-x="815" 
d="M764 256q-4 -37 -18 -85q35 8 69 46.5t57 98.5q3 5 10 -1q10 -9 0 -34q-24 -56 -64 -94t-85 -49q-28 -64 -74.5 -101.5t-103.5 -37.5q-62 0 -102 58q-41 59 -29 180q13 140 86 213q-80 13 -148 48q0 -3 -2 -13.5t-5 -30.5l-6 -41q-10 -62 -16 -107q-27 -223 2 -252
q17 -15 46 4q10 6 13.5 -8t-7.5 -22q-50 -41 -101 -29q-54 13 -54 148q-66 -177 -163 -155q-42 9 -59.5 73t0.5 175q27 141 87 206q59 64 116 41q33 -13 50 -69l24 130q-42 39 -65 89q-32 76 5.5 137t98.5 53q48 -7 56 -95q6 -85 -14 -197q96 -56 181 -55q37 22 79 17
q9 -1 15 -3q12 -5 15 -11q9 -12 -2.5 -23.5t-37.5 -13.5q-22 -2 -28 -2q-55 -48 -70 -180q-11 -98 10.5 -156t72.5 -58q53 0 89 84q-49 3 -84.5 41.5t-38.5 94.5q-4 71 40 129q43 57 95 43q76 -22 60 -186zM124 43q19 -5 40.5 24t42.5 91.5t38 150.5q1 2 1 10
q-3 101 -44 116q-27 11 -53 -36t-41 -137q-35 -206 16 -219zM641 305q1 -45 19 -81t46 -49q9 35 12 70q14 143 -24 165q-14 8 -26.5 -3t-19.5 -38t-7 -64zM254 652q13 -30 40 -59q30 177 8 186q-33 13 -50 -34q-16 -46 2 -93z" />
    <glyph glyph-name="fu" unicode="fu" horiz-adv-x="690" 
d="M330 -8q-70 15 -53 248q4 78 22 188q-84 -51 -163 -109l-13 -73q-1 -8 -4.5 -25.5l-4.5 -22.5q6 -18 18 -57t16 -53q12 -43 20 -91q9 -52 9 -103q0 -123 -55 -178q-31 -31 -76 -21q-70 17 -58 231q8 126 41 296q3 12 13 69q-17 50 -16.5 69t20.5 29q8 4 20 8
q100 405 197 402q31 -1 39 -54q7 -54 -18 -127q-42 -118 -134 -225l-5 -28q106 71 169 104q15 7 24 6l5 -1q1 0 4 -1q2 0 3 -1q53 -26 44 -111q-6 -40 -13 -69q-1 -7 -4 -17t-3 -13q-18 -92 -15.5 -152t26.5 -67q21 -9 46 28t50 117t42 188l5 32q7 50 18.5 65.5t34.5 9.5
q21 -4 37 -28q15 -22 8 -86q0 -2 -8 -49q-4 -22 -12 -58q-18 -90 -17 -148.5t20 -63.5q27 -7 59 28q30 33 47 86q1 5 8 -2q12 -10 0 -36q-28 -64 -76 -101q-49 -39 -94 -25q-29 9 -40 46.5t-9 118.5q-34 -94 -78.5 -139.5t-95.5 -33.5zM137 -116q0 109 -36 236
q-21 -126 -29.5 -214t-5 -131.5t19.5 -43.5q24 0 38 48q13 48 13 105zM258 746q-26 0 -46 -66q-20 -67 -51 -229q66 88 91 167q11 33 16 62.5t2 47.5t-12 18z" />
    <glyph glyph-name="fy" unicode="fy" horiz-adv-x="652" 
d="M330 -8q-70 15 -53 248q4 78 22 188q-84 -51 -163 -109l-13 -73q-1 -8 -4.5 -25.5l-4.5 -22.5q6 -18 18 -57t16 -53q12 -43 20 -91q9 -52 9 -103q0 -123 -55 -178q-31 -31 -76 -21q-70 17 -58 231q8 126 41 296q3 12 13 69q-17 50 -16.5 69t20.5 29q8 4 20 8
q100 405 197 402q31 -1 39 -54q7 -54 -18 -127q-42 -118 -134 -225l-5 -28q106 71 169 104q15 7 24 6l5 -1q1 0 4 -1q2 0 3 -1q53 -26 44 -111q-6 -40 -13 -69q-1 -7 -4 -17t-3 -13q-18 -92 -15.5 -152t26.5 -67q21 -9 46 26.5t49 112.5t41 180q13 93 21 130q1 3 16 0
t33.5 -13t26.5 -24q12 -20 9 -70q0 -4 -1 -11t-2.5 -16t-1.5 -11q0 -4 -3.5 -22l-4.5 -23q-32 -180 -67 -297q29 3 51 1q15 -2 22 -6.5t6 -12.5q-2 -7 -6 -9q-40 3 -82 -3q-44 -149 -96 -225q-53 -77 -107 -56q-37 13 -32 80q4 66 51 128q36 48 108 80q22 90 31 155
q-67 -164 -163 -145zM137 -116q0 109 -36 236q-21 -126 -29.5 -214t-5 -131.5t19.5 -43.5q24 0 38 48q13 48 13 105zM258 746q-26 0 -46 -66q-20 -67 -51 -229q66 88 91 167q11 33 16 62.5t2 47.5t-12 18zM351 -254q12 -5 25 9t26.5 43t26 67t25.5 86q-48 -19 -77 -58
q-30 -39 -38 -91q-8 -50 12 -56z" />
    <glyph glyph-name="dl" unicode="dl" horiz-adv-x="625" 
d="M430 240q12 157 44 292h-8q-18 1 -24.5 7.5t-4.5 13t5 7.5q21 0 39 2q33 126 78.5 193t98.5 60q41 -4 49 -57q7 -52 -30 -108q-40 -60 -109 -94q-32 -140 -42 -278q-26 -219 12 -228q29 -9 64 27q33 34 50 87q3 5 9 -2q10 -10 -1 -36q-29 -64 -78 -101q-51 -38 -100 -26
q-40 9 -52 79q-30 -43 -68.5 -64.5t-74.5 -13.5q-64 13 -53 151q-66 -180 -165 -159q-42 9 -59.5 73t0.5 175q27 141 87 206q59 64 116 41q39 -16 55 -88h4q13 78 23 156t14.5 116.5t4.5 42.5q0 2 7 3t18.5 -1t23.5 -6.5t23.5 -17t17.5 -30.5q11 -12 1 -78q-3 -23 -12 -61
q-24 -110 -37 -175q-8 -40 -22 -118q-13 -78 -10.5 -126.5t19.5 -53.5q41 -11 83 63q-3 46 4 127zM124 43q19 -5 40.5 25t43 95t38.5 155q-3 102 -44 117q-27 11 -53 -36t-41 -137q-35 -206 16 -219zM656 761q-11 1 -25 -20t-28 -60.5t-27 -92.5q51 28 76 68
q23 37 24.5 69.5t-20.5 35.5z" />
    <glyph glyph-name="oll" unicode="oll" horiz-adv-x="794" 
d="M602 240q2 9 4 41.5t4 41.5q-19 -6 -32 -5q-29 3 -28 21q1 9 6 9q28 -3 60 14q44 293 132 405q46 58 94 39q33 -20 27.5 -83.5t-39.5 -136.5q-48 -100 -117 -181q-8 -44 -15 -127q-11 -94 -8 -158q3 -68 20 -73q31 -9 65 28q33 36 50 89q1 5 8 -2q12 -10 0 -36
q-29 -63 -78 -102q-51 -39 -100 -27q-40 7 -52 81q-31 -45 -71.5 -66.5t-78.5 -12.5q-66 15 -55 207q-41 -36 -80 -52q-27 -71 -75 -112.5t-109 -41.5q-62 0 -102 58q-41 59 -29 180q13 135 86 202q72 65 147 47q26 -6 11 -18q-20 -14 -45 -11q-29 4 -61 -50
q-31 -54 -42 -143q-10 -99 11 -157t72 -58q58 0 92 93h-3q-49 0 -84 36t-38 91q-4 74 40 131q44 56 94 41q78 -21 60 -185q-3 -32 -14 -72q32 13 70 51l1 2v2q14 158 45 291t81 211t104 56q34 -19 23 -114q-12 -97 -58 -203q-34 -81 -95 -162q-4 -31 -4 -41
q-26 -219 12 -228q22 -7 47 11t44 52q-2 65 3 127zM614 746q-10 4 -22 -13.5t-24 -52.5t-23.5 -82.5t-22 -108t-17.5 -123.5q44 68 65 118q36 92 49 172q13 84 -5 90zM221 306q1 -46 19 -80.5t46 -43.5q9 30 12 64q11 143 -25 164q-15 8 -27 -2.5t-18.5 -37.5t-6.5 -64z
M826 754q-15 6 -34.5 -33.5t-38 -110.5t-33.5 -160q53 63 84 136q59 154 22 168z" />
    <glyph glyph-name="fil" unicode="fil" horiz-adv-x="657" 
d="M322 0q-35 11 -44 61q-10 46 -2 169q6 73 20 168q4 27 6 32q-73 -44 -166 -111l-13 -73q-1 -8 -4.5 -25.5l-4.5 -22.5q6 -18 18 -57t16 -53q12 -43 20 -91q9 -52 9 -103q0 -123 -55 -178q-31 -31 -76 -21q-70 17 -58 231q8 126 41 296q3 12 13 69q-17 50 -16.5 69
t20.5 29q8 4 20 8q100 405 197 402q31 -1 39 -54q7 -54 -18 -127q-42 -118 -134 -225l-5 -28q106 72 169 104q16 7 24 6q2 0 6 -0.5t5 -0.5q22 -7 37 -28q15 -23 8 -86q0 -2 -8 -49q-4 -22 -12 -58q-37 -190 4 -203q17 -5 39 11t41 46q-4 52 3 133q10 140 42 274
q-65 -6 -137 13q-11 4 -20 9q-28 21 -28 54q0 28 19.5 47.5t46.5 19.5q28 0 47 -19.5t19 -47.5q0 -27 -18 -45q27 -4 78 -2q37 136 85 206q50 71 103 49q25 -8 35.5 -42t-1.5 -79t-45 -80q-36 -42 -93 -63q-25 -114 -37 -256q-25 -219 12 -228q30 -9 64 27q33 33 50 87
q3 5 9 -2q10 -10 -1 -36q-29 -64 -78 -101q-50 -38 -99 -26q-38 9 -52 75q-30 -43 -68.5 -63.5t-71.5 -10.5zM137 -116q0 109 -36 236q-21 -126 -29.5 -214t-5 -131.5t19.5 -43.5q24 0 38 48q13 48 13 105zM258 746q-26 0 -46 -66q-20 -67 -51 -229q66 88 91 167
q11 33 16 62.5t2 47.5t-12 18zM682 746q-11 4 -25 -18.5t-28.5 -64.5t-28.5 -101q38 15 63 45q22 26 31.5 57.5t5.5 54t-18 27.5z" />
    <glyph glyph-name="ffil" unicode="ffil" horiz-adv-x="897" 
d="M635 11q-37 -23 -72 -11t-44 61q-10 49 -1 169q6 73 20 168q2 22 5 32l-120 -80q-35 -68 -60 -105l-9 -48q50 -151 62 -218q8 -51 8 -93q0 -126 -60 -190q-34 -35 -78 -25q-71 18 -58 250q8 133 41 301l9 48q-77 -42 -163 -59l-13 -79q40 -80 57 -131q16 -49 16 -115
q0 -84 -32 -145q-33 -60 -98 -46q-109 25 -26 487q-20 29 -20 46q0 13 10.5 24.5t26.5 15.5q34 169 72 288.5t77 181.5t77 61q38 -2 48 -79t-20 -166q-18 -51 -51 -126t-57 -111q-14 -24 -22 -13q-10 12 7 41q14 21 46 97q29 68 45 113q21 66 20 128q-2 62 -22 63
q-30 0 -53 -89q-23 -90 -69 -339q-3 -14 -6.5 -34.5t-4.5 -28.5q83 17 164 58q111 505 217 502q31 -1 37 -57q6 -57 -15 -131q-31 -110 -78 -221q46 32 108 63q8 5 19 6q2 0 8 -0.5t7 -0.5q24 -7 37 -28q17 -28 8 -94q-3 -14 -15 -74q-1 -6 -3 -14t-2 -11q-17 -89 -16 -143
t20 -60q37 -10 79 56q-5 62 3 134q10 140 42 274q-59 -4 -129 12q-7 0 -13 3q-6 2 -10 5q-31 19 -31 56q0 28 19.5 47.5t46.5 19.5t46.5 -19.5t19.5 -47.5q0 -27 -18 -45q37 -4 76 -3q37 136 85 206q50 72 103 50q25 -8 35.5 -42t-1.5 -79t-45 -80q-37 -43 -93 -63
q-25 -114 -37 -256q-25 -219 12 -228q30 -9 64 27q33 33 50 87q3 5 9 -2q10 -10 -1 -36q-29 -64 -78 -101q-50 -38 -99 -26q-38 9 -52 74q-31 -42 -67 -62zM384 -124q0 103 -42 245q-21 -129 -30 -222.5t-5.5 -142.5t19.5 -49q24 0 41 57q17 59 17 112zM385 363l20 14
q59 125 86 239q35 134 7 146q-28 0 -49 -83q-20 -75 -64 -316zM135 -124q0 90 -45 188q-24 -165 -25.5 -249t20.5 -84q23 0 37 45q13 45 13 100zM922 746q-11 4 -25 -18.5t-28.5 -64.5t-28.5 -101q38 16 63 45q22 26 31.5 57.5t5.5 54t-18 27.5z" />
    <glyph glyph-name="bi" unicode="bi" horiz-adv-x="584" 
d="M278 482q45 -12 62 -72q54 26 105 60l6 4q8 5 23 0q25 -6 37 -28q19 -31 8 -96q-4 -25 -15 -73q-1 -6 -3 -13.5t-2 -9.5q-17 -90 -16 -144t20 -59q27 -7 59 28t48 86q0 3 7 -1q13 -10 1 -38q-29 -65 -77 -101q-50 -38 -94 -24q-34 10 -44 61t-1 169q6 73 20 168q1 8 6 34
q-55 -32 -83 -46q8 -64 -11 -141q-35 -134 -115 -199q-81 -66 -144 -53q-41 7 -60 68t-10 171q14 153 53 285q-16 -2 -30 0q-29 3 -28 21q1 9 6 9q29 -3 62 0q41 129 95 196q54 68 112 46q39 -15 39.5 -59.5t-43.5 -107.5q-42 -54 -120 -85q-35 -131 -50 -267
q-25 -241 23 -249q19 -5 38 12t39 64t33 119q14 87 14 137q-53 -8 -82 14q-36 27 -12 68q22 37 73 48q28 5 51 -2zM568 591q0 -27 -19.5 -46t-46.5 -19t-46.5 19t-19.5 46q0 28 19.5 47.5t46.5 19.5t46.5 -19.5t19.5 -47.5zM259 739q-21 9 -47.5 -38t-51.5 -132q58 23 89 63
q20 26 26.5 49.5t1.5 38t-18 19.5zM206 386q14 -10 41 -5q-3 35 -19 45q-27 13 -38 -4q-12 -17 16 -36z" />
    <glyph glyph-name="bil" unicode="bil" horiz-adv-x="782" 
d="M568 590q0 -30 -19 -46q48 -5 87 -2q37 136 85 206q50 72 103 50q25 -8 35 -42t-2 -79t-44 -80q-37 -40 -94 -63q-25 -114 -37 -256q-22 -219 12 -228q30 -9 65 27q33 34 50 87q1 5 8 -2q12 -10 0 -36q-29 -64 -78 -101q-51 -38 -100 -26q-37 9 -51 75q-29 -42 -68 -63
t-73 -11t-44 61t-1 169q6 73 20 168l6 36q-35 -23 -83 -47q8 -64 -11 -141q-35 -134 -115 -199q-81 -66 -144 -53q-41 7 -60 68t-10 171q14 153 53 285q-16 -2 -30 0q-29 3 -28 21q1 9 6 9q29 -3 62 0q41 129 95 196q54 68 112 46q39 -15 39.5 -59.5t-43.5 -107.5
q-42 -54 -120 -85q-35 -131 -50 -267q-25 -241 23 -249q19 -5 38 12t39 64t33 119q14 87 14 137q-53 -8 -82 14q-36 27 -12 68q22 37 73 48q28 5 51 -2q45 -12 62 -72q54 26 105 60q4 4 11 4q4 2 18 0q24 -7 37 -28q17 -28 8 -94q-3 -14 -15 -74q-1 -6 -3 -14t-2 -11
q-17 -89 -16 -143t20 -60q18 -5 40 11t41 46q-4 46 2 133q12 148 43 274q-78 -6 -146 12q-19 5 -23 13q-24 21 -24 51q0 28 19.5 47.5t46.5 19.5t46.5 -19.5t19.5 -47.5zM259 739q-21 9 -47.5 -38t-51.5 -132q58 23 89 63q20 26 26.5 49.5t1.5 38t-18 19.5zM808 746
q-11 4 -25 -18.5t-28.5 -64.5t-28.5 -101q74 34 94 103q9 32 5.5 54t-17.5 27zM206 386q14 -10 41 -5q-3 35 -19 45q-27 13 -38 -4q-12 -17 16 -36z" />
    <glyph glyph-name="pu" unicode="pu" horiz-adv-x="833" 
d="M473 -8q-70 15 -53 248q4 71 22 179q-37 -26 -81 -68q-4 -38 -19 -97q-31 -127 -93 -196q-61 -70 -116 -76q-24 -2 -31.5 19t-1 50t21.5 53q59 90 129 173q24 147 -8 156q-14 7 -38.5 -31t-58.5 -122.5t-68 -199.5q-7 -36 -12 -73q-7 -35 -23 -123q-11 -69 -8 -86
q2 -9 -7 -15.5t-26 -5.5q-65 4 -31 206l36 219l22 149q9 78 11 93q1 12 2.5 24t2 17t0.5 6q0 2 7 3t18.5 -1t23.5 -7t23.5 -17.5t17.5 -30.5q11 -29 -10 -136q46 107 93.5 155.5t91.5 34.5q51 -16 53 -100q44 41 95 75q17 15 36 5q48 -24 45 -94q-2 -24 -13 -80
q-7 -31 -8 -36q-19 -92 -16.5 -152t26.5 -67q21 -9 46.5 28t50.5 117t41 188l5 32q8 50 19.5 65.5t33.5 9.5q21 -4 37 -28q15 -22 8 -86q0 -2 -8 -49q-4 -22 -12 -58q-18 -90 -17 -148.5t20 -63.5q27 -7 59 28q30 33 47 86q2 5 8 -2q12 -10 0 -36q-28 -64 -76 -101
q-49 -39 -94 -25q-29 9 -40 46.5t-9 118.5q-33 -94 -77.5 -139.5t-96.5 -33.5zM243 224v2q-53 -64 -87 -119q-12 -18 -16 -39t0 -34t14 -12q25 3 49.5 57.5t39.5 144.5z" />
    <glyph glyph-name="py" unicode="py" horiz-adv-x="795" 
d="M473 -8q-70 15 -53 248q4 71 22 179q-37 -26 -81 -68q-4 -38 -19 -97q-31 -127 -93 -196q-61 -70 -116 -76q-24 -2 -31.5 19t-1 50t21.5 53q59 90 129 173q24 147 -8 156q-14 7 -38.5 -31t-58.5 -122.5t-68 -199.5q-7 -36 -12 -73q-7 -35 -23 -123q-11 -69 -8 -86
q2 -9 -7 -15.5t-26 -5.5q-65 4 -31 206l36 219l22 149q9 78 11 93q1 12 2.5 24t2 17t0.5 6q0 2 7 3t18.5 -1t23.5 -7t23.5 -17.5t17.5 -30.5q11 -29 -10 -136q46 107 93.5 155.5t91.5 34.5q51 -16 53 -100q44 41 95 75q17 15 36 5q48 -24 45 -94q-2 -24 -13 -80
q-7 -31 -8 -36q-19 -92 -16.5 -152t26.5 -67q21 -9 46 26.5t49 112.5t41 180q12 88 22 130q1 3 16 0t33 -13t26 -24q12 -20 9 -70q0 -4 -1 -11t-2.5 -16t-1.5 -11q0 -4 -3.5 -22l-4.5 -23q-32 -180 -67 -297q30 3 52 1q14 -2 21 -6.5t6 -12.5q-1 -7 -6 -9q-37 3 -81 -3
q-46 -152 -98.5 -226.5t-105.5 -54.5q-37 13 -31 80q4 66 51 128q35 48 108 80q17 73 30 155q-67 -164 -163 -145zM494 -254q23 -9 51 49q26 54 53 156q-48 -19 -78 -58t-38 -91q-8 -50 12 -56zM243 224v2q-53 -64 -87 -119q-12 -18 -16 -39t0 -34t14 -12q25 3 49.5 57.5
t39.5 144.5z" />
    <glyph glyph-name="tos" unicode="tos" horiz-adv-x="914" 
d="M9 431q-2 32 13 46t55 15q14 54 30 98q15 42 59 28q24 -7 28 -19v-3q-11 -31 -29 -104h198q70 0 65 -20q-2 -5 -8 -10q-15 -12 -22 -19q-23 -23 -43 -72.5t-25 -105.5q-11 -98 10.5 -156.5t72.5 -58.5q53 0 89 85q-49 5 -85 43t-39 92q-3 72 41 130q44 57 95 42
q77 -21 60 -185q-8 -51 -18 -84q42 11 78.5 70.5t54.5 143.5l-11 6q-40 14 -51 39t15 47q70 61 102 51q25 -8 11 -61l-9 -39q34 -15 65 -49.5t49 -78.5q57 43 128 78q21 10 22 -6q0 -16 -15 -24q-59 -28 -126 -76q11 -38 6 -70q-7 -85 -69 -145q-61 -61 -118 -61
q-38 0 -42 39q-5 40 31 86q49 63 97 107q-10 77 -52 130q-76 -195 -180 -222q-28 -64 -74 -101t-103 -37q-63 0 -103 58q-41 60 -28 180q10 111 65 179q-19 1 -71 3q-14 0 -31 0.5t-28.5 1t-18.5 0.5q-13 -74 -22 -144q-10 -95 -4 -171q4 -75 25 -81q28 -7 57 22q14 16 24 9
q6 -4 0 -13q-60 -86 -136 -68q-38 8 -55 78.5t-6 185.5q7 92 28 187q-21 0 -38 -3q-13 -3 -14 7zM450 306q2 -110 65 -131q10 29 13 71q12 143 -25 164q-14 8 -26.5 -2.5t-19.5 -37.5t-7 -64zM774 139q4 30 3 58q-29 -27 -67 -73q-20 -28 -19 -57t21 -29q22 0 39 27t23 74z
" />
    <glyph glyph-name="toss" unicode="toss" horiz-adv-x="1172" 
d="M9 431q-2 32 13 46t55 15q14 54 30 98q15 42 59 28q24 -7 28 -19v-3q-11 -31 -29 -104h198q70 0 65 -20q-2 -5 -8 -10q-15 -12 -22 -19l-1 -1l-2 -2q-23 -25 -41.5 -72.5t-23.5 -102.5q-11 -98 10.5 -156.5t72.5 -58.5q53 0 89 85q-49 5 -85 43t-39 92q-3 72 41 130
q44 57 95 42q77 -21 60 -185q-8 -51 -18 -84q42 11 78.5 70.5t54.5 143.5l-11 6q-40 14 -51 39t15 47q70 61 102 51q25 -8 11 -61l-10 -39q36 -16 68.5 -53.5t48.5 -82.5q60 55 83 103q-8 3 -9 4q-40 14 -50.5 39t15.5 47q71 61 102 51q25 -8 11 -61l-12 -39
q34 -16 66.5 -53.5t49.5 -82.5q59 43 128 78q21 10 22 -6q0 -16 -14 -24q-58 -27 -127 -76q10 -36 7 -70q-7 -85 -69 -145q-61 -61 -119 -61q-38 0 -42 39q-5 40 31 86q46 60 97 107q-11 89 -57 143q-32 -52 -104 -108q7 -27 4 -61q-7 -85 -69 -145q-61 -61 -118 -61
q-38 0 -42 39q-5 40 31 86t98 96q-9 88 -53 141q-76 -195 -180 -222q-28 -64 -74 -101t-103 -37q-63 0 -103 58q-41 60 -28 180q10 111 65 179q-19 1 -71 3q-14 0 -31 0.5t-28.5 1t-18.5 0.5q-13 -74 -22 -144q-10 -95 -4 -171q4 -75 25 -81q28 -7 57 22q14 16 24 9
q6 -4 0 -13q-60 -86 -136 -68q-38 8 -55 78.5t-6 185.5q7 92 28 187q-21 0 -38 -3q-13 -3 -14 7zM450 306q2 -110 65 -131q10 29 13 71q12 143 -25 164q-14 8 -26.5 -2.5t-19.5 -37.5t-7 -64zM1033 139q3 36 2 58q-42 -40 -66 -73q-14 -18 -18 -38.5t1.5 -34t17.5 -13.5
q22 0 39.5 27t23.5 74zM774 139q4 35 3 51q-47 -39 -67 -66q-20 -28 -19 -57t21 -29q22 0 39 27t23 74z" />
    <glyph glyph-name="odieresiss" unicode="&#xf6;s" horiz-adv-x="683" 
d="M326 173q40 10 78 71q36 60 54 143l-11 6q-40 14 -50.5 39t15.5 47q70 61 102 51q25 -8 11 -61q-2 -9 -4.5 -19t-4 -14.5t-1.5 -5.5q35 -16 66.5 -50.5t48.5 -77.5q57 43 128 78q20 10 21 -6q0 -16 -14 -24q-58 -27 -127 -76q10 -32 7 -70q-7 -85 -69 -145
q-61 -61 -118 -61q-39 0 -43 39t31 86q46 60 97 107q-11 81 -52 130q-73 -195 -179 -222q-28 -64 -74.5 -101t-103.5 -37q-62 0 -102 58q-41 59 -29 180q13 135 86 202q72 65 147 47q26 -6 11 -18q-20 -14 -45 -11q-29 4 -61 -50q-31 -54 -42 -143q-10 -99 11 -157t72 -58
q53 0 89 85q-49 5 -84.5 43t-38.5 92q-4 72 40 130q44 57 95 42q78 -21 60 -185q-5 -46 -17 -84zM220 306q2 -110 65 -131q9 37 13 71q11 143 -25 164q-14 8 -26.5 -2.5t-19.5 -37.5t-7 -64zM544 139q3 36 2 58q-42 -40 -66 -73q-14 -18 -18 -38.5t1.5 -34t18.5 -13.5
q21 0 38.5 27.5t23.5 73.5zM346 590q0 -27 -19.5 -46t-47.5 -19q-27 0 -46 19t-19 46q0 28 19 47.5t46 19.5q28 0 47.5 -19.5t19.5 -47.5zM181 590q0 -27 -19.5 -46t-46.5 -19t-46.5 19t-19.5 46q0 28 19.5 47.5t46.5 19.5t46.5 -19.5t19.5 -47.5z" />
    <glyph glyph-name="odieresisss" unicode="&#xf6;ss" horiz-adv-x="942" 
d="M326 173q40 10 78 71q36 60 54 143l-11 6q-40 14 -50.5 39t15.5 47q70 61 102 51q25 -8 11 -61l-11 -39q37 -16 69.5 -53.5t48.5 -82.5q57 52 82 103q-5 1 -8 4q-40 14 -51 39t15 47q70 61 102 51q25 -8 11 -61q-5 -19 -12 -39q35 -16 67 -53t50 -83q67 48 128 78
q21 10 22 -6q0 -16 -15 -24q-59 -28 -126 -76q9 -44 6 -70q-7 -85 -69 -145q-61 -61 -118 -61q-38 0 -42 39q-5 40 31 86q49 63 97 107q-12 90 -57 143q-29 -47 -104 -108q6 -21 4 -61q-7 -85 -69 -145q-61 -61 -118 -61q-39 0 -43 39t31 86q36 45 99 96q-10 91 -55 142
q-72 -193 -178 -223q-28 -64 -74.5 -101t-103.5 -37q-62 0 -102 58q-41 59 -29 180q13 135 86 202q72 65 147 47q26 -6 11 -18q-20 -14 -45 -11q-29 4 -61 -50q-31 -54 -42 -143q-10 -99 11 -157t72 -58q53 0 89 85q-49 5 -84.5 43t-38.5 92q-4 72 40 130q44 57 95 42
q78 -21 60 -185q-5 -46 -17 -84zM220 306q1 -108 65 -132q9 39 13 72q11 143 -25 164q-14 8 -26.5 -2.5t-20 -37.5t-6.5 -64zM802 139q4 30 3 58q-29 -27 -67 -73q-20 -28 -19 -57t21 -29q22 0 39 27t23 74zM544 139q3 31 2 51q-45 -38 -66 -66q-14 -18 -18 -38.5t1.5 -34
t18.5 -13.5q21 0 38.5 27.5t23.5 73.5zM346 590q0 -27 -19.5 -46t-47.5 -19q-27 0 -46 19t-19 46q0 28 19 47.5t46 19.5q28 0 47.5 -19.5t19.5 -47.5zM181 590q0 -27 -19.5 -46t-46.5 -19t-46.5 19t-19.5 46q0 28 19.5 47.5t46.5 19.5t46.5 -19.5t19.5 -47.5z" />
    <glyph glyph-name="lb" unicode="lb" horiz-adv-x="598" 
d="M510 481q41 -13 55 -77t-7 -158q-12 -49 -30 -83h4q45 0 86.5 39t67.5 107q2 5 9 -1q11 -8 0 -34q-27 -68 -76 -106.5t-110 -40.5q-43 -73 -104 -108q-60 -35 -106 -26q-56 12 -70 117q-32 -58 -79 -90t-92 -21q-70 16 -52 241q12 149 44 279q-31 -3 -54 -1q-28 3 -27 21
q0 8 5 8q40 -3 84 3q34 129 84 200q48 69 101 48q25 -10 33.5 -36t-2.5 -63.5t-42 -76.5q-33 -42 -90 -71q-30 -141 -40 -273q-26 -219 12 -228q28 -9 62 25q34 33 50 83q0 47 3 74q14 155 53 285q-18 -2 -30 1q-28 3 -28 19q0 10 6 10q29 -3 62 0q41 128 95 197
q54 68 112 46q39 -16 39.5 -60t-43.5 -108q-41 -54 -120 -84q-35 -134 -50 -268q-25 -240 23 -248q25 -4 49.5 26.5t44.5 94.5q-66 35 -76 135q-6 47 10 100t52.5 85.5t81.5 17.5zM406 298q4 -79 46 -111q2 11 6 29q0 2 1.5 9.5t2.5 13.5q3 18 7.5 42.5t5.5 31.5q3 21 6 53
q4 53 -15 59q-22 7 -42 -32q-21 -40 -18 -95zM483 738q-21 9 -47.5 -38t-51.5 -132q58 23 89 63q20 26 26.5 49.5t1.5 38t-18 19.5zM227 746q-11 4 -24 -15.5t-26.5 -58t-26.5 -91.5q37 21 57 49q30 41 35.5 76t-15.5 40z" />
    <glyph glyph-name="bl" unicode="bl" horiz-adv-x="583" 
d="M286 481q41 -13 55 -77t-7 -158q-9 -39 -31 -84h4q37 0 77 48l2 30q12 150 45 291q-63 -12 -118 -5q-28 3 -27 21q0 8 5 8q75 -9 147 3q37 142 85 217q48 76 101 55q24 -8 33 -41t-2 -78t-42 -81q-33 -40 -90 -69q-31 -152 -41 -283q-22 -219 12 -228q30 -9 65 27
q33 34 50 87q1 5 8 -2q12 -10 0 -36q-29 -64 -78 -101q-51 -38 -100 -26q-62 14 -57 175q-48 -48 -98 -48q-43 -73 -104 -108q-59 -34 -105 -25q-41 7 -60 68t-10 171q14 155 53 285q-18 -2 -30 1q-28 3 -28 19q0 10 6 10q29 -3 62 0q41 128 95 197q54 68 112 46
q39 -16 39.5 -60t-43.5 -108q-41 -54 -120 -84q-35 -134 -50 -268q-25 -240 23 -248q25 -4 50 26t43 94q-64 34 -75 136q-6 47 10 100t52.5 85.5t81.5 17.5zM182 298q4 -78 46 -112q0 1 2 13t4 17q0 2 1.5 9.5t2.5 13.5l7.5 42t5.5 32q3 21 6 53q4 53 -15 59q-22 7 -42 -32
q-21 -40 -18 -95zM259 738q-21 9 -47.5 -38t-51.5 -132q58 23 89 63q20 26 26.5 49.5t1.5 38t-18 19.5zM608 778q-11 4 -24.5 -19.5t-27.5 -67t-27 -102.5q33 17 59 49q30 40 36 87q5 47 -16 53z" />
    <glyph glyph-name="bb" unicode="bb" horiz-adv-x="781" 
d="M343 294q15 12 71 64q49 278 147 393q52 61 106 39q36 -14 35 -60.5t-39 -114.5q-55 -94 -148 -197q-15 -83 -22 -147q-25 -241 23 -249q26 -3 51 28t43 96q-49 31 -60 133q-4 52 10 102.5t46 81.5q34 32 80 19q36 -12 50 -77q12 -67 -10 -159q-14 -49 -30 -82h4
q45 0 86.5 39t67.5 107q1 4 8 -1q12 -7 1 -35q-27 -68 -76 -106t-110 -40q-43 -73 -104 -108q-60 -35 -106 -26q-41 7 -60 68t-10 171q0 6 8 73q-42 -38 -71 -60q-35 -134 -115 -199q-81 -66 -144 -53q-41 7 -60 68t-10 171q14 153 53 285q-16 -2 -30 0q-29 3 -28 21
q1 9 6 9q29 -3 62 0q41 129 95 196q54 68 112 46q39 -15 39.5 -59.5t-43.5 -107.5q-42 -54 -120 -85q-35 -131 -50 -267q-25 -241 23 -249q31 -4 60 41t47 139q-36 3 -60.5 32t-28.5 75q-7 73 38 135q43 61 103 37q37 -15 54 -65t6 -122zM651 739q-19 7 -41.5 -28.5
t-43 -95.5t-38.5 -138q78 90 103 139q55 109 20 123zM182 328q4 -87 55 -90q29 177 -3 188q-24 7 -39.5 -19.5t-12.5 -78.5zM259 739q-21 9 -47.5 -38t-51.5 -132q58 23 89 63q20 26 26.5 49.5t1.5 38t-18 19.5zM590 298q4 -74 31 -105l5 24q35 200 7 209q-20 7 -33 -31.5
t-10 -96.5z" />
    <glyph glyph-name="bbi" unicode="bbi" horiz-adv-x="976" 
d="M839 1q-34 10 -44 61t-1 169q6 73 20 168q1 8 6 34q-47 -31 -83 -51q8 -59 -11 -136q-17 -68 -49.5 -122.5t-71.5 -83.5q-79 -59 -138 -46q-41 7 -60 68t-10 171q0 6 8 73q-42 -38 -71 -60q-35 -134 -115 -199q-81 -66 -144 -53q-41 7 -60 68t-10 171q14 153 53 285
q-16 -2 -30 0q-29 3 -28 21q1 9 6 9q29 -3 62 0q41 129 95 196q54 68 112 46q39 -15 39.5 -59.5t-43.5 -107.5q-42 -54 -120 -85q-35 -131 -50 -267q-25 -241 23 -249q31 -4 60 41t47 139q-36 3 -60.5 32t-28.5 75q-7 73 38 135q43 61 104 37q37 -15 53.5 -65t5.5 -123
q32 25 70 64q16 91 41.5 174t58 148.5t73 96.5t81.5 14q36 -14 35.5 -60.5t-39.5 -114.5q-52 -90 -148 -197q-15 -83 -22 -147q-25 -241 23 -249q32 -4 62 44.5t48 150.5q14 83 15 124q-43 -10 -67 3q-40 22 -23 67q14 41 60 59q24 9 51 6q50 -6 69 -67q51 25 107 61l4 3
q10 6 24 1q25 -6 37 -28q19 -31 8 -96q-4 -25 -15 -73q-1 -6 -3 -13.5t-2 -9.5q-17 -90 -16 -144t20 -59q27 -7 59 28t48 86q0 3 7 -1q13 -10 1 -38q-29 -65 -77 -101q-50 -38 -94 -24zM960 591q0 -27 -19.5 -46t-46.5 -19t-46.5 19t-19.5 46q0 28 19.5 47.5t46.5 19.5
t46.5 -19.5t19.5 -47.5zM651 739q-29 9 -63 -67t-60 -196q74 83 103 140q56 110 20 123zM182 328q4 -87 55 -90q29 177 -3 188q-24 7 -39.5 -19.5t-12.5 -78.5zM259 739q-21 9 -47.5 -38t-51.5 -132q58 23 89 63q20 26 26.5 49.5t1.5 38t-18 19.5zM597 372q11 -9 42 1
q-3 30 -20 38q-20 8 -29 -9q-10 -16 7 -30z" />
    <glyph glyph-name="bs" unicode="bs" horiz-adv-x="664" 
d="M304 163q45 1 84 63t43 165l-3 2q-40 14 -50.5 39t15.5 47q102 87 114 31q3 -17 -1 -41l-8 -41q74 -37 112 -126q63 46 128 78q21 10 22 -6q0 -16 -14 -24q-58 -27 -127 -76q10 -32 7 -70q-7 -85 -69 -145q-61 -61 -119 -61q-38 0 -42 39q-5 40 31 86q46 60 97 107
q-9 73 -45 121q-30 -104 -79.5 -161.5t-113.5 -62.5q-45 -73 -105 -108t-106 -26q-41 7 -60 68t-10 171q14 155 53 285q-18 -2 -30 1q-28 3 -28 19q0 10 6 10q29 -3 62 0q41 128 95 197q54 68 112 46q39 -16 39.5 -60t-43.5 -108q-41 -54 -120 -84q-35 -134 -50 -268
q-25 -240 23 -248q26 -4 51 27t43 97q-66 41 -76 132q-6 47 10 100t52.5 85.5t81.5 17.5q41 -13 55 -77t-7 -158q-12 -49 -30 -83zM182 298q5 -65 48 -104l4 22q0 2 1.5 9.5t2.5 13.5l7.5 42t5.5 32q3 21 6 53q4 53 -15 59q-22 7 -42 -32q-21 -40 -18 -95zM259 738
q-21 9 -47.5 -38t-51.5 -132q58 23 89 63q20 26 26.5 49.5t1.5 38t-18 19.5zM525 139q3 36 2 58q-42 -40 -66 -73q-14 -18 -18 -38.5t1.5 -34t17.5 -13.5q22 0 39.5 27t23.5 74z" />
    <glyph glyph-name="lbs" unicode="lbs" horiz-adv-x="888" 
d="M6 240q12 149 44 279q-31 -3 -54 -1q-28 3 -27 21q0 8 5 8q40 -3 84 3q34 129 84 200q48 69 101 48q25 -10 33.5 -36t-2.5 -63.5t-42 -76.5q-33 -42 -90 -71q-30 -141 -40 -273q-26 -219 12 -228q28 -9 62 25q34 33 50 83q0 47 3 74q10 133 50 274q-28 0 -35 1
q-29 3 -28 21q1 9 6 9q31 -4 67 0q41 132 96 204q54 72 114 49q37 -13 36 -65q-2 -53 -48 -113q-38 -52 -114 -82q-33 -128 -48 -260q-25 -240 23 -248q26 -4 51 27t43 97q-66 41 -76 132q-6 47 10 100t52.5 85.5t81.5 17.5q41 -13 55 -77t-7 -158q-12 -49 -30 -83
q45 1 84 63t43 165l-3 2q-40 14 -50.5 39t15.5 47q102 87 114 31q3 -17 -1 -41l-8 -41q74 -37 112 -126q63 46 128 78q21 10 22 -6q0 -16 -14 -24q-58 -27 -127 -76q10 -32 7 -70q-7 -85 -69 -145q-61 -61 -119 -61q-38 0 -42 39q-5 40 31 86q46 60 97 107q-9 73 -45 121
q-30 -104 -79.5 -161.5t-113.5 -62.5q-45 -73 -105 -108t-106 -26q-56 12 -70 117q-32 -58 -79 -90t-92 -21q-70 16 -52 241zM406 298q5 -65 48 -104l4 22q0 2 1.5 9.5t2.5 13.5q3 18 7.5 42.5t5.5 31.5q3 21 6 53q4 53 -15 59q-22 7 -42 -32q-21 -40 -18 -95zM483 738
q-23 9 -49 -39.5t-52 -138.5q53 21 83 61q29 39 34.5 75.5t-16.5 41.5zM749 139q3 36 2 58q-42 -40 -66 -73q-14 -18 -18 -38.5t1.5 -34t17.5 -13.5q22 0 39.5 27t23.5 74zM227 746q-11 4 -24 -15.5t-26.5 -58t-26.5 -91.5q37 21 57 49q30 41 35.5 76t-15.5 40z" />
    <glyph glyph-name="bbs" unicode="bbs" horiz-adv-x="1056" 
d="M343 294l70 63q21 125 55.5 228t85.5 164.5t105 40.5q80 -34 4 -169q-69 -121 -150 -211q-8 -42 -20 -140q-25 -240 23 -248q25 -4 50 26.5t44 96.5q-57 36 -68 125q-4 56 12 108.5t51 84.5q36 33 82 18q39 -12 50.5 -76.5t-11.5 -158.5q-12 -49 -30 -83q45 1 84 63
t43 165l-3 2q-40 14 -50.5 39t15.5 47q102 87 114 31q3 -17 -1 -41l-8 -41q74 -37 112 -126q63 46 128 78q21 10 22 -6q0 -16 -14 -24q-58 -27 -127 -76q10 -32 7 -70q-7 -85 -69 -145q-61 -61 -119 -61q-38 0 -42 39q-5 40 31 86q46 60 97 107q-9 73 -45 121
q-30 -104 -79.5 -161.5t-113.5 -62.5q-45 -73 -105 -108t-106 -26q-41 7 -60 68t-10 171q0 7 8 74q-42 -38 -71 -60q-35 -134 -115 -199q-81 -66 -144 -53q-41 7 -60 68t-10 171q14 153 53 285q-16 -2 -30 0q-29 3 -28 21q1 9 6 9q29 -3 62 0q41 129 95 196q54 68 112 46
q39 -15 39.5 -59.5t-43.5 -107.5q-42 -54 -120 -85q-35 -131 -50 -267q-25 -241 23 -249q31 -4 60 41t47 139q-36 3 -60.5 32t-28.5 75q-7 73 38 135q43 61 103 37q37 -15 54 -65t6 -122zM643 738q-19 8 -41.5 -29.5t-42 -100t-35.5 -141.5q74 89 108 157q50 99 11 114z
M182 328q4 -87 55 -90q29 177 -3 188q-24 7 -39.5 -19.5t-12.5 -78.5zM582 290q4 -61 40 -97l4 23q13 74 20 140q4 55 -14 61q-20 7 -37 -32q-16 -38 -13 -95zM259 739q-21 9 -47.5 -38t-51.5 -132q58 23 89 63q20 26 26.5 49.5t1.5 38t-18 19.5zM917 139q3 36 2 58
q-42 -40 -66 -73q-14 -18 -18 -38.5t1.5 -34t17.5 -13.5q22 0 39.5 27t23.5 74z" />
    <glyph glyph-name="bz" unicode="b&#x7a;" horiz-adv-x="794" 
d="M715 58q30 -2 59.5 28t44.5 78q1 5 8 -2q12 -10 0 -36q-31 -71 -78 -104t-100 -22q-60 12 -104 57q-53 -59 -91 -59q-26 -2 -42 20.5t-7.5 56t45.5 56.5q54 35 123 0q36 58 57 98q53 98 44 139q-5 17 -20 13q-87 -24 -171 -15q-31 -110 -82.5 -172t-114.5 -67
q-45 -73 -105 -108t-106 -26q-41 7 -60 68t-10 171q14 155 53 285q-18 -2 -30 1q-28 3 -28 19q0 10 6 10q29 -3 62 0q41 128 95 197q54 68 112 46q39 -16 39.5 -60t-43.5 -108q-41 -54 -120 -84q-35 -134 -50 -268q-25 -240 23 -248q26 -4 51 27t43 97q-66 41 -76 132
q-6 47 10 100t52.5 85.5t81.5 17.5q41 -13 55 -77t-7 -158q-12 -49 -30 -83q44 2 82 59q38 58 44 156l-2 2q-39 18 -49.5 47.5t13.5 51.5q74 62 104 50q22 -7 10 -60l-7 -27q32 5 110 34q81 29 119 22q90 -16 -64 -272q-45 -73 -70 -107q2 -1 27.5 -17.5t34.5 -21.5
q37 -21 59 -22zM182 298q5 -65 48 -104l4 22q0 2 1.5 9.5t2.5 13.5l7.5 42t5.5 32q3 21 6 53q4 53 -15 59q-22 7 -42 -32q-21 -40 -18 -95zM259 738q-21 9 -47.5 -38t-51.5 -132q58 23 89 63q20 26 26.5 49.5t1.5 38t-18 19.5zM478 38q22 0 52 35q-25 28 -40 28
q-30 0 -33 -28q-4 -24 13 -33q4 -2 8 -2z" />
    <glyph glyph-name="gg" unicode="gg" horiz-adv-x="771" 
d="M10 240q27 140 87 205q59 65 116 42q35 -14 51 -70q7 48 14 75q1 3 15.5 0t32.5 -13.5t27 -23.5q16 -30 7 -85q-2 -13 -12 -68q-30 -177 -70 -317q73 4 118 -21q27 -16 17 -32q-4 -6 -7 -3q-62 32 -136 29q-45 -149 -96 -229q-52 -78 -104 -59q-24 7 -30 46t9 89.5
t45 88.5q35 46 101 72q18 72 33 172q-30 -79 -71 -117.5t-88 -28.5q-41 9 -59 73t0 175zM394 240q27 140 87 205q59 65 116 42q35 -14 51 -70q7 48 14 75q1 3 15.5 0t32.5 -13.5t27 -23.5q16 -30 7 -85q-2 -13 -12 -68q-27 -158 -66 -297q29 3 51 1q15 -2 22 -6.5t6 -12.5
q-1 -7 -6 -9q-39 3 -82 -3q-45 -150 -97 -225q-53 -77 -106 -56q-37 13 -32 80q4 65 52 128q35 48 108 80q16 69 30 156q-30 -79 -71 -117.5t-88 -28.5q-41 9 -59 73t0 175zM124 43q19 -5 40.5 25t43 94t38.5 154q-3 104 -44 119q-27 11 -53 -36t-41 -137
q-16 -93 -12 -152.5t28 -66.5zM508 43q19 -5 40.5 25t43 94t38.5 154q-3 104 -44 119q-27 11 -53 -36t-41 -137q-16 -93 -12 -152.5t28 -66.5zM86 -278q22 -7 50.5 54.5t52.5 162.5q-48 -20 -73 -55q-31 -38 -40 -98q-10 -58 10 -64zM470 -254q23 -9 51 49q26 54 53 156
q-48 -19 -78 -58t-38 -91q-8 -50 12 -56z" />
    <glyph glyph-name="bo" unicode="bo" horiz-adv-x="794" 
d="M744 257q-4 -44 -18 -85q35 8 69 46.5t57 98.5q3 5 10 -1q10 -9 0 -34q-23 -55 -63 -93t-86 -50q-28 -64 -74.5 -101.5t-103.5 -37.5q-62 0 -102 58q-41 59 -29 180q9 74 36 132q-65 -24 -93 -32q0 -40 -13 -92q-35 -134 -115 -199q-81 -66 -144 -53q-41 7 -60 68
t-10 171q13 151 54 285q-17 -2 -31 0q-29 3 -28 21q1 9 6 9q29 -3 62 0q40 127 95 197q54 67 112 45q40 -16 40 -59.5t-44 -107.5q-40 -53 -120 -85q-35 -131 -50 -267q-25 -240 23 -249q32 -4 62 44.5t48 150.5l18 107q-49 1 -70 27q-16 20 -16 47.5t15 49.5t41.5 34
t64.5 0q52 -18 59 -112q52 14 120 41q35 46 81 66t90 10q7 -2 11.5 -8.5t0.5 -12.5q-3 -7 -14 -12l-91 -41q-33 -57 -44 -148q-10 -99 11 -157t72 -58q53 0 89 85q-49 3 -84.5 41.5t-38.5 93.5q-4 72 40 130q44 57 95 42q78 -21 60 -185zM621 306q1 -45 19.5 -81t46.5 -49
q7 30 12 70q11 143 -25 164q-14 8 -26.5 -2.5t-19.5 -37.5t-7 -64zM259 739q-21 9 -47.5 -37.5t-51.5 -132.5q58 23 89 63q20 26 27 49.5t1.5 38t-18.5 19.5zM216 362q12 -10 39 -8q8 65 -13 72q-20 4 -33 -21q-14 -26 7 -43z" />
    <glyph glyph-name="boo" unicode="boo" horiz-adv-x="1189" 
d="M287 482q52 -18 59 -112q66 20 121 43q35 45 79.5 64t88.5 10h2l1 -1h1q12 -3 11.5 -13.5t-15.5 -18.5l-91 -41q-33 -57 -44 -148q-10 -99 11 -157t72 -58q45 0 78 60q32 59 38 136q6 69 -1 108q-34 0 -50 6q-38 14 -36 43q1 25 32 33q17 4 40 -2q37 -10 51 -50
q44 -2 127 21q55 73 125 81q29 4 36 -9t-11 -31q-27 -27 -81 -48q-29 -59 -36 -133q-11 -98 10.5 -156.5t72.5 -58.5q32 0 59 33.5t42 87.5q-37 4 -73 40q-35 35 -38 85q-4 74 29 118q33 41 82 28q77 -21 60 -185q-1 -11 -8 -48q80 14 116 108q2 5 9 -1q11 -8 0 -34
q-19 -44 -55.5 -73.5t-80.5 -36.5q-25 -78 -75.5 -125t-114.5 -47q-63 0 -103 58q-41 60 -28 180q8 76 41 134q-46 -10 -97 -15q7 -43 1 -100q-11 -105 -67 -181q-57 -76 -142 -76q-62 0 -102 58q-41 59 -29 180q9 74 36 132q-65 -24 -93 -32q0 -40 -13 -92
q-35 -134 -115 -199q-81 -66 -144 -53q-41 7 -60 68t-10 171q13 151 54 285q-17 -2 -31 0q-29 3 -28 21q1 9 6 9q29 -3 62 0q40 127 95 197q54 67 112 45q40 -16 40 -59.5t-44 -107.5q-40 -53 -120 -85q-35 -131 -50 -267q-25 -240 23 -249q32 -4 62 44.5t48 150.5l18 107
q-49 1 -70 27q-16 20 -16 47.5t15 49.5t41.5 34t64.5 0zM1015 314q1 -39 20 -69t53 -36l5 37q12 143 -25 164q-15 8 -27 -0.5t-19 -33.5t-7 -62zM259 739q-21 9 -47.5 -37.5t-51.5 -132.5q58 23 89 63q20 26 27 49.5t1.5 38t-18.5 19.5zM216 362q12 -10 39 -8q8 65 -13 72
q-20 4 -33 -21q-14 -26 7 -43z" />
    <glyph glyph-name="boi" unicode="boi" horiz-adv-x="990" 
d="M744 257q-11 -105 -67 -181q-57 -76 -142 -76q-62 0 -102 58q-41 59 -29 180q9 81 39 137q-55 -23 -96 -33q0 -47 -13 -96q-35 -134 -115 -199q-81 -66 -144 -53q-41 7 -60 68t-10 171q13 151 54 285q-17 -2 -31 0q-29 3 -28 21q1 9 6 9q29 -3 62 0q40 127 95 197
q54 67 112 45q40 -16 40 -59.5t-44 -107.5q-40 -53 -120 -85q-35 -131 -50 -267q-25 -240 23 -249q32 -4 62 44.5t48 150.5l18 108q-47 0 -70 26q-16 20 -16 47.5t15 49.5t41.5 34t64.5 0q50 -18 59 -109q50 16 124 47q36 45 80.5 65t86.5 10q23 -5 13 -16q0 -13 -15 -17
l-88 -41q-36 -57 -47 -156q-10 -99 11 -157t72 -58q45 0 78 60q32 59 38 136q5 65 -8 110q-74 -24 -100 -6q-28 19 -9 49q19 31 64 33q13 0 25 -3q26 -6 44 -27q111 44 143 63l5 1q9 2 20 0q23 -7 36 -28q16 -24 10 -73q-2 -12 -13 -69l-9 -43q-37 -190 4 -203q26 -7 58 28
t48 86q1 5 8 -2q12 -10 0 -36q-28 -63 -76 -101q-49 -39 -94 -25q-35 11 -44 61q-10 46 -2 169q5 55 21 160q1 5 3 18t2 14q-44 -26 -101 -51q17 -46 10 -114zM975 590q0 -27 -19 -46t-47 -19q-27 0 -46.5 19t-19.5 46q0 28 19.5 47.5t46.5 19.5q28 0 47 -19.5t19 -47.5z
M259 739q-21 9 -47.5 -37.5t-51.5 -132.5q58 23 89 63q20 26 27 49.5t1.5 38t-18.5 19.5zM216 362q11 -8 39 -8q6 65 -13 72q-20 4 -33 -21q-14 -26 7 -43z" />
    <glyph glyph-name="gj" unicode="gj" horiz-adv-x="594" 
d="M10 240q27 140 87 205q59 65 116 42q35 -14 51 -70q7 48 14 75q1 3 15.5 0t32.5 -13.5t27 -23.5q16 -30 7 -85q-2 -13 -12 -68q-24 -140 -57 -254q23 7 51 5q15 -2 22 -7t6 -13q-2 -8 -5 -9q-38 3 -85 -13q-48 -159 -109 -251q-60 -88 -117 -66q-24 8 -31.5 41.5t6 80
t45.5 86.5q47 65 128 109q19 70 26 127q-30 -79 -71 -117.5t-88 -28.5q-41 9 -59 73t0 175zM421 145q13 86 16 124q7 73 15 123q27 140 91 60q10 -11 11 -30q2 -23 -1 -41q-1 -9 -3.5 -22t-4.5 -28q-4 -18 -6 -29q-30 -176 -65 -296q27 3 50 0q15 -2 22 -6.5t6 -12.5
q-2 -7 -6 -9q-38 3 -80 -3q-44 -152 -94.5 -226.5t-102.5 -54.5q-37 13 -31 80q4 66 51 128q38 50 101 78q18 81 31 165zM124 43q19 -5 40.5 25t43 94t38.5 154q-3 104 -44 119q-27 11 -53 -36t-41 -137q-16 -93 -12 -152.5t28 -66.5zM602 590q0 -27 -19 -46t-47 -19
q-27 0 -46.5 19t-19.5 46q0 28 19.5 47.5t46.5 19.5q28 0 47 -19.5t19 -47.5zM70 -254q24 -9 59 56q33 64 63 170q-64 -36 -96 -79q-30 -39 -38 -91q-8 -50 12 -56zM285 -254q16 -6 33.5 20.5t33 72.5t30.5 111q-42 -20 -71 -57q-31 -41 -38 -90t12 -57z" />
    <glyph glyph-name="tl" unicode="tl" horiz-adv-x="470" 
d="M270 240q12 167 52 312q-32 0 -62 6q-28 4 -27 21q1 7 5 8q54 -9 92 -9q36 121 82 180.5t95 39.5q40 -16 40.5 -61.5t-43.5 -106.5q-34 -43 -94 -63q-34 -143 -44 -289q-26 -219 12 -228q29 -9 64 27q33 34 50 87q3 5 9 -2q10 -10 -1 -36q-29 -64 -78 -101
q-51 -38 -100 -26q-50 11 -56 118q-28 -59 -81 -93t-99 -24q-74 15 -53 240q7 94 27 184q-25 3 -37 0q-13 -3 -14 7q-2 32 13 46.5t55 14.5q14 54 30 98q15 42 59 28q24 -7 28 -19v-3q-10 -29 -29 -105q9 0 26.5 1t29.5 1.5t16 0.5q0 -3 1.5 -15.5t-6.5 -33t-24 -31.5
q-15 -10 -61 -5q-15 -89 -19 -131q-22 -217 13 -228q31 -8 68 28q38 35 55 88q1 1 2 1q0 41 4 73zM491 746q-10 4 -22.5 -14t-25.5 -53.5t-26 -85.5q38 14 62 45q29 39 32 71t-20 37z" />
    <glyph glyph-name="or" unicode="or" horiz-adv-x="738" 
d="M506 477l-4 -38q18 0 57 2.5t44 2.5q18 2 36 0q34 -1 39 -33q1 -15 -11 -79q-5 -24 -13 -70q-31 -202 4 -212q27 -7 59 28q30 33 47 86q2 5 8 -2q12 -10 0 -36q-27 -62 -75 -99q-49 -37 -95 -27q-72 15 -44 240q16 140 15 144q0 3 -2 3q-14 1 -45 0q-14 -1 -34 -1
q-23 -99 -71.5 -163t-107.5 -82q-29 -66 -75 -103.5t-104 -37.5q-62 0 -102 58q-41 59 -29 180q13 135 86 202q72 65 147 47q26 -6 11 -18q-20 -14 -45 -11q-29 4 -61 -50q-31 -54 -42 -143q-10 -99 11 -157t72 -58q53 0 89 85q-47 1 -85 41q-37 37 -40 94q-4 72 41 130
q45 57 96 42q78 -21 60 -185q-5 -43 -17 -82q40 15 75 75q35 61 44 143q-38 13 -49.5 38.5t6.5 55.5q18 35 45.5 51.5t46 1t12.5 -62.5zM222 306q-3 -47 15 -84t48 -48q9 39 13 72q11 143 -25 164q-29 16 -43 -42q-6 -25 -8 -62z" />
    <glyph glyph-name="pp" unicode="pp" horiz-adv-x="815" 
d="M410 -223q-65 4 -31 206q48 276 70 471q-40 -20 -86 -66q0 -56 -21 -134q-31 -127 -93 -196q-61 -70 -116 -76q-37 -4 -31 47q4 37 25 77q53 100 130 204q15 112 -14 123q-14 7 -38.5 -31t-58.5 -122.5t-68 -199.5q-7 -36 -12 -73q-7 -35 -23 -123q-11 -69 -8 -86
q2 -9 -7 -15.5t-26 -5.5q-65 4 -31 206l36 219l22 149q9 78 11 93q1 12 2.5 24t2 17t0.5 6q0 2 7 3t18.5 -1t23.5 -7t23.5 -17.5t17.5 -30.5q11 -29 -10 -136q46 107 93.5 155.5t91.5 34.5q40 -13 50 -64q47 46 94 64h2l2 1q20 6 46 -8t39 -47q11 -29 -10 -136
q46 107 93.5 155.5t91.5 34.5q76 -24 42 -198q60 36 114 62q20 10 21 -6q0 -16 -15 -24q-71 -35 -130 -72q-31 -127 -93 -196q-61 -70 -116 -76q-24 -2 -33 18.5t-2 48.5t24 50q46 61 120 119l1 6q34 199 0 209q-14 7 -38.5 -31.5t-58 -122.5t-68.5 -199q-7 -36 -12 -73
q-7 -35 -23 -123q-11 -69 -8 -86q2 -9 -7 -15.5t-26 -5.5zM243 224l4 26q-57 -82 -86 -141q-25 -53 -17 -80q2 -9 10 -7q25 3 49.5 57.5t39.5 144.5zM562 22q44 5 80 156q-52 -42 -78 -78q-13 -17 -17 -36t0.5 -31t14.5 -11z" />
    <glyph glyph-name=".notdef" horiz-adv-x="200" 
 />
    <glyph glyph-name=".null" horiz-adv-x="0" 
 />
    <glyph glyph-name="nonmarkingreturn" horiz-adv-x="333" 
 />
    <glyph glyph-name="space" unicode=" " horiz-adv-x="200" 
 />
    <glyph glyph-name="exclam" unicode="!" horiz-adv-x="331" 
d="M197 62q0 -28 -19.5 -47.5t-47.5 -19.5q-27 0 -46.5 19.5t-19.5 47.5q0 27 19.5 46t46.5 19q28 0 47.5 -19t19.5 -46zM97 223q0 6 41 138.5t49 226.5q7 56 7 121q0 7 12 14t26 7q33 0 53 -25t12 -68q-16 -90 -53 -181q-43 -102 -64 -147q-27 -59 -27 -95q0 -30 -15 -30
q-20 0 -31.5 11.5t-9.5 27.5z" />
    <glyph glyph-name="quotedbl" unicode="&#x22;" horiz-adv-x="335" 
d="M158 637q-1 -34 -26.5 -68t-57.5 -51q-6 -2 -11 2t-5 11t8 11q23 12 32.5 25t5.5 22.5t-17 12.5q-23 4 -39 22.5t-15 43.5q1 27 22 45t48 13q27 -4 42 -28.5t13 -60.5zM302 637q-2 -34 -28 -68t-57 -51q-5 -2 -10.5 2t-5.5 11t8 11q24 12 33.5 25t5 22.5t-17.5 12.5
q-22 4 -38.5 23t-15.5 43q1 27 22.5 45t48.5 13q27 -4 42 -29.5t13 -59.5z" />
    <glyph glyph-name="numbersign" unicode="#" horiz-adv-x="467" 
d="M61 -5q-1 1 -0.5 3.5t4.5 13.5l8 21t10 27l11 31q-22 1 -49 -4q-11 -3 -12 7q-2 25 13.5 31t52.5 3h5q11 41 20 98q8 56 10 82q-23 1 -52 -5q-12 -7 -13 7q-1 25 13.5 30t52.5 3h3q4 85 0 126q-2 7 5 10t19 1q22 -1 33 -17q16 -22 -2 -121q84 -4 133 -4q7 79 1 131
q-1 7 5.5 10t18.5 1q23 -2 34 -17q17 -23 -3 -124q29 1 48 7q2 0 4.5 -8.5t-2.5 -21.5t-21 -22q-13 -7 -40 -7q-16 -80 -37 -165q46 4 60 9l2 -3q7 -33 -21 -50q-15 -8 -57 -6q-14 -42 -27 -71q-12 -29 -41 -6q-1 1 0 3t4 11t6.5 17.5t8.5 22t9 25.5q-7 0 -18 1.5t-27.5 3
t-29.5 2.5l-40.5 4.5t-28.5 2.5q-18 -56 -32 -87q-14 -30 -41 -6zM145 126q95 -4 147 -4q16 61 22 104l8 64q-8 1 -31 3.5t-37 3.5t-37 3.5t-31 3.5q-21 -106 -41 -178z" />
    <glyph glyph-name="dollar" unicode="$" horiz-adv-x="363" 
d="M258 574q-1 -4 -2.5 -22.5l-3 -38t-1.5 -22.5q18 -1 29 -4q35 -9 53 -37.5t14 -62.5t-27 -58t-56 -24q-14 0 -30.5 16.5t-26 32.5t-5.5 16q57 -4 79 28q18 27 -6 47q-14 11 -35 14q-37 5 -66 -17.5t-29 -57.5q0 -19 16 -42t35 -39l46 -37q37 -29 57 -70.5t14 -90.5
q-5 -46 -45.5 -79.5t-99.5 -38.5q-14 -75 -42 -78q-3 -1 -4 1.5t0 7.5l8 70l-13 2q-50 7 -85 51q-34 42 -30 85q4 35 28 59t59 21q24 -2 40 -17.5t17 -28t0 -14.5q-35 6 -57.5 -11.5t-22.5 -45.5q-2 -61 64 -71q89 -18 100 60q11 66 -71 127q-79 56 -71 154q4 46 37 82.5
t81 46.5q6 56 10 62q11 24 42 24z" />
    <glyph glyph-name="percent" unicode="%" horiz-adv-x="694" 
d="M225 -2l3 6l9 18.5l14 29t18.5 42t20.5 53.5q28 78 44 159q24 110 20 159q0 20 36 11q27 -6 41 -29q17 -31 -18 -135q-38 -110 -79 -190q-50 -99 -68 -127q-7 -10 -17 -13t-17 1.5t-7 14.5zM584 290q46 -12 66 -54t6 -111q-14 -71 -62 -110q-48 -40 -97 -33q-45 8 -70 54
q-27 47 -12 115q17 75 66 114q51 38 103 25zM588 122q14 65 8 103t-28 41q-23 4 -47.5 -26t-38.5 -82q-15 -56 -8 -99t33 -47q24 -3 45.5 26t35.5 84zM206 479q47 -12 67.5 -54t5.5 -111q-15 -71 -63 -110q-48 -40 -97 -33q-43 7 -69 54q-27 46 -12 116q15 74 65 113
q51 38 103 25zM210 311q14 65 8 103t-28 42q-23 3 -47 -27t-38 -82q-15 -56 -8 -98q6 -44 33 -47q22 -4 44 25t36 84z" />
    <glyph glyph-name="ampersand" unicode="&#x26;" horiz-adv-x="565" 
d="M487 40q25 -2 24 -12q-1 -12 -22 -19q-7 -3 -14 -3q-35 0 -97 48q-62 -62 -151 -67q-90 -5 -146 48q-57 53 -47 133q11 95 105 209q-25 65 -25 121q3 121 65 180q61 58 125 52q39 -4 56 -30.5t7 -74t-49 -105.5q-78 -98 -99 -131q23 -77 65 -152.5t89 -126.5q29 41 40 98
t-1 102q-13 -1 -42 -3t-49.5 -4t-25.5 -5q-9 -3 -16.5 4t-10.5 24q-5 29 104 65q104 35 153 40q5 0 8 -17.5t-6 -42.5t-34 -40q-15 -9 -39 -14q10 -56 -3.5 -121t-48.5 -114q45 -41 85 -42zM267 46q43 3 81 35q-109 99 -178 229q-36 -65 -40 -106q-12 -73 27 -118
q37 -46 110 -40zM196 534q-3 -36 7 -84q58 67 66 80q73 98 51 141q-10 19 -37 19q-32 0 -57.5 -43.5t-29.5 -112.5z" />
    <glyph glyph-name="quotesingle" unicode="'" horiz-adv-x="191" 
d="M158 637q-1 -34 -26.5 -68t-57.5 -51q-6 -2 -11 2t-5 11t8 11q23 12 32.5 25t5.5 22.5t-17 12.5q-23 4 -39 22.5t-15 43.5q1 27 22 45t48 13q27 -4 42 -28.5t13 -60.5z" />
    <glyph glyph-name="parenleft" unicode="(" horiz-adv-x="455" 
d="M40 342q32 196 132 308q101 113 220 95q33 -5 30 -19q-1 -15 -29 -24q-10 -3 -16 -2q-81 7 -148 -81q-68 -91 -92 -245q-27 -164 8 -263q34 -99 109 -108q13 -2 20 -16q10 -19 -18 -21q-10 0 -16 1q-107 14 -167 111q-60 98 -33 264z" />
    <glyph glyph-name="parenright" unicode=")" horiz-adv-x="455" 
d="M415 370q-30 -194 -130 -306q-100 -113 -222 -95q-33 5 -30 19q2 14 28 23q9 5 17 3q81 -9 149 81q67 87 91 244q27 164 -8 263q-34 98 -108 108q-12 2 -20 17q-10 19 17 20q10 0 16 -1q107 -14 167 -111q60 -98 33 -265z" />
    <glyph glyph-name="asterisk" unicode="*" horiz-adv-x="246" 
d="M212 626q1 -2 2.5 -9t-4.5 -18.5t-17 -17.5q-5 -2 -22 0.5t-20 2.5q7 -26 21 -42q6 -6 0 -9q-28 -16 -53 44h-1q-26 -29 -29 -45l-2 -2q-2 -3 -7 -2q-26 17 11 69q-8 3 -28 3t-22 -1q-4 -1 -6.5 0t-1.5 5q2 32 61 26q-1 4 -7 13t-14 19.5t-10 14.5l3 3q6 6 19 8.5
t28 -7.5l10 -17l7 -14l21 44q2 2 10.5 -2t15.5 -14.5t3 -24.5q-1 -4 -10 -15.5t-10 -13.5q2 0 14.5 0.5l24.5 1t13 0.5z" />
    <glyph glyph-name="plus" unicode="+" horiz-adv-x="277" 
d="M145 122q-23 -1 -32 13.5t-7 50.5v5l-4 2q-43 13 -59 9q-9 -1 -10 5q-2 23 12 33t50 10h14q1 27 -2 72q0 3 11 5t25.5 -0.5t22.5 -10.5q16 -16 9 -65q31 1 64 6q3 0 5 -9t-1.5 -23t-15.5 -26q-17 -17 -65 -17q-12 -42 -12 -51q3 -9 -5 -9z" />
    <glyph glyph-name="comma" unicode="," horiz-adv-x="208" 
d="M175 34q-2 -35 -27.5 -69t-57.5 -50q-6 -2 -11 2t-5 11t8 11q46 23 38 46q-3 10 -17 13q-24 5 -39.5 23.5t-14.5 42.5q1 27 22 45t49 14q27 -4 42 -29.5t13 -59.5z" />
    <glyph glyph-name="hyphen" unicode="-" horiz-adv-x="277" 
d="M33 207q-2 23 12 33t50 10q92 0 144 7q3 0 5 -9t-1.5 -23t-15.5 -26q-27 -27 -87 -12q-73 18 -97 15q-9 -1 -10 5z" />
    <glyph glyph-name="period" unicode="." horiz-adv-x="212" 
d="M180 62q0 -28 -19.5 -47.5t-46.5 -19.5t-46.5 19.5t-19.5 47.5q0 27 19.5 46t46.5 19t46.5 -19t19.5 -46z" />
    <glyph glyph-name="slash" unicode="/" horiz-adv-x="448" 
d="M33 -34l11 24l37.5 79.5l54.5 118.5q51 117 82 203q74 205 103 322q3 12 15.5 20.5t30.5 8.5q33 0 45 -24q9 -20 -4 -65.5t-54 -144.5q-86 -199 -166 -353q-84 -163 -106 -183q-31 -28 -49 -6z" />
    <glyph glyph-name="zero" unicode="0" horiz-adv-x="407" 
d="M256 488q58 -6 104 -64q45 -59 38 -170q-6 -112 -72.5 -182t-135.5 -70q-59 0 -109 58q-25 28 -38.5 75.5t-9.5 103.5q8 123 72 190q65 68 151 59zM302 234q9 99 -10.5 162t-55.5 64q-38 0 -69.5 -53.5t-40.5 -140.5q-11 -96 11 -160q21 -67 63 -67q37 0 65 52.5
t37 142.5z" />
    <glyph glyph-name="one" unicode="1" horiz-adv-x="250" 
d="M233 474q3 -3 -12 -89q-12 -79 -14 -91q-14 -120 -14 -267q0 -12 -10.5 -20.5t-28.5 -8.5q-34 0 -52 25q-30 41 7 201q15 64 61 191q0 2 1 5l1 2q-1 1 -1.5 0t-2 -2.5t-2.5 -4.5q-32 -58 -35 -62q-2 -4 -8.5 -13l-10.5 -15q-23 -30 -50 -35q-14 -2 -21 6t-7.5 14t-0.5 12
q42 16 69 48q30 35 68 97q24 41 63 7z" />
    <glyph glyph-name="two" unicode="2" horiz-adv-x="400" 
d="M383 337q-3 -66 -58 -142q-58 -80 -118 -127q26 -8 51 -10q37 -2 63.5 7.5t32.5 27.5q2 5 8 -2q11 -11 0 -37q-38 -82 -171 -54q-50 11 -61 15q-40 -23 -62 -23q-20 0 -33 17t-10 39t24 35q34 22 81 11q26 -8 42 -14q101 95 114 212q8 69 -8.5 113.5t-50.5 48.5
q-36 6 -69 -30t-54 -104q-1 -11 -22 13q-37 42 -31 74q1 4 2 7q13 39 65.5 59t123.5 11q148 -20 141 -147z" />
    <glyph glyph-name="three" unicode="3" horiz-adv-x="431" 
d="M296 21q7 85 -41 153q-49 -13 -80 -6q-32 6 -41 28t8.5 40.5t51.5 16.5q33 -1 82 -25q36 36 42 86q9 61 -9 97.5t-55 41.5q-37 4 -70 -32t-54 -103q-1 -10 -23 13q-37 41 -31 73q0 4 2 8q13 39 65.5 59t124.5 11q77 -9 116 -52t30 -103q-14 -81 -96 -126q74 -59 72 -144
q-2 -107 -81 -168q-80 -60 -175 -51q-54 5 -90 43.5t-36 92.5q0 66 45 110q44 44 94 38q49 -5 47 -56q-3 -26 -10 -30q-28 6 -56 6t-51.5 -18t-28.5 -50q-7 -42 21 -73t75 -35q64 -6 105 39q41 47 47 116zM182 193q22 -7 53 7q-22 25 -48 28q-16 1 -24 -6t-3 -16t22 -13z
" />
    <glyph glyph-name="four" unicode="4" horiz-adv-x="412" 
d="M349 474q1 -1 -20 -151q-12 -85 -21 -177q0 -1 -0.5 -5t-1 -11.5t-0.5 -14.5l-2.5 -24t-1.5 -17q55 -4 88 4q4 0 6 -12.5t-3.5 -30t-19.5 -28.5q-23 -18 -75 -10q-4 -63 -4 -126q0 -12 -10.5 -20.5t-28.5 -8.5q-34 0 -52 25q-22 29 -4 151q-136 28 -175 21q-7 0 -11 1
t-3.5 8t12.5 20q0 3 4 4q40 47 268 395q9 14 27.5 15.5t27.5 -8.5zM89 89q31 1 121 -6v1q28 156 84 331q3 6 2 7l-5 -4l-1 -3q-146 -256 -201 -326z" />
    <glyph glyph-name="five" unicode="5" horiz-adv-x="462" 
d="M306 376q-13 1 -59 11t-60 11q-8 -94 -30 -152q127 8 195 -62q38 -41 38 -102q0 -111 -73 -177q-74 -66 -167 -60q-54 3 -88.5 39t-36.5 90q-3 67 36 116q39 48 85 42q43 -4 59 -63q8 -32 2 -33q-34 4 -62 5.5t-48.5 -12.5t-25.5 -46q-7 -44 19.5 -77t75.5 -33
q52 0 91 49t39 116q0 80 -43.5 126.5t-115.5 46.5q-11 -11 -16 -13q-27 -14 -39 4q-10 16 10 30q10 6 18 7q3 0 4 1q30 42 38 157q-2 0 -6.5 12.5t-2 29t17.5 24.5q30 18 78 5q54 -16 90 -22q75 -11 77 36q0 6 16 -3q27 -16 24 -45q-3 -32 -41 -48.5t-99 -9.5z" />
    <glyph glyph-name="six" unicode="6" horiz-adv-x="418" 
d="M186 -11q-76 -4 -123 77q-47 82 -23 221q14 100 59.5 184t110.5 127.5t130 23.5q37 -11 51 -38.5t6.5 -55t-33 -49t-59.5 -21.5q-21 -1 -38 16.5t-23.5 35.5t-1.5 17q77 -6 109 23q23 20 -5 35q-15 8 -37 11q-43 6 -78 -35q-36 -44 -55 -99q-22 -64 -34 -130q27 42 68 66
q48 27 120 5q35 -11 55.5 -49t15.5 -95q-11 -121 -77 -193q-68 -74 -138 -77zM218 374q-29 -13 -54 -64q-19 -39 -38 -90q-4 -88 17 -139t67 -51q39 0 66 58q27 61 31 135q3 39 -1 69.5t-13.5 47.5t-22 28t-26 11t-26.5 -5z" />
    <glyph glyph-name="seven" unicode="7" horiz-adv-x="366" 
d="M53 -65q25 117 85 245q61 133 121 212q-4 1 -35.5 10.5t-45.5 12.5q-12 3 -36 5q-37 3 -67.5 -6.5t-36.5 -27.5q-2 -4 -8 2q-12 10 0 36q37 82 179 54q63 -14 106 -28q24 17 45 22.5t32.5 2.5t15.5 -10q10 -16 2.5 -36.5t-27.5 -33.5q-31 -19 -77 -13q-94 -94 -150 -430
q-7 -38 -7 -89q0 -7 -9 -14t-22 -7q-33 0 -53.5 26t-11.5 67z" />
    <glyph glyph-name="eight" unicode="8" horiz-adv-x="448" 
d="M17 -10q-1 44 37 91q13 17 46 42l44 33q18 13 50 33q-95 116 -75 194q11 42 62 74t118 25q67 -8 98.5 -42t24.5 -81q-10 -76 -116 -141q107 -113 116 -166q11 -65 -22 -113q-35 -49 -86 -68q-54 -20 -108 -17q-66 5 -127 40q-60 37 -62 96zM328 16q-7 25 -42 67l-37 42
q-31 35 -36 41q-76 -49 -88 -136q-9 -58 17 -102q25 -43 75 -46q57 -3 93 33t18 101zM187 373q1 -31 91 -125q53 50 63 94q9 47 -8 77t-50 33q-41 5 -69.5 -17t-26.5 -62z" />
    <glyph glyph-name="nine" unicode="9" horiz-adv-x="398" 
d="M246 488q67 -9 108 -83q40 -75 21 -214q-18 -140 -77.5 -236t-147.5 -102q-32 -2 -61.5 17t-38.5 52q-10 40 11 75t61 31t47 -53q3 -19 0 -17q-41 9 -64.5 0.5t-22.5 -28.5q1 -25 28 -40t57 -5q40 12 65.5 74t42.5 187q-28 -64 -67 -84q-64 -31 -128 22q-63 53 -54 158
q9 115 79 185q70 71 141 61zM208 95q35 17 56 84q20 66 24 130q3 60 -13.5 97.5t-49.5 41.5q-45 5 -73 -47q-28 -53 -33 -123q-6 -93 17 -150q22 -56 72 -33z" />
    <glyph glyph-name="colon" unicode=":" horiz-adv-x="244" 
d="M180 62q0 -28 -19.5 -47.5t-46.5 -19.5t-46.5 19.5t-19.5 47.5q0 27 19.5 46t46.5 19t46.5 -19t19.5 -46zM212 356q0 -27 -19.5 -46.5t-46.5 -19.5q-28 0 -47.5 19.5t-19.5 46.5q0 28 19.5 47t47.5 19q27 0 46.5 -19t19.5 -47z" />
    <glyph glyph-name="semicolon" unicode=";" horiz-adv-x="242" 
d="M210 356q0 -27 -19.5 -46.5t-47.5 -19.5q-27 0 -46 19.5t-19 46.5q0 28 19 47t46 19q28 0 47.5 -19t19.5 -47zM175 34q-2 -35 -27.5 -69t-57.5 -50q-6 -2 -11 2t-5 11t8 11q46 23 38 46q-3 10 -17 13q-24 5 -39.5 23.5t-14.5 42.5q1 27 22 45t49 14q27 -4 42 -29.5
t13 -59.5z" />
    <glyph glyph-name="less" unicode="&#x3c;" horiz-adv-x="272" 
d="M36 209q-7 3 -3 7q0 1 5 6q24 14 65 51q2 1 12.5 10.5l25 22.5l24.5 22q19 14 28 18q16 4 26 1.5t16 -7t4 -6.5t-14.5 -13.5l-26 -24t-25.5 -21.5q-4 -4 -43 -32q-30 -19 -54 -30q15 -10 40 -35q65 -67 89 -95q1 -1 -5.5 -6.5t-17 -8t-24.5 2.5q-22 13 -71 78
q-41 53 -51 60z" />
    <glyph glyph-name="equal" unicode="=" horiz-adv-x="277" 
d="M33 159q-2 23 12 33t50 10q92 0 144 7q3 0 5 -9t-1.5 -23t-15.5 -26q-42 -30 -125 -6q-43 13 -59 9q-9 -1 -10 5zM33 255q-2 23 12 33t50 10q92 0 144 7q3 0 5 -9t-1.5 -23t-15.5 -26q-42 -30 -125 -6q-43 13 -59 9q-9 -1 -10 5z" />
    <glyph glyph-name="greater" unicode="&#x3e;" horiz-adv-x="272" 
d="M236 207q5 -5 3 -8l-5 -5q-24 -14 -65 -51q-2 -1 -12.5 -11l-24.5 -22.5t-25 -20.5q-17 -14 -28 -19q-16 -4 -26 -1.5t-16 7t-4 6.5l67 59q11 9 42 32q31 20 53 30q-22 15 -39 35q-47 46 -89 95q-1 1 5.5 6.5t17 8t24.5 -2.5q22 -13 71 -78q41 -53 51 -60z" />
    <glyph glyph-name="question" unicode="?" horiz-adv-x="416" 
d="M216 62q0 -28 -19.5 -47.5t-46.5 -19.5t-46.5 19.5t-19.5 47.5q0 27 19.5 46t46.5 19t46.5 -19t19.5 -46zM384 575q0 -33 -24 -75q-26 -44 -53 -74q-38 -42 -68 -72l-53 -56q-21 -25 -16 -84q4 -30 -8 -30q-19 0 -35.5 14.5t-16.5 29.5q0 20 35 64q53 66 72 93
q22 30 44 76q24 52 25 91q3 57 -16.5 97.5t-52.5 40.5q-38 0 -65.5 -39.5t-39.5 -109.5q-1 -8 -26 11q-42 36 -37 72v2q7 41 57 68.5t121 26.5q68 -1 112.5 -40t44.5 -106z" />
    <glyph glyph-name="at" unicode="@" horiz-adv-x="915" 
d="M267 240q27 141 86 206q59 64 116 41q33 -13 50 -69q11 61 15 74q1 3 15.5 0t32.5 -13.5t27 -23.5q15 -26 7 -86q0 -2 -8 -49q-4 -22 -12 -58q-17 -106 -4.5 -167t49.5 -61q45 0 84 58q40 60 56 151q18 97 -6.5 179t-93.5 135q-70 55 -177 55q-133 0 -238 -90
q-105 -91 -130 -244q-13 -81 -5.5 -144.5t30 -112t56.5 -82.5t73.5 -55t82 -30.5t81.5 -9t72 10.5q13 4 27 -8q17 -17 -22 -29q-1 -1 -3 -1q-41 -12 -89.5 -13.5t-100.5 7.5t-101 31t-90.5 57t-70 85t-39.5 115t2 147q19 128 93 222q73 96 173 142q102 47 214 47
q82 0 153 -27.5t121.5 -76.5t74 -121.5t10.5 -157.5q-12 -71 -42 -127.5t-69 -87.5q-77 -59 -144 -59q-53 0 -87.5 44.5t-37.5 132.5q-31 -99 -76 -148t-97 -37q-42 9 -59 73t1 175zM380 43q20 -5 41 24.5t42.5 93.5t38.5 155q-3 104 -44 119q-26 11 -52 -36t-42 -137
q-16 -93 -12 -152.5t28 -66.5z" />
    <glyph glyph-name="A" unicode="A" horiz-adv-x="545" 
d="M114 197q-2 31 17.5 44.5t67.5 13.5h23l24 65q62 180 100 280q33 85 52 109q3 8 30.5 9t62 -13t51.5 -43q11 -22 1 -66q-11 -46 -39 -144q-28 -99 -45 -195q47 1 51 3q1 -3 2.5 -15.5t-6.5 -33t-24 -31.5q-13 -10 -36 -13q-11 -108 18 -116q27 -7 59 28t47 86q2 5 8 -2
q12 -10 0 -37q-27 -62 -75 -99t-95 -26q-70 16 -52 172q-92 14 -122 15q-48 -105 -97 -153t-93 -34q-21 6 -33.5 27t-8.5 47q6 44 60 68q34 15 42 6q1 -1 1 -3q-8 -31 -11 -59q-3 -22 12 -27q30 -9 90 131q-52 3 -67 -1q-14 -8 -15 7zM262 255h108l69 393q-28 -9 -64 -85
q-38 -80 -92 -246z" />
    <glyph glyph-name="B" unicode="B" horiz-adv-x="586" 
d="M330 715q120 -4 179 -55t41 -138q-18 -90 -120 -136q61 -22 90.5 -71t19.5 -120q-7 -54 -37.5 -97t-74 -68t-93 -38t-98.5 -10t-87 20q-46 20 -71.5 62t-25 82.5t23.5 62.5q21 24 35 8q4 -6 2 -8q-32 -35 -10 -87q21 -52 74 -72q81 -33 161 5q78 37 104 110q23 64 1 121
q-22 58 -86 79q-26 -5 -48 0q-20 3 -20 12q-8 21 28 23q8 1 37 1q76 25 99 121q15 67 -27 109q-44 43 -106 47q-63 8 -129 -18.5t-103 -72t-23 -88.5q4 -13 21.5 -13t56.5 9q1 0 4 0.5t4 1.5q2 1 3 -0.5t2 -4.5q5 -23 -18 -58q-22 -35 -57 -40q-26 -4 -47.5 9t-27.5 34
q-22 66 22 135q42 66 128 107q84 39 173 36zM194 81q-69 4 -31 209q39 209 39 352q-1 6 19 13t44.5 0.5t33.5 -33.5q14 -31 -8 -142l-16 -76q-3 -12 -17 -90q-36 -182 -32 -212q2 -9 -6.5 -15.5t-25.5 -5.5z" />
    <glyph glyph-name="C" unicode="C" horiz-adv-x="390" 
d="M165 -23q-78 10 -128 109q-49 98 -33 258q10 101 57 193q45 91 116 141q70 49 144 28q37 -11 57 -44t19.5 -73t-12.5 -78t-40 -63.5t-63 -25.5q-36 -3 -60 56q-13 33 -8 37q74 -6 115 47q32 43 14 80q-15 30 -57 36q-50 6 -90 -43q-43 -50 -65 -119q-24 -75 -31 -144
q-16 -145 17 -245t104 -100q31 0 53.5 20t31.5 48t5.5 59t-21.5 53q-1 1 4 5q22 10 40 -18q13 -21 14.5 -51t-10 -61t-32.5 -57t-58.5 -40t-82.5 -8z" />
    <glyph glyph-name="D" unicode="D" horiz-adv-x="582" 
d="M189 66q-65 4 -25 224q11 57 18.5 113t11 96t5.5 71.5t3 50.5t1 21q-1 6 19 13t44.5 0.5t33.5 -33.5q14 -30 -8 -142l-16 -77q-12 -56 -18 -89q-3 -21 -12 -62q-6 -28 -13 -70q-13 -69 -11 -96q1 -9 -7.5 -15t-25.5 -5zM557 355q-29 -181 -145 -287q-118 -107 -258 -67
q-48 12 -75 55t-26 87.5t25 65.5q23 26 35 7q3 -5 1 -7q-19 -26 -19 -60t22.5 -66t57.5 -40q103 -24 183 57q79 81 102 224q53 335 -125 354q-70 11 -139.5 -14.5t-107 -72t-21.5 -92.5q4 -13 21.5 -13t56.5 9q1 0 4 0.5t4 1.5q2 1 3 -0.5t2 -4.5q4 -22 -19 -58
q-22 -35 -57 -40q-26 -4 -47 8.5t-27 34.5q-23 71 22 141q44 69 134 109q89 39 184 27q260 -30 209 -359z" />
    <glyph glyph-name="E" unicode="E" horiz-adv-x="420" 
d="M42 480q7 82 53.5 141.5t111 81t127.5 3.5q37 -9 57.5 -37t20 -61t-12.5 -64.5t-40.5 -52.5t-63.5 -21q-36 -3 -60 56q-13 33 -8 37q82 -6 119 34q27 31 3 57q-15 18 -49 24q-59 11 -108 -41q-50 -53 -54 -129q-8 -98 26 -151q42 18 83 16q45 -1 51 -28q6 -25 -30 -42
q-19 -10 -42 -11q-41 -3 -83 14q-41 -43 -46 -112q-5 -77 32 -124q36 -49 105 -43q45 5 74 40q31 35 32 75q2 41 -20 73q-2 2 5 5q21 10 39 -18q14 -21 16 -50.5t-10 -60t-34 -57t-59.5 -44.5t-82.5 -21q-89 -5 -143 51q-56 56 -50 138q8 106 105 170q-75 57 -64 152z
M239 350q-31 2 -58 -14q20 -20 49 -17q36 3 37 16q0 12 -28 15z" />
    <glyph glyph-name="F" unicode="F" horiz-adv-x="526" 
d="M411 572q-213 72 -290 34q-49 -25 -62 -69.5t10 -70.5q25 -31 85 -11q5 2 7 -6q5 -26 -17 -62q-19 -33 -51 -41q-25 -6 -46.5 5t-31.5 32q-30 53 -2 131q27 79 97 116q145 78 370 13l41.5 -12l41.5 -12q63 -17 79 -18q65 -4 84 25q34 49 0 85q-32 34 -86 23
q-48 -10 -82 -52q-1 -1 -4 3t-7.5 11.5t-9.5 17t-8.5 20.5t-5 22t1.5 21.5t10 18.5q24 26 62 29t73.5 -13.5t66.5 -44.5t39.5 -64t-6.5 -71q-23 -47 -82.5 -69.5t-134.5 -18.5q-74 5 -142 28zM178 197q-2 31 17.5 44.5t67.5 13.5h10l5 77q4 87 13 129t34 71q16 19 37 24
t34 -0.5t11 -12.5q-16 -54 -37 -209q-5 -34 -16 -79q63 0 108 5q1 -2 1.5 -11t-6.5 -26t-19 -30q-25 -27 -107 -18q-35 -94 -88.5 -139t-118.5 -35q-40 6 -60 38q-21 31 -6 66q18 42 78 53q36 4 40 -6q0 -3 -1 -4q-16 -25 -20.5 -52t4 -45t27.5 -17q56 5 78 152q-57 8 -71 4
q-14 -3 -15 7z" />
    <glyph glyph-name="G" unicode="G" horiz-adv-x="450" 
d="M155 -15q-52 5 -87.5 59t-43.5 135q-8 84 2 173q14 104 63 192q49 90 121 137q74 47 148 25q46 -13 65 -60t11 -96.5t-39 -88.5t-75 -39q-36 -3 -61 58q-14 33 -8 35q75 -6 116 47q32 43 14 80q-13 30 -57 36q-67 9 -123 -74q-55 -81 -79 -224q-22 -134 0 -237
q23 -104 65 -108q41 -4 72 46q29 49 40 115l1 2v3q6 35 18 47.5t38 1.5q26 -10 33 -66q6 -57 -6 -110q-17 -90 -31 -132q47 -10 92 -28q31 -13 19 -31q-4 -5 -6 -4q-62 25 -114 35q-73 -214 -214 -243q-53 -11 -90.5 18.5t-38 76.5t36.5 100q33 43 94.5 65t137.5 20
q7 40 12 89l2 30q-51 -93 -128 -85zM130 -277q96 21 133 199q-140 8 -197 -65q-27 -36 -28.5 -69.5t25 -54t67.5 -10.5z" />
    <glyph glyph-name="H" unicode="H" horiz-adv-x="585" 
d="M114 197q-2 31 17.5 44.5t67.5 13.5h2q11 91 18 234q3 64 -1 124q-5 71 -8 84q0 4 16.5 11.5t39 7.5t35.5 -17q20 -25 21.5 -75.5t-9.5 -132.5q-12 -131 -39 -236h124q6 95 20 289q3 41 5.5 80.5t4 57t1.5 21.5q-1 2 3 4q23 10 57 2q28 -7 38 -28q7 -12 7 -40t-4 -55
l-13 -84q-20 -124 -29 -246q36 1 62 4q1 -2 2.5 -14.5t-6.5 -33.5t-24 -32q-14 -9 -38 -12q-3 -109 20 -117q27 -7 59 28t47 86q2 5 8 -2q12 -10 0 -37q-27 -62 -75 -99t-95 -26q-60 13 -54 169l-65 8q-55 7 -75 8q-18 -52 -41 -90.5t-45 -58t-45.5 -31t-42.5 -10t-36 4.5
q-21 6 -33.5 27t-8.5 47q6 44 60 68q34 15 42 6q1 -1 1 -3q-9 -40 0 -73t30 -28q37 9 57 146q-49 3 -63 -1q-14 -3 -15 7z" />
    <glyph glyph-name="I" unicode="I" horiz-adv-x="338" 
d="M364 654q-11 -17 -44 -38q-1 -7 -2.5 -26t-3 -45.5t-3.5 -45.5q-6 -85 -18 -156.5t-27.5 -121.5t-34.5 -91t-38.5 -64t-40.5 -41t-40 -22t-36.5 -6.5t-31.5 4.5q-21 6 -33.5 27t-8.5 47q6 44 60 68q34 15 42 6q1 -1 1 -3q-10 -40 0 -73q9 -33 30 -28q19 4 33 34
q14 29 27 126q14 98 24 268q3 57 10 92q-58 -34 -99 -80q-87 -104 -56 -136q28 -28 86 -3q3 2 5 -0.5t3 -7.5q6 -28 -14 -66q-16 -31 -44 -40q-24 -8 -46.5 1t-34.5 28q-23 33 -14.5 77t34 85.5t65.5 82.5q55 55 127 114q16 51 33 77q32 45 71 36q29 -8 32 -36
q2 -21 -13 -43z" />
    <glyph glyph-name="J" unicode="J" horiz-adv-x="488" 
d="M467 -124q-60 36 -122 50q-82 -229 -211 -255q-54 -11 -93 18.5t-41 76.5t34 98q42 53 109.5 81t143.5 26q47 187 67 502q2 47 9 92q-61 -37 -98 -80q-88 -101 -56 -136q27 -28 85 -3q3 2 5 -0.5t3 -7.5q6 -28 -14 -66q-16 -31 -44 -40q-24 -8 -46 0.5t-35 28.5
q-23 33 -14.5 77t34 85.5t65.5 82.5q61 61 127 114q17 55 34 77q31 43 70 36q28 -6 32 -34q3 -22 -13 -45q-14 -21 -44 -39q-4 -37 -8 -116q-22 -330 -89 -536q65 -14 110 -42q15 -9 16 -20.5t-5.5 -18.5t-10.5 -6zM137 -277q84 16 141 214q-129 7 -197 -80
q-43 -52 -26 -100q17 -47 82 -34z" />
    <glyph glyph-name="K" unicode="K" horiz-adv-x="585" 
d="M135 45q42 9 65 201q-33 4 -46 31.5t2.5 59t55.5 45.5l7 107q3 64 -1 124q-5 71 -8 84q0 4 16.5 11.5t39 7.5t35.5 -17q20 -25 21.5 -75.5t-9.5 -132.5q-7 -68 -11 -94q37 -3 67 -20q49 73 69 185q4 25 5 75q2 65 2 66q-1 2 3 4q23 10 57 2q28 -7 38 -28q21 -38 2 -99
q-41 -136 -139 -236q35 -38 58 -112q10 -35 20 -82q10 -51 18 -72q7 -22 20 -26q25 -7 48.5 23.5t39.5 87.5q2 5 8 -2q12 -10 0 -37q-31 -68 -66 -104.5t-70 -28.5q-35 7 -57 68q-5 13 -28 85q-7 26 -10 32q-21 72 -44 116q-33 -24 -68 -36q-15 -60 -35 -107t-40 -74.5
t-42 -47.5t-42 -25.5t-39 -7.5t-33 5q-21 6 -33.5 27t-8.5 47q6 44 60 68q34 15 42 6q1 -1 1 -3q-9 -40 0 -73t30 -28zM285 301q22 10 38 25q-14 19 -28 27q-1 -10 -10 -52zM210 354q-24 -13 -25 -33t20 -29q0 6 2.5 31t2.5 31z" />
    <glyph glyph-name="L" unicode="L" horiz-adv-x="485" 
d="M45 -20q-16 1 -27.5 14.5t-14.5 32.5t0.5 39.5t20 38.5t42.5 26q23 8 55 6q20 179 25 215q30 202 104.5 295t176.5 57q34 -12 49.5 -49.5t8.5 -79.5q-7 -43 -36.5 -74t-69.5 -31q-36 -3 -61 58q-14 33 -8 35q78 -6 111 36q25 31 3 60q-13 14 -34 20q-58 16 -89 -62
q-29 -76 -52 -228q-27 -175 -64 -271q44 -21 101 -72l98 -94q44 -43 71 -50q18 -5 33.5 3t21.5 27q2 4 8 -2q12 -10 0 -36q-18 -41 -52.5 -58.5t-76.5 -7.5q-73 19 -170 148q-47 61 -65 77q-47 -77 -109 -73zM69 19q30 0 43 61q-18 5 -30 2q-33 -8 -34 -33q-3 -23 14 -29
q3 -1 7 -1z" />
    <glyph glyph-name="M" unicode="M" horiz-adv-x="820" 
d="M574 317q-43 -133 -71 -204q-27 -65 -47 -88q-20 -24 -47 -24q-37 0 -58 56q-23 55 -6 150l77 439q-20 -2 -47 -67q-30 -74 -92 -262q-56 -169 -119 -251.5t-120 -64.5q-22 6 -34.5 27t-8.5 47q6 44 60 68q35 15 42 6q2 -2 1 -3q-14 -67 -8 -78q3 -7 10 -8q13 -4 33 23.5
t47.5 87.5t58.5 149q87 250 107 293q36 77 70 96q28 14 51.5 2t37.5 -27.5t15 -21.5q1 -9 0 -21t-6 -34l-9 -39.5l-14 -58.5l-17 -70q-23 -98 -42 -208q-26 -161 4 -161q7 0 32 70l29 84l34 96q86 247 116 309q31 60 61 80q31 18 54 6t36 -28.5t14 -24.5q1 -9 0 -20.5
t-6 -34l-9 -39.5l-14 -59l-17 -70q-23 -98 -42 -208q-13 -78 -10.5 -126.5t19.5 -53.5q27 -7 59 28q31 34 48 86q0 3 7 -1q13 -10 1 -38q-29 -62 -76 -99q-48 -37 -95 -26q-74 14 -46 206q62 357 77 435q-22 -8 -51 -77q-31 -74 -89 -248z" />
    <glyph glyph-name="N" unicode="N" horiz-adv-x="679" 
d="M284 657q38 28 100 14q15 -5 15 -7q-3 -40 6 -96q7 -46 23 -110q50 -204 106 -364q-6 33 -6 83q0 211 39 363q37 151 89 186q21 11 34.5 3t22 -22.5t5.5 -16.5q-151 -112 -151 -495q0 -162 7 -177q1 -1 -3 -3l-2 -2q-29 -19 -69 -17q-34 2 -48 27q-41 79 -131 398
q-11 35 -17 70q0 -1 -3 -33q-25 -246 -85 -367q-26 -53 -57 -85q-56 -56 -107 -38q-22 6 -38 35q-17 30 -13 55q6 44 60 68q35 15 42 6q1 -1 1 -3q-7 -38 -3 -62.5t16 -35.5t26 -3q66 34 98 430q0 5 1 28.5t2 43.5t2 28q2 26 5 39q6 41 33 60z" />
    <glyph glyph-name="O" unicode="O" horiz-adv-x="467" 
d="M165 -23q-80 11 -128 109q-50 98 -33 259q10 101 57 193q45 90 116 140q70 49 143 28q53 -15 70.5 -72.5t-2.5 -112.5q16 -5 23 -16q38 -49 31 -171.5t-55 -218.5q-33 -70 -92 -108.5t-130 -29.5zM221 27q53 0 95 55q43 55 62 128q19 72 19 152q0 78 -24 123
q-35 -63 -91 -63q-36 -3 -61 58q-14 33 -8 35q74 -6 115 47q33 43 14 80q-13 30 -56 36q-50 8 -90 -42q-43 -50 -65 -120q-25 -73 -32 -144q-10 -95 0.5 -173t42 -125t79.5 -47z" />
    <glyph glyph-name="P" unicode="P" horiz-adv-x="523" 
d="M330 716q125 -4 182 -63t38 -154q-18 -88 -106 -152t-196 -69q-4 -19 -8 -43q-5 -33 -6 -37q-1 -8 -5.5 -34l-7.5 -44q-7 -35 -14 -84q-5 -33 -3 -50q1 -9 -8 -15t-26 -5q-61 4 -20 208q17 97 25 164q13 108 16 142q3 32 7 107q3 53 4 56q1 5 19.5 12t42.5 1t35 -34
q8 -27 1 -77q-1 -9 -3 -19l-4 -20.5t-3 -16.5q-4 -25 -15 -78l-18 -89q74 0 126.5 43t70.5 126q16 73 -22 128q-39 54 -111 60q-63 7 -129 -19t-103 -71.5t-23 -88.5q4 -14 27 -13q21 1 59 11q5 1 6 -4.5t-2 -17.5q-11 -47 -44 -70q-15 -10 -30 -12q-27 -3 -48 10t-27 34
q-22 66 22 135q42 66 128 107q84 39 173 36z" />
    <glyph glyph-name="Q" unicode="Q" horiz-adv-x="476" 
d="M345 315q13 145 -19 246q-32 99 -102 99q-70 1 -119 -82.5t-59 -191.5q-8 -70 4.5 -132.5t43.5 -97.5q2 -2 -7 -8t-23 -5t-23 15q-35 52 -40 149.5t25 191.5q29 102 95 163t159 48q78 -10 128 -109q50 -98 33 -259q-11 -99 -53 -180t-106 -133q2 -2 20.5 -28.5
t23.5 -32.5q3 -3 9.5 -11.5l9.5 -12.5q22 -26 45 -34q16 -6 32.5 0.5t23.5 23.5q1 4 9 -2q11 -10 -3 -36q-22 -39 -58 -54t-76 -2q-42 14 -72 57q-25 35 -48 83q-69 -28 -124 -11q-26 5 -38.5 37.5t2 67.5t56.5 46q83 26 155 -51q79 89 96 246zM98 8q39 -9 80 8
q-35 62 -68 55q-21 -5 -29.5 -19.5t-2.5 -27.5t20 -16z" />
    <glyph glyph-name="R" unicode="R" horiz-adv-x="552" 
d="M454 491q14 78 -23 130t-110 58q-63 7 -129 -19t-103 -71.5t-23 -88.5q4 -14 27 -13q21 1 59 11q5 1 6 -4.5t-2 -17.5q-11 -47 -44 -70q-15 -10 -30 -12q-27 -3 -48 10t-27 34q-22 66 22 135q42 66 128 107q84 39 173 36q125 -4 182 -63t38 -154q-22 -107 -159 -191
q17 -29 32 -75l13 -50t14 -52q4 -17 12 -37q12 -37 28 -41q24 -7 46 21t42 90q0 5 7 -1q13 -10 1 -37q-30 -68 -66.5 -105t-70.5 -29q-33 8 -52 47q-21 40 -51 139q-16 54 -33 90q-32 -14 -71 -23q-5 -17 -8 -47q-1 -8 -5.5 -34l-7.5 -44q-7 -35 -14 -84q-5 -33 -3 -50
q1 -9 -8 -15t-26 -5q-61 4 -20 208l11 65q-29 5 -45.5 24.5t-16.5 43t20 46t57 33.5l2 1q2 1 3 1q5 51 10 111.5t8 101.5t3 42q1 5 19.5 12t42.5 1t35 -34q12 -30 -14 -161q-8 -35 -14 -67q54 -7 92 -49q76 59 91 146zM167 282l11 78q-1 -1 -3 -1q-25 -8 -34.5 -25t-1.5 -32
t28 -20zM261 343q-1 -6 -5 -28t-6 -28q25 6 44 15q-17 27 -33 41z" />
    <glyph glyph-name="S" unicode="S" horiz-adv-x="512" 
d="M358 110q6 46 -26.5 94.5t-89.5 89.5q-127 93 -116 227q9 92 89 151t191 34q52 -12 78 -56q25 -42 20 -90q-6 -45 -38 -83q-33 -37 -83 -37q-36 -2 -60 53q-12 29 -7 30q82 -6 118 42q29 38 7 75q-19 30 -70 38q-66 9 -113 -23q-48 -31 -48 -99q0 -84 129 -183
q129 -97 115 -223q-9 -84 -91 -135q-83 -53 -194 -33q-74 12 -124 74q-51 61 -43 123q6 54 32 86.5t70 32.5q36 2 56 -48q10 -28 4 -30q-46 4 -71 -17.5t-26 -58.5q-1 -43 35 -84q35 -41 85 -50q66 -12 114.5 16.5t56.5 83.5z" />
    <glyph glyph-name="T" unicode="T" horiz-adv-x="459" 
d="M182 44q87 26 113 391q7 103 27 139q-68 20 -104 28q-4 1 -41 8q-44 5 -71 -13q-33 -23 -44 -69q-10 -45 8 -63q23 -32 84 -11q2 1 4 -1t3 -6q5 -26 -16 -61q-19 -33 -51 -41q-26 -6 -47.5 5t-31.5 32q-28 55 -4 126q22 69 83 112q63 44 139.5 49t173.5 -27q3 -1 18 -5.5
t27 -8.5q29 -10 44 -13q14 -3 34 -6q35 -7 50 15q26 45 -12 73q-16 13 -44 5t-46 -32q-2 -1 -11.5 11.5t-13.5 31t11 43.5q20 30 58 31.5t76 -25.5q26 -20 35 -60q8 -41 -7 -72q-45 -98 -220 -73q-13 -34 -19 -121q-5 -68 -17.5 -127.5t-29 -103.5t-37 -80.5t-42.5 -59
t-45.5 -40t-45.5 -23t-42.5 -8.5t-37.5 5q-21 6 -34 27.5t-9 47.5q6 45 60 67q35 15 42 6q1 -1 1 -3q-9 -41 1 -73q10 -34 31 -27z" />
    <glyph glyph-name="U" unicode="U" horiz-adv-x="634" 
d="M498 0q-34 11 -47 72.5t-1 157.5q-49 -117 -105 -179t-105 -51q-72 18 -54 241l3 26q-83 -42 -159 -45q-17 0 -24 6t-6 12.5t4 7.5q98 5 189 55q25 200 89 326q62 126 130 106q33 -10 38 -62.5t-20 -125.5q-38 -115 -140 -208q-7 -42 -8 -61q-10 -95 -3.5 -156.5
t27.5 -63.5q19 -1 51.5 50.5t71.5 150.5q37 94 74 231l25 126q9 63 31 86t51 10q31 -13 19 -102q-6 -39 -41 -166q-35 -129 -46 -182q-17 -90 -13 -148t25 -64q26 -8 58 28q31 34 48 86q2 5 8 -2q12 -10 0 -36q-28 -63 -76 -101q-49 -39 -94 -25zM402 691q-12 3 -27 -21
t-29 -67.5t-27 -101.5t-23 -123q80 78 110 170q17 51 17 94q-2 45 -21 49z" />
    <glyph glyph-name="V" unicode="V" horiz-adv-x="635" 
d="M655 563q-9 -60 -50 -158q-39 -95 -95 -189q-57 -94 -121 -158q-66 -66 -118 -66q-40 0 -66 66t-27 178q-75 -47 -146 -56q-17 -3 -25 2.5t-7 12t3 8.5q93 14 175 68q1 207 56 339q53 132 127 118q35 -6 45 -58t-8 -127q-25 -121 -128 -230v-28q-2 -95 15 -165
q15 -70 36 -70q34 0 87 95q52 97 89 204q40 116 49 173q11 67 8.5 111.5t-12.5 66.5t-26 22q-13 -1 -20 12q-10 16 20 21q4 1 13 1q60 2 100 -47q40 -48 26 -146zM355 683q-11 3 -22 -13.5t-21 -48t-18.5 -73.5t-14.5 -93.5t-8 -103.5q77 86 103 191q12 50 7 95
q-6 43 -26 46z" />
    <glyph glyph-name="W" unicode="W" horiz-adv-x="858" 
d="M321 58q38 0 107 108q-3 33 -3 72q-3 180 33 306q26 90 86 128q49 31 79 1q31 -31 18 -111q-7 -48 -43 -139q-33 -82 -82 -173q2 -86 13.5 -139t29.5 -53q36 0 84 93q47 91 82 199q34 110 44 172q11 67 8.5 111.5t-12.5 66.5t-26 22q-14 -1 -22 13q-6 16 19 20l15 1
q61 1 101 -46q40 -48 26 -147q-9 -62 -47 -158q-40 -96 -90 -185q-50 -90 -115 -155t-116 -65q-56 0 -76 122q-92 -122 -163 -122q-38 0 -61 62t-24 176v20q-75 -44 -154 -54q-30 -6 -32 14q0 8 4 9q99 15 182 65q4 200 54 322q49 121 122 109q35 -6 44.5 -58t-8.5 -127
q-24 -112 -120 -208v-45q-1 -95 11 -162q12 -65 32 -65zM355 678q-17 3 -33 -39.5t-26.5 -113.5t-15.5 -159q73 77 94 171q12 50 7 95q-4 43 -26 46zM536 548q-19 -73 -20 -224q75 156 88 234q12 76 -11 82q-18 5 -39 -38q-10 -24 -18 -54z" />
    <glyph glyph-name="X" unicode="X" horiz-adv-x="596" 
d="M88 10q-47 -2 -70.5 37.5t-17 90.5t37.5 81q15 16 56 1q31 -10 29 -25q-2 -4 -3 -5q-31 -33 -44.5 -67t-4 -57t40.5 -23q45 0 106.5 48.5t119.5 130.5l-40 97q-11 26 -73 191q-7 0 -10 1q-171 18 -190 91q-14 48 38 92q51 44 108 39q1 -1 4.5 -1t5.5 -1q45 -11 105 -144
q28 -63 48 -113l48 -124l13 -34q89 171 95 329v105q0 21 13 27.5t27 -3.5q87 -44 65 -160q-12 -65 -61 -166q-52 -106 -116 -195q77 -197 97 -203q27 -7 59 28q31 34 48 86q2 5 8 -2q12 -10 0 -36q-29 -65 -77 -101q-49 -39 -94 -25q-20 6 -42 45.5t-60 128.5
q-143 -164 -269 -164zM130 672q-26 5 -54 -19q-35 -32 -7 -63q31 -35 145 -52q-48 125 -84 134z" />
    <glyph glyph-name="Y" unicode="Y" horiz-adv-x="618" 
d="M306 58q47 -2 123 191q41 102 75 240l10 50.5l10.5 51.5t4.5 25q9 63 30.5 86t50.5 10q30 -14 20 -102q-3 -28 -88 -348q-43 -179 -96 -308q54 -10 111 -40q29 -16 17 -32q-4 -5 -8 -4q-58 32 -132 48q-99 -222 -227 -248q-53 -9 -90 20t-38 76t36 99q82 103 258 92
q45 119 77 261q-51 -117 -106.5 -177t-103.5 -49q-72 20 -53 241l3 27q-80 -43 -160 -46q-30 0 -30 17q0 7 5 9q98 5 189 55q23 197 87.5 325.5t130.5 106.5q33 -10 38 -62.5t-20 -125.5q-38 -115 -140 -208q-7 -42 -8 -61q-9 -95 -3 -156.5t27 -63.5zM210 -270
q75 16 152 207q-149 10 -216 -73q-44 -55 -22 -101q21 -47 86 -33zM402 691q-24 6 -54.5 -87t-51.5 -226q80 78 110 170q18 51 17 94q-2 45 -21 49z" />
    <glyph glyph-name="Z" unicode="Z" horiz-adv-x="433" 
d="M345 58q30 -2 59.5 28t44.5 78q1 4 8 -2q12 -10 0 -36q-31 -72 -78 -104.5t-101 -21.5q-64 14 -128 78q-64 -72 -106 -72q-30 -2 -41 30q-13 41 24 80q13 14 30 24q47 32 113 5q50 69 105 175q112 220 86 268q-6 12 -23 7q-73 -22 -144 -14q-28 -145 -88 -238
q-18 -28 -28 -15q-4 4 -2 5q36 59 57 129.5t21 126.5q-15 5 -27 12q-82 52 -35 99q36 30 55 42q13 9 24 11q16 1 25 -12t9 -51q0 -2 -0.5 -12.5t-0.5 -14.5q28 5 106 34q81 29 118 22q51 -7 11 -121q-19 -55 -47 -116l-74 -150q-54 -109 -122 -199q13 -7 49 -30t57 -32
q25 -12 43 -13zM68 54q24 0 64 43q-20 20 -28 20q-33 0 -45 -31q-10 -24 4 -31q1 -1 5 -1z" />
    <glyph glyph-name="bracketleft" unicode="[" 
d="M43 340q14 143 39.5 233.5t61.5 132t83.5 52t104.5 -7.5q41 -11 25 -27q-13 -13 -39 -12h-4q-39 7 -67 4t-48 -36.5t-34 -104t-27 -197.5q-23 -238 -19 -289q4 -72 46 -87q29 -11 90 -3q14 2 24 -10q17 -18 -18 -26q-2 -1 -5 -1.5t-5 -0.5q-49 -4 -86.5 -4.5t-63.5 15
t-42 40t-22 71t-4.5 108t10.5 150.5z" />
    <glyph glyph-name="backslash" unicode="\" horiz-adv-x="292" 
d="M212 -34q-2 0 -5.5 22.5t-12 82t-18.5 117.5q-19 113 -43 203q-52 195 -99 322q-5 12 2.5 20.5t25.5 8.5q33 0 60 -24q39 -38 72 -210q27 -137 44 -257q17 -133 20 -191q2 -66 -1 -88q-13 -28 -45 -6z" />
    <glyph glyph-name="bracketright" unicode="]" 
d="M350 376q-14 -144 -39.5 -234.5t-61 -132t-83 -51.5t-105.5 7q-42 11 -24 29q13 16 39 15q4 0 5 -1q39 -7 66.5 -4.5t47 36t33.5 103t27 196.5q24 235 20 291q-4 73 -47 88q-29 11 -89 3q-15 -3 -25 10q-14 16 21 23l7 1q43 8 76.5 5.5t58.5 -8.5t42 -26.5t27 -47
t13 -71.5t1 -100t-10 -131z" />
    <glyph glyph-name="asciicircum" unicode="^" horiz-adv-x="350" 
d="M308 534q-42 20 -77 52.5t-48 58.5q-12 -27 -49.5 -57.5t-95.5 -55.5l-2 4q-10 42 6 58q3 4 21 13t37.5 17.5t21.5 9.5q7 3 15.5 7.5l15.5 8t13 7t10 5.5l4 2q2 2 3 2h1h2q2 -2 3 -2q5 -4 55 -28q61 -31 70 -46q5 -11 4 -23.5t-4.5 -22.5t-5.5 -10z" />
    <glyph glyph-name="grave" unicode="`" horiz-adv-x="274" 
d="M237 533q-19 1 -27 9q-1 1 -11.5 9.5l-29 23.5l-34.5 28q-87 69 -101 88q-6 9 21 14h2q52 8 87 -2l11 -5q31 -44 63 -108q14 -25 20 -40q7 -19 -1 -17z" />
    <glyph glyph-name="a" unicode="a" horiz-adv-x="423" 
d="M10 240q25 140 86 205q59 65 116 42q33 -13 50 -69q11 61 15 74q1 3 16 0t33 -13t26 -24q16 -28 6 -94q-9 -54 -14 -75q-1 -7 -3 -16l-2 -8q-17 -90 -16 -148.5t19 -63.5q27 -7 59 28q31 34 48 86q1 4 8 -2q12 -10 0 -36q-27 -62 -75 -99q-50 -37 -96 -27q-29 7 -40 46
t-8 121q-31 -94 -75 -140.5t-95 -34.5q-42 9 -59 73t1 175zM123 43q20 -5 41.5 25t42.5 93.5t39 154.5q-5 104 -44 119q-27 11 -53.5 -36t-41.5 -137q-16 -93 -12 -152.5t28 -66.5z" />
    <glyph glyph-name="b" unicode="b" horiz-adv-x="380" 
d="M287 482q40 -13 54 -77.5t-7 -158.5q-14 -49 -30 -82q43 2 84.5 42t65.5 104q2 5 9 -1q12 -8 0 -35q-26 -64 -73 -103t-104 -43q-44 -75 -105 -109q-63 -35 -106 -25q-41 7 -60 68t-10 171q13 151 54 285q-17 -2 -31 0q-29 3 -28 21q1 9 6 9q29 -3 62 0q40 127 95 197
q54 67 112 45q40 -16 40 -59.5t-44 -107.5q-40 -53 -120 -85q-35 -131 -50 -267q-25 -240 23 -249q25 -3 50 27t43 93q-65 33 -74 137q-7 47 9 99.5t53 85.5t82 18zM183 298q4 -82 44 -112q4 9 7 31q0 2 1.5 9.5t2.5 13.5q3 18 7.5 42.5t5.5 31.5q3 21 6 53q4 53 -15 59
q-21 8 -41 -33q-21 -40 -18 -95zM259 739q-21 9 -47.5 -37.5t-51.5 -132.5q58 23 89 63q20 26 27 49.5t1.5 38t-18.5 19.5z" />
    <glyph glyph-name="c" unicode="c" horiz-adv-x="312" 
d="M264 34q-55 -34 -121 -34t-109 58t-31 180q14 135 86 200t148 49q35 -8 51 -38.5t7 -65.5q-9 -36 -33.5 -61.5t-55.5 -23.5q-28 -1 -42 50q-7 28 -2 28q50 -2 75 29q22 26 -4 43q-11 7 -31 10q-31 4 -62 -49q-30 -53 -41 -144q-10 -97 17 -156t83 -59q45 0 84 32t55 82
q0 5 7 -1q13 -10 1 -37q-28 -60 -82 -92z" />
    <glyph glyph-name="d" unicode="d" horiz-adv-x="424" 
d="M10 240q27 141 87 206q59 64 116 41q39 -16 55 -88h4q13 78 23 156t14.5 116.5t4.5 42.5q0 2 7 3t18.5 -1t23.5 -6.5t23.5 -17t17.5 -30.5q11 -12 1 -78q-3 -23 -12 -61q-24 -110 -37 -175q-8 -40 -22 -118q-13 -78 -10.5 -126.5t19.5 -53.5q27 -7 59 28t48 86q0 5 7 -1
q13 -10 1 -37q-29 -62 -76 -99q-49 -37 -95 -27q-64 13 -53 151q-66 -180 -165 -159q-42 9 -59.5 73t0.5 175zM124 43q19 -5 40.5 25t43 95t38.5 155q-3 102 -44 117q-27 11 -53 -36t-41 -137q-35 -206 16 -219z" />
    <glyph glyph-name="e" unicode="e" horiz-adv-x="344" 
d="M159 -3q-31 2 -59 15.5t-53.5 40t-37.5 74.5t-6 111q14 135 86 200t148 49q77 -16 82 -91q4 -68 -55 -140q-68 -79 -156 -86h-3l-3 -1q11 -53 41.5 -85.5t71.5 -36.5q48 -4 94 31q45 34 61 86q0 5 7 -1q13 -10 1 -37q-28 -63 -87 -98.5t-132 -30.5zM99 265q-4 -32 -1 -67
q61 19 100 110q34 78 24 126q-4 22 -20 24q-29 5 -61 -50q-32 -56 -42 -143z" />
    <glyph glyph-name="f" unicode="f" horiz-adv-x="239" 
d="M46 -305q-70 17 -58 231q8 126 41 296q3 12 13 69q-17 50 -16.5 69t20.5 29q8 4 20 8q100 405 197 402q31 -1 39 -54q7 -54 -18 -127q-45 -123 -134 -224l-27 -148l-5 -32q26 -17 80 16q52 33 84 74q2 5 10 -2q13 -10 -3 -34q-25 -36 -74 -67q-50 -33 -91 -35
q53 -168 53 -272q0 -123 -55 -178q-31 -31 -76 -21zM137 -116q0 109 -36 236q-21 -126 -29.5 -214t-5 -131.5t19.5 -43.5q24 0 38 48q13 48 13 105zM258 746q-26 0 -46 -66q-20 -67 -51 -229q66 88 91 167q11 33 16 62.5t2 47.5t-12 18z" />
    <glyph glyph-name="g" unicode="g" horiz-adv-x="387" 
d="M10 240q27 140 87 205q59 65 116 42q35 -14 51 -70q7 48 14 75q1 3 15.5 0t32.5 -13.5t27 -23.5q16 -30 7 -85q-2 -13 -12 -68q-27 -158 -66 -297q29 3 51 1q15 -2 22 -6.5t6 -12.5q-1 -7 -6 -9q-39 3 -82 -3q-45 -150 -97 -225q-53 -77 -106 -56q-25 8 -32.5 41.5t6 80
t46.5 86.5q37 47 108 79q17 71 30 157q-30 -79 -71 -117.5t-88 -28.5q-41 9 -59 73t0 175zM124 43q19 -5 40.5 25t43 94t38.5 154q-3 104 -44 119q-27 11 -53 -36t-41 -137q-16 -93 -12 -152.5t28 -66.5zM86 -254q23 -9 51 49q26 54 53 156q-48 -19 -78 -58t-38 -91
q-8 -50 12 -56z" />
    <glyph glyph-name="h" unicode="h" horiz-adv-x="431" 
d="M43 0q-64 4 -30 206l35 218l22 150q9 78 11 93q5 46 5 47q0 2 7.5 3t19 -1t23.5 -6.5t23.5 -17t17.5 -30.5q9 -25 2 -70q-5 -34 -32 -155q-22 -94 -41 -207q-2 -10 -3.5 -20.5t-1.5 -12.5q53 157 115 234.5t117 60.5q39 -12 42.5 -66.5t-28.5 -171.5q-23 -90 -21 -144
t24 -60q27 -7 59 28t48 86q1 4 8 -2q12 -10 0 -36q-27 -63 -77 -101q-49 -39 -94 -25q-71 23 -44 232q7 55 23 120l9 40q6 35 -12 41q-37 11 -115 -178q-40 -98 -78 -233v-1q1 -9 -8 -15.5t-26 -5.5z" />
    <glyph glyph-name="i" unicode="i" horiz-adv-x="195" 
d="M58 0q-34 10 -43 61q-10 46 -2 169q6 73 20 168q7 49 18.5 65t34.5 11q23 -7 36 -28q17 -28 8 -94q-3 -14 -15 -74q-1 -6 -3 -14t-2 -11q-17 -89 -16 -143t20 -60q27 -7 59 28t48 86q1 4 8 -2q12 -10 0 -36q-27 -63 -77 -101q-49 -39 -94 -25zM179 590q0 -27 -19 -46
t-47 -19q-27 0 -46.5 19t-19.5 46q0 28 19.5 47.5t46.5 19.5q28 0 47 -19.5t19 -47.5z" />
    <glyph glyph-name="j" unicode="j" horiz-adv-x="186" 
d="M14 145q13 86 16 124q8 73 15 123q27 140 91 60q10 -11 11 -30q2 -23 -1 -41q-1 -9 -3.5 -22t-4.5 -28q-4 -18 -6 -29q-27 -158 -66 -297q29 3 51 1q15 -2 22 -6.5t6 -12.5q-1 -7 -6 -9q-39 3 -82 -3q-46 -153 -98 -227.5t-105 -53.5q-37 13 -32 80q6 67 52 128
q35 49 108 80q16 66 32 163zM195 590q0 -27 -19 -46t-47 -19q-27 0 -46.5 19t-19.5 46q0 28 19.5 47.5t46.5 19.5q28 0 47 -19.5t19 -47.5zM-130 -254q23 -9 51.5 47.5t53.5 157.5q-51 -21 -79 -58q-31 -41 -38 -90q-8 -49 12 -57z" />
    <glyph glyph-name="k" unicode="k" horiz-adv-x="430" 
d="M43 0q-64 4 -30 206l35 218l22 150q9 78 11 93q5 46 5 47q3 1 18 3t38.5 -12.5t34.5 -42.5q9 -25 2 -70q-5 -34 -32 -155q-22 -94 -41 -207l-7 -41q55 148 123 226t116 78q36 0 52.5 -31t7.5 -80q-8 -46 -43 -91.5t-82 -72.5q36 0 54.5 -21.5t11.5 -56.5q-17 -89 19 -92
q24 -2 53 32q30 34 45 84q3 5 9 -2q10 -10 -1 -36q-28 -62 -68.5 -95.5t-87.5 -32.5q-36 0 -55.5 27.5t-10.5 71.5q12 52 -8 71q-21 14 -78 -3q-7 -2 -10.5 0t-2.5 9q3 16 12 24q41 8 86 54q44 47 53 89q8 32 4 52.5t-16 23.5q-18 6 -50 -35t-74 -132q-44 -93 -82 -228v-1
q2 -9 -7 -15.5t-26 -5.5z" />
    <glyph glyph-name="l" unicode="l" horiz-adv-x="202" 
d="M6 240q12 149 44 279q-31 -3 -54 -1q-28 3 -27 21q0 8 5 8q40 -3 84 3q34 129 84 200q48 69 101 48q25 -10 33.5 -36t-2.5 -63.5t-42 -76.5q-33 -42 -90 -71q-30 -141 -40 -273q-26 -219 12 -228q29 -9 64 27q33 34 50 87q3 5 9 -2q10 -10 -1 -36q-29 -64 -78 -101
q-51 -38 -100 -26q-70 16 -52 241zM227 746q-11 4 -24 -15.5t-26.5 -58t-26.5 -91.5q37 21 57 49q30 41 35.5 76t-15.5 40z" />
    <glyph glyph-name="m" unicode="m" horiz-adv-x="661" 
d="M500 433q-17 6 -46.5 -38.5t-69.5 -139.5q-40 -94 -82 -233v-1q0 -24 -34 -20q-33 2 -34 69q-3 66 15 163q6 46 24 119q7 31 8 40q6 35 -11 41q-37 11 -115 -178q-43 -106 -79 -233v-1q2 -9 -7 -15.5t-26 -5.5q-64 4 -30 206q8 45 14.5 100t9.5 93.5t6 71t3 35.5
q0 2 7.5 3t19 -1t23.5 -6.5t23.5 -17t17.5 -30.5q12 -37 -6 -111q-15 -60 -25 -113l-4 -29q54 156 115 232t115 59q79 -24 14 -239q-2 -6 -8 -31q56 147 114.5 217t109.5 53q39 -12 43 -66.5t-27 -171.5q-22 -90 -21 -144t23 -60q27 -7 59 28t47 86q3 5 9 -2q10 -10 -1 -36
q-28 -64 -76 -101q-49 -39 -94 -25q-71 23 -44 232q7 55 23 120l9 40q6 35 -12 41z" />
    <glyph glyph-name="n" unicode="n" horiz-adv-x="431" 
d="M43 0q-64 4 -30 206q22 124 29 245q3 53 4 55q0 2 7.5 3t19 -1t23.5 -7t23.5 -17t17.5 -30q12 -37 -6 -111q-15 -60 -25 -113q-2 -10 -3.5 -20.5t-1.5 -12.5q53 157 115 234.5t117 60.5q39 -12 42.5 -66.5t-28.5 -171.5q-23 -90 -21 -144t24 -60q27 -7 59 28t48 86
q1 4 8 -2q12 -10 0 -36q-27 -63 -77 -101q-49 -39 -94 -25q-71 23 -44 232q7 55 23 120l9 40q6 35 -12 41q-37 11 -115 -178q-40 -98 -78 -233v-1q1 -9 -8 -15.5t-26 -5.5z" />
    <glyph glyph-name="o" unicode="o" 
d="M343 257q-4 -44 -18 -85q35 8 69 46.5t57 98.5q3 5 10 -1q10 -9 0 -34q-23 -55 -63 -93t-86 -50q-28 -64 -74.5 -101.5t-103.5 -37.5q-62 0 -102 58q-41 59 -29 180q13 135 86 202q72 65 147 47q26 -6 11 -18q-20 -14 -45 -11q-29 4 -61 -50q-31 -54 -42 -143
q-10 -99 11 -157t72 -58q53 0 89 85q-49 3 -84.5 41.5t-38.5 93.5q-4 72 40 130q44 57 95 42q78 -21 60 -185zM220 306q1 -45 19.5 -81t46.5 -49q7 30 12 70q11 143 -25 164q-14 8 -26.5 -2.5t-19.5 -37.5t-7 -64z" />
    <glyph glyph-name="p" unicode="p" horiz-adv-x="407" 
d="M242 218l1 6q19 104 19 154q0 55 -22 55q-25 0 -68.5 -94t-93.5 -259q-12 -69 -12 -73l-11 -55q-21 -112 -21 -130q0 -9 1 -20t1 -12q-7 -13 -34 -13q-28 0 -36 35q-7 17 -7 68q1 43 12 103q69 396 74 508q0 3 12 3q36 0 59.5 -26.5t23.5 -63.5q0 -21 -6 -49l-9 -53
q82 193 165 193q34 0 53.5 -27.5t19.5 -80.5q0 -33 -11 -93q60 36 114 62q6 3 12 3q8 0 8 -9q0 -18 -14 -24q-71 -35 -130 -72q-33 -131 -97 -201q-65 -71 -117 -71q-33 0 -33 42q0 44 37.5 90.5t109.5 103.5zM154 22q44 5 80 156q-96 -79 -96 -130q0 -26 16 -26z" />
    <glyph glyph-name="q" unicode="q" 
d="M10 240q27 141 86 206q59 64 116 41q35 -14 51 -70q7 48 14 75q1 3 16 0t33 -13t26 -24q16 -30 7 -85q-2 -13 -12 -68l-15 -90q-9 -50 -12 -72q-26 -160 -51 -373q-3 -1 -18 -2.5t-38.5 13.5t-34.5 43q-11 29 5 108q2 13 27 125l17 82q-65 -164 -159 -144q-42 9 -59 73
t1 175zM123 43q20 -5 41.5 25t42.5 93.5t39 154.5q-5 104 -44 119q-27 11 -53 -36t-42 -137q-16 -93 -12 -152.5t28 -66.5z" />
    <glyph glyph-name="r" unicode="r" horiz-adv-x="402" 
d="M43 0q-64 4 -30 206q22 124 29 245q3 53 4 55q3 1 18.5 3t39 -12.5t34.5 -42.5q8 -13 4 -45q-5 -37 -10 -57q-3 -8 -17 -68q-12 -51 -17 -78l-5 -29q49 155 99.5 230.5t109.5 90.5q62 14 81 -22q18 -37 -29 -102q-60 -75 -48 -120q6 -24 34 -24q34 0 65 30.5t46 81.5
q1 4 8 -1q11 -10 1 -37q-22 -52 -61.5 -81t-87.5 -28q-58 1 -82 46q-24 43 -4 97q6 15 15.5 30.5t16.5 24.5t12 17t3.5 12.5t-10.5 6.5q-18 3 -45 -39.5t-64 -135.5q-42 -108 -76 -232v-1q1 -9 -8 -15.5t-26 -5.5z" />
    <glyph glyph-name="s" unicode="s" horiz-adv-x="305" 
d="M-1 106q28 48 48 134t24 151l-2 2q-40 14 -50.5 39t15.5 47q68 59 100 51q25 -6 12 -61l-9 -39q34 -16 65 -51t48 -77q68 48 129 78q21 10 22 -6q0 -16 -15 -24q-59 -28 -126 -76q11 -38 6 -70q-7 -85 -69 -145q-61 -61 -118 -61q-37 0 -42 39q-5 40 31 86q46 60 97 107
q-11 80 -49 127q-42 -137 -81 -229q-14 -32 -32 -26zM166 139q3 36 2 58q-39 -36 -66 -73q-14 -18 -18 -38.5t1.5 -34t17.5 -13.5q22 0 39.5 27t23.5 74z" />
    <glyph glyph-name="t" unicode="t" horiz-adv-x="230" 
d="M9 431q-2 32 13 46.5t55 14.5q14 54 30 98q15 42 59 28q24 -7 28 -19v-3q-10 -29 -29 -105q9 0 26.5 1t29.5 1.5t16 0.5q0 -3 1.5 -15.5t-6.5 -33t-24 -31.5q-15 -10 -61 -5q-15 -89 -19 -131q-22 -217 13 -228q30 -7 64 27t50 87q3 5 9 -2q10 -10 -1 -36
q-29 -63 -78 -99q-51 -37 -99 -27q-74 15 -53 240q7 94 27 184q-25 3 -37 0q-13 -3 -14 7z" />
    <glyph glyph-name="u" unicode="u" horiz-adv-x="425" 
d="M288 0q-29 9 -40 46.5t-9 118.5q-33 -94 -77.5 -139.5t-96.5 -33.5q-70 15 -53 248q8 112 26 219q9 47 40 32q32 -17 44 -36q10 -22 10 -39q0 -25 -4 -51q-7 -48 -11 -66q-1 -9 -4 -21t-3 -16q-19 -92 -16.5 -152t26.5 -67q21 -9 46.5 28t50.5 117t41 188l5 32
q8 50 19.5 65.5t33.5 9.5q21 -4 37 -28q15 -22 8 -86q0 -2 -8 -49q-4 -22 -12 -58q-18 -90 -17 -148.5t20 -63.5q27 -7 59 28q30 33 47 86q2 4 8 -2q12 -10 0 -36q-28 -64 -76 -101q-49 -39 -94 -25z" />
    <glyph glyph-name="v" unicode="v" horiz-adv-x="373" 
d="M343 304q-6 -42 -27 -86q72 4 116 127q2 5 11 1q14 -6 7 -33q-18 -58 -63 -97t-94 -42q-50 -83 -115 -138q-65 -56 -113 -44q-69 16 -53 248q8 112 26 219q9 47 40 32q32 -17 44 -36q10 -22 10 -39q0 -25 -4 -51q-7 -48 -11 -66q-1 -9 -4 -21t-3 -16
q-19 -92 -16.5 -151.5t26.5 -67.5q19 -7 60 35q40 40 74 100q-34 12 -57.5 46.5t-26.5 78.5q-4 75 35 136q39 58 88 51q76 -10 50 -186zM240 338q5 -86 38 -111q15 36 20 59q15 71 12 119t-23 51q-21 3 -35 -30.5t-12 -87.5z" />
    <glyph glyph-name="w" unicode="w" horiz-adv-x="578" 
d="M541 304q-8 -45 -29 -90q36 3 69.5 37.5t56.5 94.5q0 2 7 1t10.5 -7.5t-1.5 -26.5q-21 -56 -68 -96q-46 -40 -96 -43q-46 -82 -110 -138q-63 -56 -110 -44q-49 12 -56 118q-34 -62 -73.5 -94.5t-75.5 -23.5q-69 16 -53 248q9 106 27 219q8 47 39 32q32 -17 44 -36
q10 -16 10 -38q0 -34 -3 -52q-7 -43 -12 -65q-1 -6 -3.5 -19.5t-3.5 -18.5q-39 -203 10 -219q19 -6 46 42q27 47 48 122l3 33q10 122 28 172.5t49 42.5q57 -14 20 -193q-18 -92 -15 -151.5t27 -67.5q17 -7 55 34q37 42 69 101q-36 12 -61 44t-30 73q-9 72 32 134
q40 61 91 61q40 0 56 -55q17 -56 3 -131zM429 338q-3 -82 42 -113q14 33 23 69q14 62 10 109q-4 49 -23 52q-21 3 -36 -30t-16 -87z" />
    <glyph glyph-name="x" unicode="x" horiz-adv-x="453" 
d="M99 10q-47 -2 -70 37.5t-16.5 90.5t37.5 81q13 16 55 1q16 -6 23 -12t6 -13q-2 -4 -3 -5q-31 -33 -44.5 -67t-4 -57t40.5 -23q57 0 108 54q-21 46 -49 135l-12 40q-157 15 -169 90q-8 50 44 96q47 43 88 35q3 0 5 -1q42 -12 71.5 -65.5t60.5 -172.5q12 -43 19 -64
q32 84 35 184q1 53 7 89q8 47 39 31q34 -17 44 -36q21 -35 6 -107q-22 -121 -108 -223q32 -70 60 -78q27 -7 59 28t47 86q2 4 8 -2q12 -10 0 -36q-28 -64 -76 -101q-49 -39 -94 -25q-37 10 -69 65q-70 -55 -148 -55zM103 433q-15 3 -44 -21q-43 -37 -14 -68q30 -30 118 -43
q-25 92 -37 113q-10 16 -23 19z" />
    <glyph glyph-name="y" unicode="y" horiz-adv-x="390" 
d="M65 -8q-70 15 -53 248q9 104 26 219q9 47 40 32q32 -17 44 -36q10 -16 10 -38q0 -34 -3 -52q-7 -43 -12 -65q-1 -6 -3.5 -19.5t-3.5 -18.5q-40 -205 10 -219q21 -9 46 26.5t50 112.5t42 180q12 88 22 130q1 4 16 0.5t33 -14t26 -23.5q12 -20 9 -70q0 -4 -1 -11t-2.5 -16
t-1.5 -11q0 -4 -3.5 -22l-4.5 -23q-27 -158 -66 -297q29 3 51 1q14 -2 21 -6.5t6 -12.5q-2 -8 -5 -9q-40 3 -82 -3q-45 -150 -97 -225q-53 -77 -106 -56q-37 13 -32 80q4 66 51 128q36 48 108 80q13 52 31 157q-33 -80 -75.5 -118.5t-90.5 -28.5zM89 -254q12 -5 25 9
t26.5 43t26 67t25.5 86q-47 -19 -78 -58q-31 -41 -38 -90q-8 -50 13 -57z" />
    <glyph glyph-name="z" unicode="z" horiz-adv-x="437" 
d="M358 58q30 -2 60 28t44 78q2 4 8 -2q12 -10 0 -36q-31 -71 -78 -104t-100 -22q-60 12 -104 57q-53 -59 -91 -59q-16 -1 -28.5 7.5t-18.5 23.5t-5 32.5t13.5 36.5t35.5 33q54 36 122 0q24 37 57 98q53 95 45 138q-3 19 -20 14q-86 -26 -176 -15q-39 -145 -85 -238
q-16 -31 -33 -25q-4 1 -3 3q57 115 73 273q-2 0 -3 1q-39 18 -49.5 47.5t13.5 51.5q74 62 104 50q22 -7 10 -60l-7 -27q34 5 111 34q81 29 118 22q90 -16 -64 -272q-39 -66 -69 -107q40 -26 62 -39q35 -21 58 -22zM121 38q23 0 52 35q-25 28 -39 28q-30 0 -34 -28
q-3 -24 13 -33q6 -2 8 -2z" />
    <glyph glyph-name="braceleft" unicode="{" horiz-adv-x="479" 
d="M170 524q23 146 77 191q54 46 169 30q33 -4 31 -17q-3 -13 -31 -19q-6 -1 -15 -1q-72 7 -94 -18q-21 -24 -41 -135q-10 -60 -37 -108.5t-66 -75.5q66 -34 52 -120q-10 -76 -11.5 -135.5t26.5 -98.5t88 -46q13 -2 20 -16q11 -20 -17 -21q-10 0 -16 1q-232 28 -187 284
q14 61 6 92t-41 32q-7 0 -21 2q-21 3 -27.5 11.5t1 17t24.5 14.5q12 3 18 2q68 -13 92 134z" />
    <glyph glyph-name="bar" unicode="|" horiz-adv-x="270" 
d="M33 -34q-1 0 4 23l18.5 81.5t25.5 117.5q23 107 33 202q21 189 21 323q0 12 10.5 20.5t28.5 8.5q34 0 52 -25q19 -28 9 -113q-2 -21 -16 -96q-35 -192 -78 -353q-43 -160 -61 -183q-23 -29 -47 -6z" />
    <glyph glyph-name="braceright" unicode="}" horiz-adv-x="463" 
d="M294 192q-23 -140 -82.5 -207t-147.5 -61q-17 2 -25 5.5t-6 9.5q3 14 31 21q10 2 13 2q86 -2 120 199q20 123 103 183q-65 35 -52 122q18 120 -9.5 178t-116.5 69q-12 2 -21 16q-10 19 17 21q10 0 16 -1q127 -15 179 -76.5t32 -175.5q-14 -61 -6.5 -92.5t41.5 -31.5
q3 0 21 -2q33 -6 30 -20q-3 -15 -29 -23l-17 -2q-33 7 -56.5 -25.5t-34.5 -108.5z" />
    <glyph glyph-name="asciitilde" unicode="~" horiz-adv-x="382" 
d="M33 619q20 60 70 79q50 20 97 -24q40 -36 71.5 -32t41.5 40q5 14 23 17q8 1 11.5 -1.5t2.5 -9.5v-2q-16 -81 -70 -110q-53 -28 -103 14q-99 80 -116 22q-3 -9 -11 -10.5t-14 4t-3 13.5z" />
    <glyph glyph-name="exclamdown" unicode="&#xa1;" horiz-adv-x="331" 
d="M176 504q0 28 19.5 47.5t47.5 19.5q27 0 46.5 -19.5t19.5 -47.5q0 -27 -19.5 -46t-46.5 -19q-28 0 -47.5 19t-19.5 46zM276 343q0 -6 -41 -138.5t-49 -226.5q-7 -56 -7 -121q0 -7 -12 -14t-26 -7q-33 0 -53 25t-12 68q16 92 54 181q36 88 63 147t27 95q0 30 15 30
q20 0 31.5 -11.5t9.5 -27.5z" />
    <glyph glyph-name="cent" unicode="&#xa2;" horiz-adv-x="375" 
d="M275 574q-1 -12 -3 -44l-2.5 -29t-1.5 -21q30 -6 47.5 -29.5t19 -53t-6.5 -57.5t-28 -47t-46 -18q-29 -1 -43 53q-6 25 -2 25q47 -2 67 33q18 30 -6 51q-14 11 -36 14q-31 4 -62 -49q-30 -53 -41 -144q-23 -215 83 -215q36 0 69 37q32 35 46 77q1 2 5.5 -1t6.5 -11.5
t-4 -26.5q-20 -45 -55.5 -79t-78.5 -43q-13 -85 -44 -87q-3 -1 -4 1.5t0 7.5q7 49 8 76q-67 4 -103 64t-25 172q12 116 67 180q54 65 121 72q6 56 11 68q2 5 4.5 9t5.5 6.5t6 4t6 2.5t6 1.5t5.5 0.5h4h2.5h1z" />
    <glyph glyph-name="sterling" unicode="&#xa3;" horiz-adv-x="386" 
d="M70 -10q-28 0 -36 31q-9 35 21 59q12 10 29 14q4 2 14 4l9 2l-2 48q-57 8 -61 30q1 5 6 5h2q3 -1 51 -1q-1 11 -1 55q0 135 47.5 204t123.5 54q27 -3 43.5 -29t17.5 -56.5t-15.5 -57t-46.5 -28.5q-26 -7 -56 44q-11 20 -8 20q57 4 74 36q12 23 -14 37l-18 5
q-38 6 -52 -40.5t-14 -161.5q-1 -40 -3 -74q27 0 37 -3q15 -4 22.5 -13.5t7.5 -17.5v-7q-10 0 -38.5 -2.5t-34.5 -2.5q-3 -24 -9 -45q24 -4 69 -28q43 -24 57 -29q13 -3 27.5 3t18.5 18q2 -1 5 -4t8 -14t-1 -24q-11 -27 -38.5 -39t-57.5 -6q-36 6 -80 44q-24 21 -28 23
q-30 -56 -76 -53zM86 18q21 0 22 43h-14q-24 -5 -23 -25q3 -16 15 -18z" />
    <glyph glyph-name="currency" unicode="&#xa4;" horiz-adv-x="368" 
d="M72 780q1 -1 4.5 -5l9.5 -10.5l12 -13.5q7 -8 34 -41q30 22 66 20q24 -3 43 -12q35 29 48 34q15 4 25 1.5t16.5 -7t4.5 -5.5l-3 -3q-3 -2 -8 -7t-11 -10q-18 -17 -35 -30q25 -25 23 -65q-3 -31 -25 -57q28 -34 31 -45q4 -16 1.5 -26t-7 -16t-5.5 -4q-3 5 -22 25
q-23 25 -32 36q-32 -17 -60 -14q-30 2 -53 16q-34 -30 -50 -35q-15 -4 -25 -1.5t-16.5 7t-4.5 5.5l62 54q-18 25 -15 57q3 28 20 51q-36 40 -39 55q-4 15 -1.5 25t7 16.5t5.5 4.5zM219 627q2 30 -4.5 52.5t-17.5 24.5q-19 4 -30 -42q-13 -58 1 -93q6 -15 16 -15q12 0 22 21
t13 52z" />
    <glyph glyph-name="yen" unicode="&#xa5;" horiz-adv-x="474" 
d="M139 89q-1 2 1.5 3.5t6.5 1.5h77l3 22q-80 1 -88 30q1 6 8 6q22 -2 68 2l-41 87l-30 65.5t-21 47.5l-19 37q-20 34 -41 35q-17 2 -27 24q-14 30 15 38q15 5 38 2q43 -4 81 -53q36 -46 86 -160l38 -89q39 77 44 183q0 54 7 90q8 49 39 31q30 -16 44 -36q21 -37 6 -107
q-18 -91 -91 -185q21 1 34 -2q14 -4 22 -13t9.5 -16t-0.5 -8q-50 -4 -95 -7q-1 -4 -1 -18q50 4 66 -2q29 -8 29 -38l-97 -5v-48q0 -12 -10.5 -20.5t-27.5 -8.5q-38 0 -52 24q-5 13 -1 55q-74 6 -80 32z" />
    <glyph glyph-name="brokenbar" unicode="&#xa6;" horiz-adv-x="222" 
d="M37 -23q-5 26 -4 42q0 5 1 18t2 37l2 48q3 84 3 159q0 12 10.5 20.5t28.5 8.5q33 0 51 -25q22 -29 -4 -158q-27 -128 -51 -152q-7 -7 -12 -9.5t-9 -1.5t-8 4.5zM92 409q-5 5 -5 35q-1 15 1 117q1 58 1 152q0 12 10.5 20.5t28.5 8.5q33 0 51 -25q22 -29 -1 -158
q-22 -127 -47 -152q-3 -3 -5.5 -5t-4.5 -3t-4.5 -1.5t-3.5 -1t-3.5 0t-3 1t-3 2t-3.5 2.5t-4 3.5t-4 3.5z" />
    <glyph glyph-name="section" unicode="&#xa7;" horiz-adv-x="488" 
d="M422 204q-5 -42 -39 -73.5t-85 -41.5q54 -60 45 -137q-6 -58 -62 -93q-58 -35 -133 -22q-50 7 -85 50q-34 43 -30 85q4 37 27.5 61t58.5 21q25 -2 40 -17.5t18.5 -30t-0.5 -14.5q-37 6 -59 -11.5t-22 -45.5q-2 -59 65 -71q89 -17 100 61q5 32 -15.5 66.5t-55.5 59.5
q-79 58 -72 155q4 45 36.5 81.5t80.5 46.5q-44 53 -38 124q6 64 61 104t131 24q48 -10 63 -56q13 -46 -9 -86q-24 -41 -69 -41q-15 0 -31.5 16.5t-25.5 33t-6 16.5q59 -5 81 30q16 26 -8 46q-13 10 -34 13q-38 6 -67 -17t-29 -58q0 -37 51 -81l46 -36q37 -28 57 -70.5
t14 -91.5zM269 303l-6 4q-35 2 -61.5 -21t-26.5 -56q0 -18 16 -41.5t34 -37.5q8 -8 46 -37q60 0 69 64q4 32 -16 65.5t-55 59.5z" />
    <glyph glyph-name="dieresis" unicode="&#xa8;" horiz-adv-x="361" 
d="M329 590q0 -27 -19.5 -46t-47.5 -19q-27 0 -46 19t-19 46q0 28 19 47.5t46 19.5q28 0 47.5 -19.5t19.5 -47.5zM164 590q0 -27 -19.5 -46t-46.5 -19t-46.5 19t-19.5 46q0 28 19.5 47.5t46.5 19.5t46.5 -19.5t19.5 -47.5z" />
    <glyph glyph-name="copyright" unicode="&#xa9;" horiz-adv-x="237" 
d="M115 227h1q43 0 72.5 -30t29.5 -74q0 -45 -29.5 -75.5t-73.5 -30.5q-43 0 -73 31t-30 75q0 43 30 73.5t73 30.5zM177 188q-28 26 -62 26t-61 -27t-25 -65q0 -38 25 -64t61 -27q36 0 61.5 26.5t25.5 65.5t-25 65zM154 163q-12 6 -31 6q-34 3 -43 -31q-10 -33 12 -54
q13 -12 32 -10q14 0 31 6l1 -3q2 -4 3 -7l1 -3q-21 -8 -40 -8q-27 0 -44 17t-17 44t18.5 45.5t45.5 18.5q19 0 35 -6q0 -15 -4 -15z" />
    <glyph glyph-name="ordfeminine" unicode="&#xaa;" horiz-adv-x="423" 
d="M10 240q25 140 86 205q59 65 116 42q33 -13 50 -69q11 61 15 74q1 3 16 0t33 -13t26 -24q16 -28 6 -94q-9 -54 -14 -75q-1 -7 -3 -16l-2 -8q-17 -90 -16 -148.5t19 -63.5q27 -7 59 28q31 34 48 86q1 4 8 -2q12 -10 0 -36q-27 -62 -75 -99q-50 -37 -96 -27q-29 7 -40 46
t-8 121q-31 -94 -75 -140.5t-95 -34.5q-42 9 -59 73t1 175zM123 43q20 -5 41.5 25t42.5 93.5t39 154.5q-5 104 -44 119q-27 11 -53.5 -36t-41.5 -137q-16 -93 -12 -152.5t28 -66.5z" />
    <glyph glyph-name="guillemotleft" unicode="&#xab;" horiz-adv-x="299" 
d="M119 235l-2 4q-1 3 3 7q15 21 42 72l7 14.5l14.5 29.5t15.5 29q10 19 19 28q23 22 46 8l2 -2l-40 -80q-13 -25 -28 -45q-31 -45 -55 -60q19 -13 39 -62q32 -74 48 -120q0 -2 -7 -5t-18.5 -1.5t-21.5 11.5q-17 20 -38 98q-17 57 -26 74zM34 235l-2 4q0 1 3 7q11 15 43 72
q1 4 25 52q16 35 31 49q15 11 30 11.5t17 -4.5l1 -1l-15 -30.5t-27 -51.5t-27 -43q-31 -45 -55 -60q19 -11 40 -62l48 -120q0 -2 -7.5 -5t-19.5 -1.5t-21 11.5q-12 15 -38 98q-16 63 -26 74z" />
    <glyph glyph-name="logicalnot" unicode="&#xac;" horiz-adv-x="277" 
d="M33 207q-2 23 12 33t50 10q92 0 144 7q2 0 4 -3.5t2.5 -11.5t-3.5 -20v-2l-3 -10q-16 -53 -19 -79q-1 0 -5.5 -1t-12 3t-12.5 13q-9 16 6 48q-27 -3 -81 4q-53 6 -72 4q-9 -1 -10 5z" />
    <glyph glyph-name="registered" unicode="&#xae;" horiz-adv-x="146" 
d="M29 223q27 25 62.5 11t35.5 -50q0 -24 -16.5 -40t-40.5 -16t-41 16t-17 40q0 22 17 39zM70 228q-19 0 -31.5 -13t-12.5 -31q0 -19 12.5 -32t31.5 -13q18 -1 30.5 12t12.5 33q0 18 -12.5 31t-30.5 13zM67 177h-6v-23h-13v56q14 2 22 2q24 0 24 -16q0 -10 -12 -14
q8 -3 11 -13q2 -13 4 -15h-15l-4 14q0 9 -11 9zM68 202h-6v-16h5q8 0 11.5 4t0.5 8t-11 4z" />
    <glyph glyph-name="overscore" unicode="&#xaf;" horiz-adv-x="277" 
d="M33 562q-2 23 12 33t49 9q93 0 145 7q2 0 4 -8.5t-1 -22.5t-15 -26q-29 -31 -125 -6q-42 11 -59 9q-9 -1 -10 5z" />
    <glyph glyph-name="degree" unicode="&#xb0;" horiz-adv-x="286" 
d="M151 650q45 -4 75.5 -33.5t27.5 -70.5q-4 -42 -40 -73q-38 -32 -80 -28q-45 4 -75 33.5t-26 69.5q5 43 40 74t78 28zM172 547q2 30 -4.5 52.5t-17.5 24.5q-12 1 -22.5 -20t-13.5 -52q-2 -32 4.5 -54.5t18.5 -23.5q12 0 22 21t13 52z" />
    <glyph glyph-name="plusminus" unicode="&#xb1;" horiz-adv-x="277" 
d="M145 146q-23 -1 -32 13.5t-7 50.5v5l-4 2q-43 13 -59 9q-9 -1 -10 5q-2 23 12 33t50 10h14q1 27 -2 72q0 3 11 5t25.5 -0.5t22.5 -10.5q16 -16 9 -65q31 1 64 6q3 0 5 -9t-1.5 -23t-15.5 -26q-17 -17 -65 -17q-12 -42 -12 -51q3 -9 -5 -9zM33 71q-2 23 12 33t50 10
q92 0 144 7q3 0 5 -9t-1.5 -23t-15.5 -26q-42 -30 -125 -6q-43 13 -59 9q-9 -1 -10 5z" />
    <glyph glyph-name="acute" unicode="&#xb4;" horiz-adv-x="302" 
d="M42 533q-14 1 -9 9q17 18 49 61q55 72 75 88t80 8q35 -6 32 -14q0 -1 -2 -3q-32 -26 -129 -92q-86 -60 -96 -57z" />
    <glyph glyph-name="mu" unicode="&#xb5;" horiz-adv-x="425" 
d="M288 0q-29 9 -40 46.5t-9 118.5q-33 -94 -77.5 -139.5t-96.5 -33.5q-16 3 -26 15q-30 -98 -44 -115q-19 -24 -39 -6q-1 0 1.5 15t11.5 59.5t17 89.5q15 83 24 167q0 1 2 23q8 112 26 219q9 47 40 32q32 -17 44 -36q10 -22 10 -39q0 -25 -4 -51q-7 -48 -11 -66
q-1 -9 -4 -21t-3 -16q-19 -92 -16.5 -152t26.5 -67q21 -9 46.5 28t50.5 117t41 188l5 32q8 50 19.5 65.5t33.5 9.5q21 -4 37 -28q15 -22 8 -86q0 -2 -8 -49q-4 -22 -12 -58q-18 -90 -17 -148.5t20 -63.5q27 -7 59 28q30 33 47 86q2 4 8 -2q12 -10 0 -36q-28 -64 -76 -101
q-49 -39 -94 -25z" />
    <glyph glyph-name="paragraph" unicode="&#xb6;" horiz-adv-x="754" 
d="M398 530q7 -21 3 -59q-6 -60 -13 -96l-24 -132q-2 -12 -14 -78q0 -5 -2 -11q-2 -9 -7.5 -44.5t-6.5 -39.5q-1 -8 -5.5 -34l-7.5 -44q-8 -37 -14 -84q-5 -32 -3 -49q1 -9 -8 -15.5t-26 -5.5q-61 6 -20 209q13 77 14 88q-106 6 -169 50.5t-63 122.5q0 97 116 186t273 95
q98 4 168 -33t104 -98q42 -68 20 -156q-7 -22 -32 -38.5t-51 -12.5q-44 6 -54 61q-8 39 4 49q2 3 4 1q60 -15 62 -15q12 -1 16 10q20 75 -56 140q-78 65 -216 55h-4l-3 -1q9 -7 15 -21zM557 471q2 -10 5 -37q0 -12 -8 -55q-3 -16 -16 -76q-6 -25 -22 -102q-13 -64 -24 -131
q-6 -39 -13 -76q-11 -56 -15 -87q-4 -27 -2 -48q0 -22 -34 -21q-62 6 -21 209q18 94 31 201q13 111 17 170q5 73 5 74q1 6 20 12.5t42.5 0t34.5 -33.5z" />
    <glyph glyph-name="cedilla" unicode="&#xb8;" horiz-adv-x="193" 
d="M63 16h21l-24 -59q36 12 67 -2t33 -46q2 -39 -24.5 -70.5t-68.5 -39.5q-18 -3 -25.5 6.5t-5.5 20.5l1 12q43 6 67 25.5t24 42.5q0 19 -18 26t-48 -4q-16 -6 -23 -6q-1 0 -2 1t-3 1q-5 3 0 14q11 22 29 78z" />
    <glyph glyph-name="guillemotright" unicode="&#xbb;" horiz-adv-x="299" 
d="M177 246q1 -1 1 -4l-2 -7q-10 -11 -42 -71q0 -1 -13 -27l-25 -48.5t-18 -26.5q-23 -20 -45 -8q-5 2 -3 3q1 1 8 16.5t16 33.5l16 31q15 26 28 44q35 49 55 59q-19 15 -39 62q-31 71 -48 121q0 2 7 5t18.5 1t21.5 -12q18 -20 38 -97q16 -55 26 -75zM262 246v-2l1 -2l-2 -7
q-10 -12 -43 -71q-5 -6 -24 -52q-18 -37 -32 -50q-23 -20 -45 -7l-3 2l15 30.5t27 51.5t27 43q35 49 55 59q-18 13 -40 62l-48 121q0 3 7.5 5.5t19.5 0.5t21 -12q13 -15 38 -97q17 -63 26 -75z" />
    <glyph glyph-name="onequarter" unicode="&#xbc;" horiz-adv-x="799" 
d="M241 734q3 -3 -12 -89q-12 -79 -14 -91q-14 -120 -14 -267q0 -12 -10.5 -20.5t-28.5 -8.5q-34 0 -52 25q-30 41 7 201q15 64 61 191q0 2 1 5l1 2q-1 1 -1.5 0t-2 -2.5t-2.5 -4.5q-32 -58 -35 -62q-2 -4 -8.5 -13l-10.5 -15q-23 -30 -50 -35q-14 -2 -21 6t-7.5 14t-0.5 12
q42 16 69 48q30 35 68 97q24 41 63 7zM163 -34l11 24l37.5 79.5l54.5 118.5q51 117 82 203q74 205 103 322q3 12 15.5 20.5t30.5 8.5q33 0 45 -24q9 -20 -4 -65.5t-54 -144.5q-86 -199 -166 -353q-84 -163 -106 -183q-31 -28 -49 -6zM720 474q1 -1 -20 -151
q-12 -85 -21 -177q0 -1 -0.5 -5t-1 -11.5t-0.5 -14.5l-2.5 -24t-1.5 -17q55 -4 88 4q4 0 6 -12.5t-3.5 -30t-19.5 -28.5q-23 -18 -75 -10q-4 -63 -4 -126q0 -12 -10.5 -20.5t-28.5 -8.5q-34 0 -52 25q-22 29 -4 151q-136 28 -175 21q-7 0 -11 1t-3.5 8t12.5 20q0 3 4 4
q40 47 268 395q9 14 27.5 15.5t27.5 -8.5zM460 89q31 1 121 -6v1q28 156 84 331q3 6 2 7l-5 -4l-1 -3q-146 -256 -201 -326z" />
    <glyph glyph-name="onehalf" unicode="&#xbd;" horiz-adv-x="877" 
d="M241 736q3 -3 -12 -89q-12 -79 -14 -91q-14 -120 -14 -267q0 -12 -10.5 -20.5t-28.5 -8.5q-34 0 -52 25q-30 41 7 201q15 64 61 191q0 2 1 5l1 2q-1 1 -1.5 0t-2 -2.5t-2.5 -4.5q-32 -58 -35 -62q-2 -4 -8.5 -13l-10.5 -15q-23 -30 -50 -35q-14 -2 -21 6t-7.5 14t-0.5 12
q42 16 69 48q30 35 68 97q24 41 63 7zM155 -34l11 24l37.5 79.5l54.5 118.5q51 117 82 203q74 205 103 322q3 12 15.5 20.5t30.5 8.5q33 0 45 -24q9 -20 -4 -65.5t-54 -144.5q-86 -199 -166 -353q-84 -163 -106 -183q-31 -28 -49 -6zM844 337q-3 -66 -58 -142
q-58 -80 -118 -127q26 -8 51 -10q37 -2 63.5 7.5t32.5 27.5q1 5 8 -2q11 -11 0 -37q-37 -82 -171 -54q-50 11 -61 15q-40 -23 -62 -23q-20 0 -33 17t-10 39t24 35q34 22 81 11q26 -8 42 -14q101 95 114 212q8 69 -8.5 113.5t-50.5 48.5q-36 6 -69 -30t-54 -104
q-1 -11 -22 13q-37 42 -31 74q1 4 2 7q13 39 65.5 59t123.5 11q149 -20 141 -147z" />
    <glyph glyph-name="threequarters" unicode="&#xbe;" horiz-adv-x="1014" 
d="M320 301q7 85 -41 153q-49 -13 -80 -6q-32 6 -41 28t8.5 40.5t51.5 16.5q33 -1 82 -25q36 36 42 86q9 61 -9 97.5t-55 41.5q-37 4 -70 -32t-54 -103q-1 -10 -23 13q-37 41 -31 73q0 4 2 8q13 39 65.5 59t124.5 11q77 -9 116 -52t30 -103q-14 -81 -96 -126q74 -59 72 -144
q-2 -107 -81 -167q-79 -61 -175 -52q-54 5 -90 43.5t-36 92.5q0 66 45 110q44 44 94 38q49 -5 47 -56q-3 -26 -10 -30q-28 6 -56 6t-51.5 -18t-28.5 -50q-7 -42 21 -73t75 -35q65 -6 105 40q41 46 47 115zM206 473q22 -7 53 7q-22 25 -48 28q-16 1 -24 -6t-3 -16t22 -13z
M386 -34l11 24l37.5 79.5l54.5 118.5q51 117 82 203q74 205 103 322q3 12 15.5 20.5t30.5 8.5q33 0 45 -24q9 -20 -4 -65.5t-54 -144.5q-86 -199 -166 -353q-84 -163 -106 -183q-31 -28 -49 -6zM935 474q1 -1 -20 -151q-12 -85 -21 -177q0 -1 -0.5 -5t-1 -11.5t-0.5 -14.5
l-2.5 -24t-1.5 -17q55 -4 88 4q4 0 6 -12.5t-3.5 -30t-19.5 -28.5q-23 -18 -75 -10q-4 -63 -4 -126q0 -12 -10.5 -20.5t-28.5 -8.5q-34 0 -52 25q-22 29 -4 151q-136 28 -175 21q-7 0 -11 1t-3.5 8t12.5 20q0 3 4 4q40 47 268 395q9 14 27.5 15.5t27.5 -8.5zM675 89
q31 1 121 -6v1q28 156 84 331q3 6 2 7l-5 -4l-1 -3q-146 -256 -201 -326z" />
    <glyph glyph-name="questiondown" unicode="&#xbf;" horiz-adv-x="416" 
d="M208 495q0 28 19.5 47.5t46.5 19.5t46.5 -19.5t19.5 -47.5q0 -27 -19.5 -46t-46.5 -19t-46.5 19t-19.5 46zM40 -18q0 33 25 76q24 42 52 73l69 73q28 28 52 55q21 25 16 84q-4 30 8 30q19 0 35.5 -14.5t16.5 -29.5q0 -20 -35 -64q-53 -66 -72 -93q-23 -32 -43 -76
q-25 -51 -26 -91q-3 -57 16.5 -97.5t52.5 -40.5q38 0 65.5 39.5t39.5 109.5q1 8 26 -11q42 -36 37 -72v-2q-7 -41 -57 -68.5t-121 -26.5q-68 1 -112.5 40t-44.5 106z" />
    <glyph glyph-name="Agrave" unicode="&#xc0;" horiz-adv-x="545" 
d="M114 197q-2 31 17.5 44.5t67.5 13.5h23l24 65q62 180 100 280q33 85 52 109q3 8 30.5 9t62 -13t51.5 -43q11 -22 1 -66q-11 -46 -39 -144q-28 -99 -45 -195q47 1 51 3q1 -3 2.5 -15.5t-6.5 -33t-24 -31.5q-13 -10 -36 -13q-11 -108 18 -116q27 -7 59 28t47 86q2 5 8 -2
q12 -10 0 -37q-27 -62 -75 -99t-95 -26q-70 16 -52 172q-92 14 -122 15q-48 -105 -97 -153t-93 -34q-21 6 -33.5 27t-8.5 47q6 44 60 68q34 15 42 6q1 -1 1 -3q-8 -31 -11 -59q-3 -22 12 -27q30 -9 90 131q-52 3 -67 -1q-14 -8 -15 7zM262 255h108l69 393q-28 -9 -64 -85
q-38 -80 -92 -246zM561 741q-19 1 -27 9q-1 1 -11.5 9.5l-29 23.5l-34.5 28q-87 69 -101 88q-6 9 21 14h2q52 8 87 -2q9 -2 11 -5q31 -44 63 -108q14 -25 20 -40q7 -19 -1 -17z" />
    <glyph glyph-name="Aacute" unicode="&#xc1;" horiz-adv-x="545" 
d="M114 197q-2 31 17.5 44.5t67.5 13.5h23l24 65q62 180 100 280q33 85 52 109q3 8 30.5 9t62 -13t51.5 -43q11 -22 1 -66q-11 -46 -39 -144q-28 -99 -45 -195q47 1 51 3q1 -3 2.5 -15.5t-6.5 -33t-24 -31.5q-13 -10 -36 -13q-11 -108 18 -116q27 -7 59 28t47 86q2 5 8 -2
q12 -10 0 -37q-27 -62 -75 -99t-95 -26q-70 16 -52 172q-92 14 -122 15q-48 -105 -97 -153t-93 -34q-21 6 -33.5 27t-8.5 47q6 44 60 68q34 15 42 6q1 -1 1 -3q-8 -31 -11 -59q-3 -22 12 -27q30 -9 90 131q-52 3 -67 -1q-14 -8 -15 7zM262 255h108l69 393q-28 -9 -64 -85
q-38 -80 -92 -246zM420 757q-14 1 -9 9q18 17 49 61q55 72 75 88t80 8q35 -6 32 -14q0 -1 -2 -3q-32 -26 -129 -92q-86 -60 -96 -57z" />
    <glyph glyph-name="Acircumflex" unicode="&#xc2;" horiz-adv-x="545" 
d="M114 197q-2 31 17.5 44.5t67.5 13.5h23l24 65q62 180 100 280q33 85 52 109q3 8 30.5 9t62 -13t51.5 -43q11 -22 1 -66q-11 -46 -39 -144q-28 -99 -45 -195q47 1 51 3q1 -3 2.5 -15.5t-6.5 -33t-24 -31.5q-13 -10 -36 -13q-11 -108 18 -116q27 -7 59 28t47 86q2 5 8 -2
q12 -10 0 -37q-27 -62 -75 -99t-95 -26q-70 16 -52 172q-92 14 -122 15q-48 -105 -97 -153t-93 -34q-21 6 -33.5 27t-8.5 47q6 44 60 68q34 15 42 6q1 -1 1 -3q-8 -31 -11 -59q-3 -22 12 -27q30 -9 90 131q-52 3 -67 -1q-14 -8 -15 7zM262 255h108l69 393q-28 -9 -64 -85
q-38 -80 -92 -246zM346 732q-11 1 -8 9q18 19 42 61q46 72 63 88q14 14 57 9q16 0 34 -5l10 -5q32 -54 53 -108q14 -31 17 -40q6 -19 -2 -17q-14 1 -22 9l-63 61q-6 5 -21.5 19.5l-22.5 21.5q-17 -16 -56 -46q-73 -59 -81 -57z" />
    <glyph glyph-name="Atilde" unicode="&#xc3;" horiz-adv-x="545" 
d="M114 197q-2 31 17.5 44.5t67.5 13.5h23l24 65q62 180 100 280q33 85 52 109q3 8 30.5 9t62 -13t51.5 -43q11 -22 1 -66q-11 -46 -39 -144q-28 -99 -45 -195q47 1 51 3q1 -3 2.5 -15.5t-6.5 -33t-24 -31.5q-13 -10 -36 -13q-11 -108 18 -116q27 -7 59 28t47 86q2 5 8 -2
q12 -10 0 -37q-27 -62 -75 -99t-95 -26q-70 16 -52 172q-92 14 -122 15q-48 -105 -97 -153t-93 -34q-21 6 -33.5 27t-8.5 47q6 44 60 68q34 15 42 6q1 -1 1 -3q-8 -31 -11 -59q-3 -22 12 -27q30 -9 90 131q-52 3 -67 -1q-14 -8 -15 7zM262 255h108l69 393q-28 -9 -64 -85
q-38 -80 -92 -246zM363 799q11 57 58 79q46 23 94 -13q42 -27 70.5 -20.5t35.5 39.5q3 14 20 18q14 4 14 -9v-2q-7 -74 -55 -105q-45 -30 -99 2q-100 60 -112 8q-3 -13 -18 -9q-11 2 -8 12z" />
    <glyph glyph-name="Adieresis" unicode="&#xc4;" horiz-adv-x="545" 
d="M114 197q-2 31 17.5 44.5t67.5 13.5h23l24 65q62 180 100 280q33 85 52 109q3 8 30.5 9t62 -13t51.5 -43q11 -22 1 -66q-11 -46 -39 -144q-28 -99 -45 -195q47 1 51 3q1 -3 2.5 -15.5t-6.5 -33t-24 -31.5q-13 -10 -36 -13q-11 -108 18 -116q27 -7 59 28t47 86q2 5 8 -2
q12 -10 0 -37q-27 -62 -75 -99t-95 -26q-70 16 -52 172q-92 14 -122 15q-48 -105 -97 -153t-93 -34q-21 6 -33.5 27t-8.5 47q6 44 60 68q34 15 42 6q1 -1 1 -3q-8 -31 -11 -59q-3 -22 12 -27q30 -9 90 131q-52 3 -67 -1q-14 -8 -15 7zM262 255h108l69 393q-28 -9 -64 -85
q-38 -80 -92 -246zM645 822q0 -27 -19.5 -46t-47.5 -19q-27 0 -46 19t-19 46q0 28 19 47.5t46 19.5q28 0 47.5 -19.5t19.5 -47.5zM480 822q0 -27 -19.5 -46t-46.5 -19t-46.5 19t-19.5 46q0 28 19.5 47.5t46.5 19.5t46.5 -19.5t19.5 -47.5z" />
    <glyph glyph-name="Aring" unicode="&#xc5;" horiz-adv-x="545" 
d="M114 197q-2 31 17.5 44.5t67.5 13.5h23l24 65q62 180 100 280q33 85 52 109q3 8 30.5 9t62 -13t51.5 -43q11 -22 1 -66q-11 -46 -39 -144q-28 -99 -45 -195q47 1 51 3q1 -3 2.5 -15.5t-6.5 -33t-24 -31.5q-13 -10 -36 -13q-11 -108 18 -116q27 -7 59 28t47 86q2 5 8 -2
q12 -10 0 -37q-27 -62 -75 -99t-95 -26q-70 16 -52 172q-92 14 -122 15q-48 -105 -97 -153t-93 -34q-21 6 -33.5 27t-8.5 47q6 44 60 68q34 15 42 6q1 -1 1 -3q-8 -31 -11 -59q-3 -22 12 -27q30 -9 90 131q-52 3 -67 -1q-14 -8 -15 7zM262 255h108l69 393q-28 -9 -64 -85
q-38 -80 -92 -246zM501 966q45 -4 75.5 -33.5t27.5 -70.5q-4 -42 -40 -73q-38 -32 -80 -28q-45 4 -75 33.5t-26 69.5q5 43 40 74t78 28zM522 863q2 30 -4.5 52.5t-17.5 24.5q-12 1 -22.5 -20t-13.5 -52q-2 -32 4.5 -54.5t18.5 -23.5q12 0 22 21t13 52z" />
    <glyph glyph-name="AE" unicode="&#xc6;" horiz-adv-x="791" 
d="M597 292q-41 -3 -83 14q-41 -43 -46 -112q-5 -77 32 -124q36 -49 106 -43q43 4 73 40q31 35 32 75q2 41 -20 73q-1 1 4 5q22 10 40 -18q14 -21 16 -50.5t-9.5 -60t-33.5 -57t-59.5 -44.5t-82.5 -21q-90 -5 -144 51q-56 56 -50 138q0 2 2 12l-6 1q-6 1 -19.5 3t-28.5 4
q-65 9 -86 10q-48 -105 -97 -153t-93 -34q-21 6 -33.5 27t-8.5 47q6 44 60 68q34 15 42 6q1 -1 1 -3q-8 -31 -11 -59q-3 -22 12 -27q30 -9 90 131q-52 3 -67 -1q-14 -8 -15 7q-2 31 17.5 44.5t67.5 13.5h23l24 65q62 180 100 280q33 85 52 109q4 5 19 9.5t34.5 6t38.5 -10.5
t28 -38v-6q85 61 188 36q44 -12 64.5 -49.5t11.5 -80.5q-10 -43 -42 -74.5t-74 -31.5q-35 -3 -60 58q-14 33 -8 35q82 -6 119 34q29 31 3 57q-15 18 -49 24q-52 9 -101 -36q-51 -46 -64 -112l-4 -43q-2 -86 29 -131q47 19 87 17q45 -1 51 -28q6 -25 -30 -42q-19 -10 -42 -11
zM370 255l69 393q-28 -9 -64 -85q-38 -80 -92 -246l-21 -62h108zM610 350q-29 3 -60 -16q21 -18 52 -15q36 3 36 16q0 12 -28 15z" />
    <glyph glyph-name="Ccedilla" unicode="&#xc7;" horiz-adv-x="390" 
d="M165 -23q-78 10 -128 109q-49 98 -33 258q10 101 57 193q45 91 116 141q70 49 144 28q37 -11 57 -44t19.5 -73t-12.5 -78t-40 -63.5t-63 -25.5q-36 -3 -60 56q-13 33 -8 37q74 -6 115 47q32 43 14 80q-15 30 -57 36q-50 6 -90 -43q-43 -50 -65 -119q-24 -75 -31 -144
q-16 -145 17 -245t104 -100q31 0 53.5 20t31.5 48t5.5 59t-21.5 53q-1 1 4 5q22 10 40 -18q13 -21 14.5 -51t-10 -61t-32.5 -57t-58.5 -40t-82.5 -8zM172 0h21l-24 -59q36 12 67 -2t33 -46q2 -39 -24.5 -70.5t-68.5 -39.5q-18 -3 -25.5 6.5t-6.5 20.5l2 12q43 6 67 25.5
t24 42.5q0 19 -18 26t-48 -4q-16 -6 -23 -6l-2 1q-2 1 -3 1q-5 3 0 14q11 22 29 78z" />
    <glyph glyph-name="Egrave" unicode="&#xc8;" horiz-adv-x="420" 
d="M42 480q7 82 53.5 141.5t111 81t127.5 3.5q37 -9 57.5 -37t20 -61t-12.5 -64.5t-40.5 -52.5t-63.5 -21q-36 -3 -60 56q-13 33 -8 37q82 -6 119 34q27 31 3 57q-15 18 -49 24q-59 11 -108 -41q-50 -53 -54 -129q-8 -98 26 -151q42 18 83 16q45 -1 51 -28q6 -25 -30 -42
q-19 -10 -42 -11q-41 -3 -83 14q-41 -43 -46 -112q-5 -77 32 -124q36 -49 105 -43q45 5 74 40q31 35 32 75q2 41 -20 73q-2 2 5 5q21 10 39 -18q14 -21 16 -50.5t-10 -60t-34 -57t-59.5 -44.5t-82.5 -21q-89 -5 -143 51q-56 56 -50 138q8 106 105 170q-75 57 -64 152z
M239 350q-31 2 -58 -14q20 -20 49 -17q36 3 37 16q0 12 -28 15zM352 749q-20 1 -27 9q-1 1 -11.5 9.5l-29 23.5l-34.5 28q-87 69 -101 88q-6 9 21 14h2q52 8 87 -2q9 -2 11 -5q32 -44 63 -108q14 -25 20 -40q7 -19 -1 -17z" />
    <glyph glyph-name="Eacute" unicode="&#xc9;" horiz-adv-x="420" 
d="M42 480q7 82 53.5 141.5t111 81t127.5 3.5q37 -9 57.5 -37t20 -61t-12.5 -64.5t-40.5 -52.5t-63.5 -21q-36 -3 -60 56q-13 33 -8 37q82 -6 119 34q27 31 3 57q-15 18 -49 24q-59 11 -108 -41q-50 -53 -54 -129q-8 -98 26 -151q42 18 83 16q45 -1 51 -28q6 -25 -30 -42
q-19 -10 -42 -11q-41 -3 -83 14q-41 -43 -46 -112q-5 -77 32 -124q36 -49 105 -43q45 5 74 40q31 35 32 75q2 41 -20 73q-2 2 5 5q21 10 39 -18q14 -21 16 -50.5t-10 -60t-34 -57t-59.5 -44.5t-82.5 -21q-89 -5 -143 51q-56 56 -50 138q8 106 105 170q-75 57 -64 152z
M239 350q-31 2 -58 -14q20 -20 49 -17q36 3 37 16q0 12 -28 15zM180 743q-14 1 -9 9q17 18 49 61q55 72 75 88t80 8q35 -6 32 -14q0 -1 -2 -3q-32 -26 -129 -92q-86 -60 -96 -57z" />
    <glyph glyph-name="Ecircumflex" unicode="&#xca;" horiz-adv-x="420" 
d="M42 480q7 82 53.5 141.5t111 81t127.5 3.5q37 -9 57.5 -37t20 -61t-12.5 -64.5t-40.5 -52.5t-63.5 -21q-36 -3 -60 56q-13 33 -8 37q82 -6 119 34q27 31 3 57q-15 18 -49 24q-59 11 -108 -41q-50 -53 -54 -129q-8 -98 26 -151q42 18 83 16q45 -1 51 -28q6 -25 -30 -42
q-19 -10 -42 -11q-41 -3 -83 14q-41 -43 -46 -112q-5 -77 32 -124q36 -49 105 -43q45 5 74 40q31 35 32 75q2 41 -20 73q-2 2 5 5q21 10 39 -18q14 -21 16 -50.5t-10 -60t-34 -57t-59.5 -44.5t-82.5 -21q-89 -5 -143 51q-56 56 -50 138q8 106 105 170q-75 57 -64 152z
M239 350q-31 2 -58 -14q20 -20 49 -17q36 3 37 16q0 12 -28 15zM138 732q-11 1 -8 9q18 19 42 61q46 72 63 88q14 14 57 9q16 0 34 -5l10 -5q32 -54 53 -108q14 -31 17 -40q6 -19 -2 -17q-14 1 -22 9l-63 61q-6 5 -21.5 19.5l-22.5 21.5q-17 -16 -56 -46q-73 -59 -81 -57z
" />
    <glyph glyph-name="Edieresis" unicode="&#xcb;" horiz-adv-x="420" 
d="M42 480q7 82 53.5 141.5t111 81t127.5 3.5q37 -9 57.5 -37t20 -61t-12.5 -64.5t-40.5 -52.5t-63.5 -21q-36 -3 -60 56q-13 33 -8 37q82 -6 119 34q27 31 3 57q-15 18 -49 24q-59 11 -108 -41q-50 -53 -54 -129q-8 -98 26 -151q42 18 83 16q45 -1 51 -28q6 -25 -30 -42
q-19 -10 -42 -11q-41 -3 -83 14q-41 -43 -46 -112q-5 -77 32 -124q36 -49 105 -43q45 5 74 40q31 35 32 75q2 41 -20 73q-2 2 5 5q21 10 39 -18q14 -21 16 -50.5t-10 -60t-34 -57t-59.5 -44.5t-82.5 -21q-89 -5 -143 51q-56 56 -50 138q8 106 105 170q-75 57 -64 152z
M239 350q-31 2 -58 -14q20 -20 49 -17q36 3 37 16q0 12 -28 15zM423 798q0 -27 -19.5 -46t-47.5 -19q-27 0 -46 19t-19 46q0 28 19 47.5t46 19.5q28 0 47.5 -19.5t19.5 -47.5zM258 798q0 -27 -19.5 -46t-46.5 -19t-46.5 19t-19.5 46q0 28 19.5 47.5t46.5 19.5t46.5 -19.5
t19.5 -47.5z" />
    <glyph glyph-name="Igrave" unicode="&#xcc;" horiz-adv-x="338" 
d="M364 654q-11 -17 -44 -38q-1 -7 -2.5 -26t-3 -45.5t-3.5 -45.5q-6 -85 -18 -156.5t-27.5 -121.5t-34.5 -91t-38.5 -64t-40.5 -41t-40 -22t-36.5 -6.5t-31.5 4.5q-21 6 -33.5 27t-8.5 47q6 44 60 68q34 15 42 6q1 -1 1 -3q-10 -40 0 -73q9 -33 30 -28q19 4 33 34
q14 29 27 126q14 98 24 268q3 57 10 92q-58 -34 -99 -80q-87 -104 -56 -136q28 -28 86 -3q3 2 5 -0.5t3 -7.5q6 -28 -14 -66q-16 -31 -44 -40q-24 -8 -46.5 1t-34.5 28q-23 33 -14.5 77t34 85.5t65.5 82.5q55 55 127 114q16 51 33 77q32 45 71 36q29 -8 32 -36
q2 -21 -13 -43zM366 766q-20 2 -27 9q-1 1 -11.5 9.5l-29 23.5l-34.5 28q-87 69 -101 88q-6 9 21 14h2q52 8 87 -2q9 -2 11 -5q32 -43 63 -108q14 -25 20 -40q7 -19 -1 -17z" />
    <glyph glyph-name="Iacute" unicode="&#xcd;" horiz-adv-x="338" 
d="M364 654q-11 -17 -44 -38q-1 -7 -2.5 -26t-3 -45.5t-3.5 -45.5q-6 -85 -18 -156.5t-27.5 -121.5t-34.5 -91t-38.5 -64t-40.5 -41t-40 -22t-36.5 -6.5t-31.5 4.5q-21 6 -33.5 27t-8.5 47q6 44 60 68q34 15 42 6q1 -1 1 -3q-10 -40 0 -73q9 -33 30 -28q19 4 33 34
q14 29 27 126q14 98 24 268q3 57 10 92q-58 -34 -99 -80q-87 -104 -56 -136q28 -28 86 -3q3 2 5 -0.5t3 -7.5q6 -28 -14 -66q-16 -31 -44 -40q-24 -8 -46.5 1t-34.5 28q-23 33 -14.5 77t34 85.5t65.5 82.5q55 55 127 114q16 51 33 77q32 45 71 36q29 -8 32 -36
q2 -21 -13 -43zM216 753q-14 1 -9 9q17 17 49 61q55 72 75 88t80 8q35 -6 32 -14q0 -1 -2 -3q-32 -26 -129 -92q-86 -60 -96 -57z" />
    <glyph glyph-name="Icircumflex" unicode="&#xce;" horiz-adv-x="338" 
d="M364 654q-11 -17 -44 -38q-1 -7 -2.5 -26t-3 -45.5t-3.5 -45.5q-6 -85 -18 -156.5t-27.5 -121.5t-34.5 -91t-38.5 -64t-40.5 -41t-40 -22t-36.5 -6.5t-31.5 4.5q-21 6 -33.5 27t-8.5 47q6 44 60 68q34 15 42 6q1 -1 1 -3q-10 -40 0 -73q9 -33 30 -28q19 4 33 34
q14 29 27 126q14 98 24 268q3 57 10 92q-58 -34 -99 -80q-87 -104 -56 -136q28 -28 86 -3q3 2 5 -0.5t3 -7.5q6 -28 -14 -66q-16 -31 -44 -40q-24 -8 -46.5 1t-34.5 28q-23 33 -14.5 77t34 85.5t65.5 82.5q55 55 127 114q16 51 33 77q32 45 71 36q29 -8 32 -36
q2 -21 -13 -43zM438 726q-42 20 -77 52.5t-48 58.5q-12 -27 -49.5 -57.5t-95.5 -55.5l-2 4q-10 42 6 58q3 4 21 13t37.5 17.5t21.5 9.5q7 3 15.5 7.5l15.5 8t13 7t10 5.5l4 2q2 2 3 2h1h2q2 -2 3 -2q5 -4 55 -28q61 -31 70 -46q5 -11 4 -23.5t-4.5 -22.5t-5.5 -10z" />
    <glyph glyph-name="Idieresis" unicode="&#xcf;" horiz-adv-x="338" 
d="M364 654q-11 -17 -44 -38q-1 -7 -2.5 -26t-3 -45.5t-3.5 -45.5q-6 -85 -18 -156.5t-27.5 -121.5t-34.5 -91t-38.5 -64t-40.5 -41t-40 -22t-36.5 -6.5t-31.5 4.5q-21 6 -33.5 27t-8.5 47q6 44 60 68q34 15 42 6q1 -1 1 -3q-10 -40 0 -73q9 -33 30 -28q19 4 33 34
q14 29 27 126q14 98 24 268q3 57 10 92q-58 -34 -99 -80q-87 -104 -56 -136q28 -28 86 -3q3 2 5 -0.5t3 -7.5q6 -28 -14 -66q-16 -31 -44 -40q-24 -8 -46.5 1t-34.5 28q-23 33 -14.5 77t34 85.5t65.5 82.5q55 55 127 114q16 51 33 77q32 45 71 36q29 -8 32 -36
q2 -21 -13 -43zM437 817q0 -27 -19.5 -46t-47.5 -19q-27 0 -46 19t-19 46q0 28 19 47.5t46 19.5q28 0 47.5 -19.5t19.5 -47.5zM272 817q0 -27 -19.5 -46t-46.5 -19t-46.5 19t-19.5 46q0 28 19.5 47.5t46.5 19.5t46.5 -19.5t19.5 -47.5z" />
    <glyph glyph-name="Eth" unicode="&#xd0;" horiz-adv-x="582" 
d="M557 355q-29 -181 -145 -287q-118 -107 -258 -67q-48 12 -75 55t-26 87.5t25 65.5q23 26 35 7q3 -5 1 -7q-19 -26 -19 -60t22.5 -66t57.5 -40q103 -24 183 57q79 81 102 224q53 335 -125 354q-70 11 -139.5 -14.5t-107 -72t-21.5 -92.5q4 -13 21.5 -13t56.5 9q1 0 4 0.5
t4 1.5q2 1 3 -0.5t2 -4.5q4 -22 -19 -58q-22 -35 -57 -40q-26 -4 -47 8.5t-27 34.5q-23 71 22 141q44 69 134 109q89 39 184 27q260 -30 209 -359zM94 295q-2 23 12 33t50 10h17q8 48 14 95.5t9 82.5t4.5 62t2 44t0.5 20q-1 6 19 13t44.5 0.5t33.5 -33.5q13 -26 -6 -131
q-2 -9 -6.5 -33.5t-7.5 -37.5q-4 -18 -9.5 -45.5t-7.5 -35.5q51 4 61 6q2 0 4 -8.5t-1 -23t-15 -26.5q-17 -17 -62 -17q-32 -156 -28 -184q1 -9 -7.5 -15t-25.5 -5q-64 4 -27 218q-38 9 -58 6q-10 -1 -10 5z" />
    <glyph glyph-name="Ntilde" unicode="&#xd1;" horiz-adv-x="679" 
d="M284 657q38 28 100 14q15 -5 15 -7q-3 -40 6 -96q7 -46 23 -110q50 -204 106 -364q-6 33 -6 83q0 211 39 363q37 151 89 186q21 11 34.5 3t22 -22.5t5.5 -16.5q-151 -112 -151 -495q0 -162 7 -177q1 -1 -3 -3l-2 -2q-29 -19 -69 -17q-34 2 -48 27q-41 79 -131 398
q-11 35 -17 70q0 -1 -3 -33q-25 -246 -85 -367q-26 -53 -57 -85q-56 -56 -107 -38q-22 6 -38 35q-17 30 -13 55q6 44 60 68q35 15 42 6q1 -1 1 -3q-7 -38 -3 -62.5t16 -35.5t26 -3q66 34 98 430q0 5 1 28.5t2 43.5t2 28q2 26 5 39q6 41 33 60zM316 783q20 60 70 79
q50 20 97 -24q40 -36 71.5 -32t41.5 40q5 14 23 17q8 1 11.5 -1.5t2.5 -9.5v-2q-16 -81 -70 -110q-53 -28 -103 14q-99 80 -116 22q-3 -9 -11 -10.5t-14 4t-3 13.5z" />
    <glyph glyph-name="Ograve" unicode="&#xd2;" horiz-adv-x="467" 
d="M165 -23q-80 11 -128 109q-50 98 -33 259q10 101 57 193q45 90 116 140q70 49 143 28q53 -15 70.5 -72.5t-2.5 -112.5q16 -5 23 -16q38 -49 31 -171.5t-55 -218.5q-33 -70 -92 -108.5t-130 -29.5zM221 27q53 0 95 55q43 55 62 128q19 72 19 152q0 78 -24 123
q-35 -63 -91 -63q-36 -3 -61 58q-14 33 -8 35q74 -6 115 47q33 43 14 80q-13 30 -56 36q-50 8 -90 -42q-43 -50 -65 -120q-25 -73 -32 -144q-10 -95 0.5 -173t42 -125t79.5 -47zM360 746q-20 2 -27 9q-1 1 -11.5 9.5l-29 23.5l-34.5 28q-87 69 -101 88q-6 9 21 14h2
q52 8 87 -2q9 -2 11 -5q32 -43 63 -108q14 -25 20 -40q7 -19 -1 -17z" />
    <glyph glyph-name="Oacute" unicode="&#xd3;" horiz-adv-x="467" 
d="M165 -23q-80 11 -128 109q-50 98 -33 259q10 101 57 193q45 90 116 140q70 49 143 28q53 -15 70.5 -72.5t-2.5 -112.5q16 -5 23 -16q38 -49 31 -171.5t-55 -218.5q-33 -70 -92 -108.5t-130 -29.5zM221 27q53 0 95 55q43 55 62 128q19 72 19 152q0 78 -24 123
q-35 -63 -91 -63q-36 -3 -61 58q-14 33 -8 35q74 -6 115 47q33 43 14 80q-13 30 -56 36q-50 8 -90 -42q-43 -50 -65 -120q-25 -73 -32 -144q-10 -95 0.5 -173t42 -125t79.5 -47zM196 748q-14 2 -9 9q17 18 49 61q55 72 75 88t80 8q35 -6 32 -14q0 -1 -2 -3q-32 -26 -129 -92
q-86 -60 -96 -57z" />
    <glyph glyph-name="Ocircumflex" unicode="&#xd4;" horiz-adv-x="467" 
d="M165 -23q-80 11 -128 109q-50 98 -33 259q10 101 57 193q45 90 116 140q70 49 143 28q53 -15 70.5 -72.5t-2.5 -112.5q16 -5 23 -16q38 -49 31 -171.5t-55 -218.5q-33 -70 -92 -108.5t-130 -29.5zM221 27q53 0 95 55q43 55 62 128q19 72 19 152q0 78 -24 123
q-35 -63 -91 -63q-36 -3 -61 58q-14 33 -8 35q74 -6 115 47q33 43 14 80q-13 30 -56 36q-50 8 -90 -42q-43 -50 -65 -120q-25 -73 -32 -144q-10 -95 0.5 -173t42 -125t79.5 -47zM138 732q-11 1 -8 9q18 19 42 61q46 72 63 88q14 14 57 9q16 0 34 -5l10 -5q32 -54 53 -108
q14 -31 17 -40q6 -19 -2 -17q-14 1 -22 9l-63 61q-6 5 -21.5 19.5l-22.5 21.5q-17 -16 -56 -46q-73 -59 -81 -57z" />
    <glyph glyph-name="Otilde" unicode="&#xd5;" horiz-adv-x="467" 
d="M165 -23q-80 11 -128 109q-50 98 -33 259q10 101 57 193q45 90 116 140q70 49 143 28q53 -15 70.5 -72.5t-2.5 -112.5q16 -5 23 -16q38 -49 31 -171.5t-55 -218.5q-33 -70 -92 -108.5t-130 -29.5zM221 27q53 0 95 55q43 55 62 128q19 72 19 152q0 78 -24 123
q-35 -63 -91 -63q-36 -3 -61 58q-14 33 -8 35q74 -6 115 47q33 43 14 80q-13 30 -56 36q-50 8 -90 -42q-43 -50 -65 -120q-25 -73 -32 -144q-10 -95 0.5 -173t42 -125t79.5 -47zM151 799q11 57 58 79q46 23 94 -13q42 -27 70.5 -20.5t35.5 39.5q3 14 20 18q14 4 14 -9v-2
q-7 -74 -55 -105q-45 -30 -99 2q-100 60 -112 8q-3 -13 -18 -9q-11 2 -8 12z" />
    <glyph glyph-name="Odieresis" unicode="&#xd6;" horiz-adv-x="467" 
d="M165 -23q-80 11 -128 109q-50 98 -33 259q10 101 57 193q45 90 116 140q70 49 143 28q53 -15 70.5 -72.5t-2.5 -112.5q16 -5 23 -16q38 -49 31 -171.5t-55 -218.5q-33 -70 -92 -108.5t-130 -29.5zM221 27q53 0 95 55q43 55 62 128q19 72 19 152q0 78 -24 123
q-35 -63 -91 -63q-36 -3 -61 58q-14 33 -8 35q74 -6 115 47q33 43 14 80q-13 30 -56 36q-50 8 -90 -42q-43 -50 -65 -120q-25 -73 -32 -144q-10 -95 0.5 -173t42 -125t79.5 -47zM408 820q0 -27 -19.5 -46t-47.5 -19q-27 0 -46 19t-19 46q0 28 19 47.5t46 19.5
q28 0 47.5 -19.5t19.5 -47.5zM243 820q0 -27 -19.5 -46t-46.5 -19t-46.5 19t-19.5 46q0 28 19.5 47.5t46.5 19.5t46.5 -19.5t19.5 -47.5z" />
    <glyph glyph-name="multiply" unicode="&#xd7;" horiz-adv-x="238" 
d="M202 154q-16 -16 -32.5 -11.5t-39.5 30.5q-4 1 -4 4l-4 -2q-38 -20 -49 -35q-4 -9 -11 -4q-32 28 14 74l10 10q-33 33 -53 50q-2 2 4 11t18.5 17.5t23.5 8.5q21 0 53 -39q3 3 18 21q21 25 23 28q1 1 4 -0.5t8 -5t9.5 -9t7.5 -14.5t3 -20q0 -26 -35 -58q18 -35 29 -44
q9 -6 3 -12z" />
    <glyph glyph-name="Oslash" unicode="&#xd8;" horiz-adv-x="467" 
d="M39 -34q-2 2 31 67q-87 103 -66 312q10 101 57 193q45 90 116 140q70 49 143 28h2q2 -1 3 -1l2 8q3 12 16 20.5t31 8.5q32 0 44 -24q12 -29 -22 -120q3 -36 -8 -77q16 -5 23 -16q38 -49 31 -171.5t-55 -218.5q-33 -70 -92 -108.5t-130 -29.5q-30 4 -57 22
q-19 -26 -20 -27q-29 -29 -49 -6zM221 27q53 0 95 55q43 55 62 128q19 72 19 152q0 78 -24 123q-17 -34 -45 -50q-91 -206 -181 -369q30 -39 74 -39zM99 372q-15 -146 16 -242q64 133 110 261l17 50q-10 12 -18 30.5t-10.5 31t-0.5 12.5q36 -2 57 7q29 85 46 146
q-12 7 -30 10q-50 8 -90 -42q-43 -50 -65 -120q-25 -73 -32 -144z" />
    <glyph glyph-name="Ugrave" unicode="&#xd9;" horiz-adv-x="634" 
d="M498 0q-34 11 -47 72.5t-1 157.5q-49 -117 -105 -179t-105 -51q-72 18 -54 241l3 26q-83 -42 -159 -45q-17 0 -24 6t-6 12.5t4 7.5q98 5 189 55q25 200 89 326q62 126 130 106q33 -10 38 -62.5t-20 -125.5q-38 -115 -140 -208q-7 -42 -8 -61q-10 -95 -3.5 -156.5
t27.5 -63.5q19 -1 51.5 50.5t71.5 150.5q37 94 74 231l25 126q9 63 31 86t51 10q31 -13 19 -102q-6 -39 -41 -166q-35 -129 -46 -182q-17 -90 -13 -148t25 -64q26 -8 58 28q31 34 48 86q2 5 8 -2q12 -10 0 -36q-28 -63 -76 -101q-49 -39 -94 -25zM402 691q-12 3 -27 -21
t-29 -67.5t-27 -101.5t-23 -123q80 78 110 170q17 51 17 94q-2 45 -21 49zM546 768q-20 2 -27 9q-1 1 -11.5 9.5l-29 23.5l-34.5 28q-87 69 -101 88q-6 9 21 14h2q52 8 87 -2q9 -2 11 -5q32 -43 63 -108q14 -25 20 -40q7 -19 -1 -17z" />
    <glyph glyph-name="Uacute" unicode="&#xda;" horiz-adv-x="634" 
d="M498 0q-34 11 -47 72.5t-1 157.5q-49 -117 -105 -179t-105 -51q-72 18 -54 241l3 26q-83 -42 -159 -45q-17 0 -24 6t-6 12.5t4 7.5q98 5 189 55q25 200 89 326q62 126 130 106q33 -10 38 -62.5t-20 -125.5q-38 -115 -140 -208q-7 -42 -8 -61q-10 -95 -3.5 -156.5
t27.5 -63.5q19 -1 51.5 50.5t71.5 150.5q37 94 74 231l25 126q9 63 31 86t51 10q31 -13 19 -102q-6 -39 -41 -166q-35 -129 -46 -182q-17 -90 -13 -148t25 -64q26 -8 58 28q31 34 48 86q2 5 8 -2q12 -10 0 -36q-28 -63 -76 -101q-49 -39 -94 -25zM402 691q-12 3 -27 -21
t-29 -67.5t-27 -101.5t-23 -123q80 78 110 170q17 51 17 94q-2 45 -21 49zM437 786q-13 2 -9 9q18 17 49 61q55 72 75 88t80 8q35 -6 32 -14q0 -1 -2 -3q-32 -26 -129 -92q-85 -60 -96 -57z" />
    <glyph glyph-name="Ucircumflex" unicode="&#xdb;" horiz-adv-x="634" 
d="M498 0q-34 11 -47 72.5t-1 157.5q-49 -117 -105 -179t-105 -51q-72 18 -54 241l3 26q-83 -42 -159 -45q-17 0 -24 6t-6 12.5t4 7.5q98 5 189 55q25 200 89 326q62 126 130 106q33 -10 38 -62.5t-20 -125.5q-38 -115 -140 -208q-7 -42 -8 -61q-10 -95 -3.5 -156.5
t27.5 -63.5q19 -1 51.5 50.5t71.5 150.5q37 94 74 231l25 126q9 63 31 86t51 10q31 -13 19 -102q-6 -39 -41 -166q-35 -129 -46 -182q-17 -90 -13 -148t25 -64q26 -8 58 28q31 34 48 86q2 5 8 -2q12 -10 0 -36q-28 -63 -76 -101q-49 -39 -94 -25zM402 691q-12 3 -27 -21
t-29 -67.5t-27 -101.5t-23 -123q80 78 110 170q17 51 17 94q-2 45 -21 49zM626 768q-42 20 -77 52.5t-48 58.5q-12 -27 -49.5 -57.5t-95.5 -55.5l-2 4q-10 42 6 58q3 4 21 13t37.5 17.5t21.5 9.5q7 3 15.5 7.5l15.5 8t13 7t10 5.5l4 2q2 2 3 2h1h2q2 -2 3 -2q5 -4 55 -28
q61 -31 70 -46q5 -11 4 -23.5t-4.5 -22.5t-5.5 -10z" />
    <glyph glyph-name="Udieresis" unicode="&#xdc;" horiz-adv-x="634" 
d="M498 0q-34 11 -47 72.5t-1 157.5q-49 -117 -105 -179t-105 -51q-72 18 -54 241l3 26q-83 -42 -159 -45q-17 0 -24 6t-6 12.5t4 7.5q98 5 189 55q25 200 89 326q62 126 130 106q33 -10 38 -62.5t-20 -125.5q-38 -115 -140 -208q-7 -42 -8 -61q-10 -95 -3.5 -156.5
t27.5 -63.5q19 -1 51.5 50.5t71.5 150.5q37 94 74 231l25 126q9 63 31 86t51 10q31 -13 19 -102q-6 -39 -41 -166q-35 -129 -46 -182q-17 -90 -13 -148t25 -64q26 -8 58 28q31 34 48 86q2 5 8 -2q12 -10 0 -36q-28 -63 -76 -101q-49 -39 -94 -25zM402 691q-12 3 -27 -21
t-29 -67.5t-27 -101.5t-23 -123q80 78 110 170q17 51 17 94q-2 45 -21 49zM657 841q0 -27 -19.5 -46t-47.5 -19q-27 0 -46 19t-19 46q0 28 19 47.5t46 19.5q28 0 47.5 -19.5t19.5 -47.5zM492 841q0 -27 -19.5 -46t-46.5 -19t-46.5 19t-19.5 46q0 28 19.5 47.5t46.5 19.5
t46.5 -19.5t19.5 -47.5z" />
    <glyph glyph-name="Yacute" unicode="&#xdd;" horiz-adv-x="618" 
d="M306 58q47 -2 123 191q41 102 75 240l10 50.5l10.5 51.5t4.5 25q9 63 30.5 86t50.5 10q30 -14 20 -102q-3 -28 -88 -348q-43 -179 -96 -308q54 -10 111 -40q29 -16 17 -32q-4 -5 -8 -4q-58 32 -132 48q-99 -222 -227 -248q-53 -9 -90 20t-38 76t36 99q82 103 258 92
q45 119 77 261q-51 -117 -106.5 -177t-103.5 -49q-72 20 -53 241l3 27q-80 -43 -160 -46q-30 0 -30 17q0 7 5 9q98 5 189 55q23 197 87.5 325.5t130.5 106.5q33 -10 38 -62.5t-20 -125.5q-38 -115 -140 -208q-7 -42 -8 -61q-9 -95 -3 -156.5t27 -63.5zM210 -270
q75 16 152 207q-149 10 -216 -73q-44 -55 -22 -101q21 -47 86 -33zM402 691q-24 6 -54.5 -87t-51.5 -226q80 78 110 170q18 51 17 94q-2 45 -21 49zM432 780q-14 2 -9 9q17 17 49 61q55 72 75 88t80 8q35 -6 32 -14q0 -1 -2 -3q-32 -26 -129 -92q-86 -60 -96 -57z" />
    <glyph glyph-name="Thorn" unicode="&#xde;" horiz-adv-x="531" 
d="M298 578h20q126 -4 182.5 -62.5t37.5 -153.5q-18 -92 -111 -156q-93 -66 -203 -66q-23 -135 -20 -154q1 -9 -8 -15t-26 -5q-61 4 -20 208q27 157 40 352q-69 -26 -108 -71q-41 -47 -28 -93q5 -15 28 -12t58 10q2 1 3 -0.5t2 -4.5q5 -23 -18 -58q-23 -36 -57 -40
q-26 -4 -47.5 9t-27.5 34q-25 79 35 153t163 108q5 68 7 123q0 5 0.5 11t1 10t0.5 6q1 5 19.5 12t42.5 1t35 -34q10 -25 -1 -112zM234 198l-3 -17q9 4 12 4q75 0 128 42.5t71 126.5q16 73 -22 128q-39 54 -111 60h-16q-11 -69 -28 -163z" />
    <glyph glyph-name="germandbls" unicode="&#xdf;" horiz-adv-x="415" 
d="M192 479q1 1 29.5 24.5t35.5 30.5q31 31 49 80q16 43 15 89q-1 45 -19 51q-43 15 -92.5 -122.5t-102.5 -401.5q-34 -168 -29 -209q0 -24 -34 -21q-69 5 -30 206q32 174 113 382q39 102 91 163q50 61 100 47q45 -14 61 -67q17 -56 -1 -116q-28 -86 -144 -142
q47 -17 83 -62t51 -104q57 41 122 73q20 10 21 -6q0 -16 -14 -24q-64 -31 -123 -73q6 -36 3 -73q-7 -85 -69 -145q-61 -61 -118 -61q-39 0 -43 39t31 86q46 60 97 107q-7 63 -30 117q-22 53 -42 70q-14 11 -17.5 25.5t-0.5 24t7 12.5zM276 139q2 26 2 58q-42 -40 -66 -73
q-14 -18 -18 -38.5t1.5 -34t18.5 -13.5q21 0 38.5 27.5t23.5 73.5z" />
    <glyph glyph-name="agrave" unicode="&#xe0;" horiz-adv-x="423" 
d="M10 240q25 140 86 205q59 65 116 42q33 -13 50 -69q11 61 15 74q1 3 16 0t33 -13t26 -24q16 -28 6 -94q-9 -54 -14 -75q-1 -7 -3 -16l-2 -8q-17 -90 -16 -148.5t19 -63.5q27 -7 59 28q31 34 48 86q1 4 8 -2q12 -10 0 -36q-27 -62 -75 -99q-50 -37 -96 -27q-29 7 -40 46
t-8 121q-31 -94 -75 -140.5t-95 -34.5q-42 9 -59 73t1 175zM123 43q20 -5 41.5 25t42.5 93.5t39 154.5q-5 104 -44 119q-27 11 -53.5 -36t-41.5 -137q-16 -93 -12 -152.5t28 -66.5zM302 533q-20 1 -27 9q-1 1 -11.5 9.5l-29 23.5l-34.5 28q-87 69 -101 88q-6 9 21 14h2
q52 8 87 -2l11 -5q32 -44 63 -108q14 -25 20 -40q7 -19 -1 -17z" />
    <glyph glyph-name="aacute" unicode="&#xe1;" horiz-adv-x="423" 
d="M10 240q25 140 86 205q59 65 116 42q33 -13 50 -69q11 61 15 74q1 3 16 0t33 -13t26 -24q16 -28 6 -94q-9 -54 -14 -75q-1 -7 -3 -16l-2 -8q-17 -90 -16 -148.5t19 -63.5q27 -7 59 28q31 34 48 86q1 4 8 -2q12 -10 0 -36q-27 -62 -75 -99q-50 -37 -96 -27q-29 7 -40 46
t-8 121q-31 -94 -75 -140.5t-95 -34.5q-42 9 -59 73t1 175zM123 43q20 -5 41.5 25t42.5 93.5t39 154.5q-5 104 -44 119q-27 11 -53.5 -36t-41.5 -137q-16 -93 -12 -152.5t28 -66.5zM176 533q-14 1 -9 9q17 18 49 61q55 72 75 88t80 8q35 -6 32 -14q0 -1 -2 -3
q-32 -26 -129 -92q-86 -60 -96 -57z" />
    <glyph glyph-name="acircumflex" unicode="&#xe2;" horiz-adv-x="423" 
d="M10 240q25 140 86 205q59 65 116 42q33 -13 50 -69q11 61 15 74q1 3 16 0t33 -13t26 -24q16 -28 6 -94q-9 -54 -14 -75q-1 -7 -3 -16l-2 -8q-17 -90 -16 -148.5t19 -63.5q27 -7 59 28q31 34 48 86q1 4 8 -2q12 -10 0 -36q-27 -62 -75 -99q-50 -37 -96 -27q-29 7 -40 46
t-8 121q-31 -94 -75 -140.5t-95 -34.5q-42 9 -59 73t1 175zM123 43q20 -5 41.5 25t42.5 93.5t39 154.5q-5 104 -44 119q-27 11 -53.5 -36t-41.5 -137q-16 -93 -12 -152.5t28 -66.5zM115 539q-11 1 -8 9q18 19 42 61q46 72 63 88q14 14 57 9q16 0 34 -5l10 -5q32 -54 53 -108
q14 -31 17 -40q6 -19 -2 -17q-14 1 -22 9l-63 61q-6 5 -21.5 19.5l-22.5 21.5q-17 -16 -56 -46q-73 -59 -81 -57z" />
    <glyph glyph-name="atilde" unicode="&#xe3;" horiz-adv-x="423" 
d="M10 240q25 140 86 205q59 65 116 42q33 -13 50 -69q11 61 15 74q1 3 16 0t33 -13t26 -24q16 -28 6 -94q-9 -54 -14 -75q-1 -7 -3 -16l-2 -8q-17 -90 -16 -148.5t19 -63.5q27 -7 59 28q31 34 48 86q1 4 8 -2q12 -10 0 -36q-27 -62 -75 -99q-50 -37 -96 -27q-29 7 -40 46
t-8 121q-31 -94 -75 -140.5t-95 -34.5q-42 9 -59 73t1 175zM123 43q20 -5 41.5 25t42.5 93.5t39 154.5q-5 104 -44 119q-27 11 -53.5 -36t-41.5 -137q-16 -93 -12 -152.5t28 -66.5zM124 585q11 57 58 79q46 23 94 -13q42 -27 70.5 -20.5t35.5 39.5q3 14 20 18q14 4 14 -9v-2
q-7 -74 -55 -105q-45 -30 -99 2q-100 60 -112 8q-3 -13 -18 -9q-11 2 -8 12z" />
    <glyph glyph-name="adieresis" unicode="&#xe4;" horiz-adv-x="423" 
d="M10 240q25 140 86 205q59 65 116 42q33 -13 50 -69q11 61 15 74q1 3 16 0t33 -13t26 -24q16 -28 6 -94q-9 -54 -14 -75q-1 -7 -3 -16l-2 -8q-17 -90 -16 -148.5t19 -63.5q27 -7 59 28q31 34 48 86q1 4 8 -2q12 -10 0 -36q-27 -62 -75 -99q-50 -37 -96 -27q-29 7 -40 46
t-8 121q-31 -94 -75 -140.5t-95 -34.5q-42 9 -59 73t1 175zM123 43q20 -5 41.5 25t42.5 93.5t39 154.5q-5 104 -44 119q-27 11 -53.5 -36t-41.5 -137q-16 -93 -12 -152.5t28 -66.5zM360 590q0 -27 -19.5 -46t-47.5 -19q-27 0 -46 19t-19 46q0 28 19 47.5t46 19.5
q28 0 47.5 -19.5t19.5 -47.5zM195 590q0 -27 -19.5 -46t-46.5 -19t-46.5 19t-19.5 46q0 28 19.5 47.5t46.5 19.5t46.5 -19.5t19.5 -47.5z" />
    <glyph glyph-name="aring" unicode="&#xe5;" horiz-adv-x="423" 
d="M10 240q25 140 86 205q59 65 116 42q33 -13 50 -69q11 61 15 74q1 3 16 0t33 -13t26 -24q16 -28 6 -94q-9 -54 -14 -75q-1 -7 -3 -16l-2 -8q-17 -90 -16 -148.5t19 -63.5q27 -7 59 28q31 34 48 86q1 4 8 -2q12 -10 0 -36q-27 -62 -75 -99q-50 -37 -96 -27q-29 7 -40 46
t-8 121q-31 -94 -75 -140.5t-95 -34.5q-42 9 -59 73t1 175zM123 43q20 -5 41.5 25t42.5 93.5t39 154.5q-5 104 -44 119q-27 11 -53.5 -36t-41.5 -137q-16 -93 -12 -152.5t28 -66.5zM220 730q45 -4 75.5 -33.5t27.5 -70.5q-4 -42 -40 -73q-38 -32 -80 -28q-45 4 -75 33.5
t-26 69.5q5 43 40 74t78 28zM241 627q2 30 -4.5 52.5t-17.5 24.5q-12 1 -22.5 -20t-13.5 -52q-2 -32 4.5 -54.5t18.5 -23.5q12 0 22 21t13 52z" />
    <glyph glyph-name="ae" unicode="&#xe6;" horiz-adv-x="583" 
d="M398 -3q-63 4 -107 49t-50 128q-30 -98 -75 -146t-97 -36q-42 9 -59 73t1 175q25 140 86 205q59 65 116 42q33 -13 50 -69q11 61 15 74q3 2 15 0t30.5 -11.5t27.5 -22.5q61 42 125 29q77 -16 82 -91q4 -68 -55 -140q-68 -79 -156 -86h-3l-2 -1q10 -53 40 -85.5t72 -36.5
q49 -4 95 31q44 35 60 86q1 5 8 -2q12 -10 0 -36q-27 -63 -86.5 -98.5t-132.5 -30.5zM124 43q19 -5 40.5 25t43 94t38.5 154q-3 104 -44 119q-27 11 -53 -36t-41 -137q-16 -93 -12 -152.5t28 -66.5zM338 265q-4 -37 0 -67q60 19 100 110q34 76 23 126q-5 23 -19 24
q-30 5 -62 -50q-31 -54 -42 -143z" />
    <glyph glyph-name="ccedilla" unicode="&#xe7;" horiz-adv-x="312" 
d="M346 126q-26 -58 -79 -91t-120 -35l-17 -43q36 12 66.5 -2t33.5 -46q2 -39 -24.5 -70.5t-68.5 -39.5q-17 -3 -26 7t-7 20t2 12q44 6 68 25.5t24 42.5q0 19 -18 26t-48 -4q-16 -6 -23 -6q-1 0 -2 1t-3 1h-1q-3 3 0 14q1 2 24 63q-64 7 -99.5 67.5t-24.5 169.5
q14 135 86 200t148 49q35 -8 51 -38.5t7 -65.5q-9 -36 -33.5 -61.5t-55.5 -23.5q-28 -1 -42 50q-7 28 -2 28q50 -2 75 29q22 26 -4 43q-11 7 -31 10q-31 4 -62 -49q-30 -53 -41 -144q-10 -97 17 -156t83 -59q45 0 84 32t55 82q0 5 7 -1q13 -10 1 -37z" />
    <glyph glyph-name="egrave" unicode="&#xe8;" horiz-adv-x="344" 
d="M159 -3q-31 2 -59 15.5t-53.5 40t-37.5 74.5t-6 111q14 135 86 200t148 49q77 -16 82 -91q4 -68 -55 -140q-68 -79 -156 -86h-3l-3 -1q11 -53 41.5 -85.5t71.5 -36.5q48 -4 94 31q45 34 61 86q0 5 7 -1q13 -10 1 -37q-28 -63 -87 -98.5t-132 -30.5zM99 265q-4 -32 -1 -67
q61 19 100 110q34 78 24 126q-4 22 -20 24q-29 5 -61 -50q-32 -56 -42 -143zM274 533q-20 1 -27 9q-1 1 -11.5 9.5l-29 23.5l-34.5 28q-87 69 -101 88q-6 9 21 14h2q52 8 87 -2l11 -5q32 -44 63 -108q14 -25 20 -40q7 -19 -1 -17z" />
    <glyph glyph-name="eacute" unicode="&#xe9;" horiz-adv-x="344" 
d="M159 -3q-31 2 -59 15.5t-53.5 40t-37.5 74.5t-6 111q14 135 86 200t148 49q77 -16 82 -91q4 -68 -55 -140q-68 -79 -156 -86h-3l-3 -1q11 -53 41.5 -85.5t71.5 -36.5q48 -4 94 31q45 34 61 86q0 5 7 -1q13 -10 1 -37q-28 -63 -87 -98.5t-132 -30.5zM99 265q-4 -32 -1 -67
q61 19 100 110q34 78 24 126q-4 22 -20 24q-29 5 -61 -50q-32 -56 -42 -143zM147 533q-13 1 -9 9q18 18 49 61q55 72 75 88t80 8q35 -6 32 -14q0 -1 -2 -3q-32 -26 -129 -92q-85 -60 -96 -57z" />
    <glyph glyph-name="ecircumflex" unicode="&#xea;" horiz-adv-x="344" 
d="M159 -3q-31 2 -59 15.5t-53.5 40t-37.5 74.5t-6 111q14 135 86 200t148 49q77 -16 82 -91q4 -68 -55 -140q-68 -79 -156 -86h-3l-3 -1q11 -53 41.5 -85.5t71.5 -36.5q48 -4 94 31q45 34 61 86q0 5 7 -1q13 -10 1 -37q-28 -63 -87 -98.5t-132 -30.5zM99 265q-4 -32 -1 -67
q61 19 100 110q34 78 24 126q-4 22 -20 24q-29 5 -61 -50q-32 -56 -42 -143zM72 517q-11 1 -8 9q18 19 42 61q46 72 63 88q14 14 57 9q16 0 34 -5l10 -5q32 -54 53 -108q14 -31 17 -40q6 -19 -2 -17q-14 1 -22 9l-63 61q-6 5 -21.5 19.5l-22.5 21.5q-17 -16 -56 -46
q-73 -59 -81 -57z" />
    <glyph glyph-name="edieresis" unicode="&#xeb;" horiz-adv-x="344" 
d="M159 -3q-31 2 -59 15.5t-53.5 40t-37.5 74.5t-6 111q14 135 86 200t148 49q77 -16 82 -91q4 -68 -55 -140q-68 -79 -156 -86h-3l-3 -1q11 -53 41.5 -85.5t71.5 -36.5q48 -4 94 31q45 34 61 86q0 5 7 -1q13 -10 1 -37q-28 -63 -87 -98.5t-132 -30.5zM99 265q-4 -32 -1 -67
q61 19 100 110q34 78 24 126q-4 22 -20 24q-29 5 -61 -50q-32 -56 -42 -143zM321 590q0 -27 -19.5 -46t-47.5 -19q-27 0 -46 19t-19 46q0 28 19 47.5t46 19.5q28 0 47.5 -19.5t19.5 -47.5zM156 590q0 -27 -19.5 -46t-46.5 -19t-46.5 19t-19.5 46q0 28 19.5 47.5t46.5 19.5
t46.5 -19.5t19.5 -47.5z" />
    </font>
</defs>
</svg>
