<svg xmlns="http://www.w3.org/2000/svg" viewBox="0 0 620.51 123.07"><defs><style>.cls-1{fill:#010300;}.cls-2{font-size:31.86px;font-family:iCielBambola, iCiel Bambola;letter-spacing:0.1em;}.cls-3{letter-spacing:0.08em;}.cls-4{letter-spacing:0.12em;}.cls-5{letter-spacing:0.09em;}.cls-6{letter-spacing:0.11em;}.cls-7{letter-spacing:0.03em;}.cls-8{letter-spacing:0.13em;}.cls-9{letter-spacing:0.12em;}.cls-10{letter-spacing:0.1em;}</style></defs><title>arrow_2</title><g id="Layer_2" data-name="Layer 2"><g id="OBJECTS"><path class="cls-1" d="M4.76,35.4l.09-.87L5,33.45c0-.21,0-.44.07-.69l.16-.81A27.33,27.33,0,0,1,8.7,22.61a36.74,36.74,0,0,1,4.18-5.71A45.92,45.92,0,0,1,19,11.26,51.33,51.33,0,0,1,36.74,2.58a31.15,31.15,0,0,1,11.4-1A21,21,0,0,1,59.44,6.5a14.61,14.61,0,0,1,5.35,11.84,14.24,14.24,0,0,1-2,6.64,13,13,0,0,1-2.31,2.76,11.12,11.12,0,0,1-3.14,1.92,8.94,8.94,0,0,1-3.72.66A6.52,6.52,0,0,1,49.86,29a10.2,10.2,0,0,1-3.41-6.66,18.24,18.24,0,0,1,4.18-14,21,21,0,0,1,5.63-4.94l.83-.47.21-.12.14-.08.1,0,.4-.19.81-.38.9-.36A26,26,0,0,1,63.26.67,33.12,33.12,0,0,1,78.12,1c1.22.29,2.37.63,3.61,1,.57.21,1.12.39,1.69.62s1.18.48,1.75.74A37,37,0,0,1,91.63,7.2a27.55,27.55,0,0,1,9.49,11.58c.27.58.44,1.2.66,1.8l.08.23,0,.11a1.39,1.39,0,0,1,.06.2l.1.43.21.86a7.08,7.08,0,0,1,.17.94l.14,1c.09.67.07,1.29.11,1.94a20.89,20.89,0,0,1-1.33,7.47,19.59,19.59,0,0,1-3.95,6.46A15.56,15.56,0,0,1,91,44.42c-.62.17-1.24.36-1.86.51a9.29,9.29,0,0,1-2.09.2,6,6,0,0,1-2.37-.55,6.7,6.7,0,0,1-1.88-1.36l-.36-.39-.17-.2-.16-.21L82,42.33l-.47-.67a9.82,9.82,0,0,1-.94-1.93,10.39,10.39,0,0,1-.62-3.9,13.57,13.57,0,0,1,2.25-7.05A13.38,13.38,0,0,1,84.65,26a7,7,0,0,1,.72-.58,9.18,9.18,0,0,1,.79-.56l.66-.41c.24-.14.54-.29.81-.43a21.65,21.65,0,0,1,12.92-1.55c1,.17,2,.36,3,.62l.18,0,.27.08.34.11.67.22,1.34.44A22.65,22.65,0,0,1,109.06,25a21.47,21.47,0,0,1,2.62,1.26,41.64,41.64,0,0,1,20.84,28.07,38.47,38.47,0,0,1,.73,10l-.43,3.51a.84.84,0,0,1-1.68-.14v-.09l.15-3.35-.09-1.82a19.16,19.16,0,0,0-.15-2.18l-.36-2.51c-.16-.89-.42-1.81-.64-2.8a41.14,41.14,0,0,0-6.17-13.1,39.39,39.39,0,0,0-13.94-12.21,18,18,0,0,0-2.29-1.06,18.23,18.23,0,0,0-2.45-.93l-1.34-.41-.68-.21-.34-.11h0l-.08,0-.16,0c-.87-.22-1.75-.38-2.64-.53a17.83,17.83,0,0,0-10.49,1.23c-.18.1-.35.17-.56.28l-.66.4c-.12.06-.32.23-.48.34a3.93,3.93,0,0,0-.49.4,9.41,9.41,0,0,0-1.71,2,9.66,9.66,0,0,0-1.64,5,6.48,6.48,0,0,0,.37,2.49,6,6,0,0,0,.46,1l.47.68.06.08c-.14-.19,0,0,0,0l.1.12.2.21a2.86,2.86,0,0,0,.78.59,2.12,2.12,0,0,0,.85.19,5.51,5.51,0,0,0,1.22-.12l1.38-.37c3.65-1.17,6.58-4.46,8-8.34A17.79,17.79,0,0,0,99,26.28c0-.51,0-1.07-.06-1.56L98.87,24a4.49,4.49,0,0,0-.12-.79l-.19-.86-.1-.43c0,.14,0,0,0,0l0-.1-.06-.19c-.18-.51-.3-1-.53-1.52A24.15,24.15,0,0,0,89.68,9.85a33.81,33.81,0,0,0-5.84-3.51c-.51-.25-1-.45-1.54-.69S81.19,5.21,80.64,5c-1-.37-2.16-.74-3.26-1a30.27,30.27,0,0,0-13.54-.64,23.49,23.49,0,0,0-3.22.91l-.77.28L59,4.89l-.41.18-.1,0-.05,0-.18.1-.73.39a18.49,18.49,0,0,0-5,4.26,16,16,0,0,0-3.88,12l.15.85.07.43.08.32A9.74,9.74,0,0,0,49.46,25a6.14,6.14,0,0,0,1.71,2.32,5.5,5.5,0,0,0,5.43.46,9.12,9.12,0,0,0,2.57-1.52,11,11,0,0,0,2-2.29A12.38,12.38,0,0,0,63,18.23a11.06,11.06,0,0,0-.19-3,10.48,10.48,0,0,0-.39-1.48,13.92,13.92,0,0,0-.55-1.34A14.53,14.53,0,0,0,60.29,10a16.25,16.25,0,0,0-2-2.13,18.4,18.4,0,0,0-4.9-3.06,20.1,20.1,0,0,0-2.68-.91c-.43-.13-.91-.22-1.39-.32s-.92-.14-1.37-.22a29.48,29.48,0,0,0-10.78.88,49.73,49.73,0,0,0-17.23,8.32A42.64,42.64,0,0,0,14,17.94a35.15,35.15,0,0,0-4,5.48,25.76,25.76,0,0,0-3.25,8.77l-.15.74c0,.24,0,.47-.07.68l-.1,1.07-.08.87a.85.85,0,1,1-1.69-.16Z"/><path class="cls-1" d="M10.57,37.13c-.74.44-1.52.89-2.34,1.27a5.59,5.59,0,0,1-2.73.67,9.32,9.32,0,0,1-2.68-.66L1.6,37.95a1,1,0,0,0-.47-.11H.77l.12-.05a.54.54,0,0,0,.19-.19.59.59,0,0,0,0-.54.56.56,0,0,0-.2-.23h0l0,0-.06,0,.33.26c1.19,1.83,2.15,3.77,3.15,5.65l1.5,2.8q.38.68.78,1.35c.27.44.55.87.83,1.3l-2.07.24c.64-2.07,1.31-4.14,2.06-6.18.39-1,.79-2,1.24-3a31.67,31.67,0,0,1,1.49-2.93.53.53,0,0,1,1,.33,31.68,31.68,0,0,1-.6,3.23c-.25,1.06-.54,2.11-.85,3.15C9,45,8.24,47.06,7.49,49.1l0,.07a1.13,1.13,0,0,1-2,.16,46.35,46.35,0,0,1-2.71-5.94A48.35,48.35,0,0,0,.12,37.62l.33.26-.1,0,0,0,0,0a.6.6,0,0,1-.21-.23.59.59,0,0,1,0-.56.62.62,0,0,1,.2-.2l.12-.06H.47l.18,0h.2l.37,0a2.19,2.19,0,0,1,.79.21l1.2.5a7.88,7.88,0,0,0,2.35.67,4.65,4.65,0,0,0,2.28-.57A24.69,24.69,0,0,0,10,36.25a.52.52,0,0,1,.56.87Z"/><text class="cls-2" transform="translate(121.06 109.69)">M<tspan class="cls-3" x="32.56" y="0">o</tspan><tspan class="cls-4" x="45.69" y="0">v</tspan><tspan x="60.03" y="0">e y</tspan><tspan class="cls-5" x="95.65" y="0">o</tspan><tspan class="cls-6" x="109.16" y="0">u</tspan><tspan x="126.08" y="0">r m</tspan><tspan class="cls-5" x="168.37" y="0">o</tspan><tspan class="cls-7" x="181.88" y="0">u</tspan><tspan x="196.25" y="0">se </tspan><tspan class="cls-8" x="231.04" y="0">t</tspan><tspan x="241.62" y="0">o </tspan><tspan class="cls-4" x="263.83" y="0">e</tspan><tspan x="276.73" y="0">nv</tspan><tspan class="cls-9" x="306.52" y="0">e</tspan><tspan class="cls-10" x="319.52" y="0">lope </tspan><tspan class="cls-8" x="379.11" y="0">t</tspan><tspan x="389.69" y="0">o op</tspan><tspan class="cls-4" x="440.92" y="0">e</tspan><tspan x="453.83" y="0">n it</tspan></text></g></g></svg>